%TF.GenerationSoftware,KiCad,Pcbnew,5.1.10*%
%TF.CreationDate,2021-11-25T21:59:15+00:00*%
%TF.ProjectId,ELE3044 - Tractor Tracker,454c4533-3034-4342-902d-205472616374,rev?*%
%TF.SameCoordinates,Original*%
%TF.FileFunction,Soldermask,Bot*%
%TF.FilePolarity,Negative*%
%FSLAX46Y46*%
G04 Gerber Fmt 4.6, Leading zero omitted, Abs format (unit mm)*
G04 Created by KiCad (PCBNEW 5.1.10) date 2021-11-25 21:59:15*
%MOMM*%
%LPD*%
G01*
G04 APERTURE LIST*
%ADD10C,4.000000*%
%ADD11R,4.000000X4.000000*%
%ADD12C,1.500000*%
%ADD13C,4.300000*%
%ADD14C,2.250000*%
%ADD15C,2.050000*%
%ADD16O,1.200000X1.900000*%
%ADD17C,1.450000*%
G04 APERTURE END LIST*
D10*
%TO.C,J1*%
X110700000Y-89827000D03*
D11*
X110700000Y-81572000D03*
%TD*%
D10*
%TO.C,J3*%
X195380000Y-154270000D03*
X187125000Y-154270000D03*
X178870000Y-154270000D03*
X170615000Y-154270000D03*
X162360000Y-154270000D03*
X154105000Y-154270000D03*
X145850000Y-154270000D03*
X137595000Y-154270000D03*
X129340000Y-154270000D03*
X121085000Y-154270000D03*
X112830000Y-154270000D03*
D11*
X104575000Y-154270000D03*
%TD*%
%TO.C,K1*%
G36*
G01*
X132250000Y-130499500D02*
X132250000Y-129500500D01*
G75*
G02*
X132500500Y-129250000I250500J0D01*
G01*
X133499500Y-129250000D01*
G75*
G02*
X133750000Y-129500500I0J-250500D01*
G01*
X133750000Y-130499500D01*
G75*
G02*
X133499500Y-130750000I-250500J0D01*
G01*
X132500500Y-130750000D01*
G75*
G02*
X132250000Y-130499500I0J250500D01*
G01*
G37*
D12*
X133000000Y-135080000D03*
X133000000Y-137620000D03*
X133000000Y-140160000D03*
X133000000Y-142700000D03*
X138080000Y-142700000D03*
X138080000Y-140160000D03*
X138080000Y-137620000D03*
X138080000Y-135080000D03*
X138080000Y-130000000D03*
%TD*%
D13*
%TO.C,H4*%
X106000000Y-144000000D03*
%TD*%
%TO.C,H3*%
X106000000Y-71000000D03*
%TD*%
%TO.C,H2*%
X194000000Y-144000000D03*
%TD*%
%TO.C,H1*%
X194000000Y-71000000D03*
%TD*%
%TO.C,K2*%
G36*
G01*
X162150000Y-130699500D02*
X162150000Y-129700500D01*
G75*
G02*
X162400500Y-129450000I250500J0D01*
G01*
X163399500Y-129450000D01*
G75*
G02*
X163650000Y-129700500I0J-250500D01*
G01*
X163650000Y-130699500D01*
G75*
G02*
X163399500Y-130950000I-250500J0D01*
G01*
X162400500Y-130950000D01*
G75*
G02*
X162150000Y-130699500I0J250500D01*
G01*
G37*
D12*
X162900000Y-135280000D03*
X162900000Y-137820000D03*
X162900000Y-140360000D03*
X162900000Y-142900000D03*
X167980000Y-142900000D03*
X167980000Y-140360000D03*
X167980000Y-137820000D03*
X167980000Y-135280000D03*
X167980000Y-130200000D03*
%TD*%
D14*
%TO.C,J4*%
X182260000Y-73540000D03*
X182260000Y-68460000D03*
X187340000Y-68460000D03*
X187340000Y-73540000D03*
D15*
X184800000Y-71000000D03*
%TD*%
D16*
%TO.C,J2*%
X140900000Y-66500000D03*
X147900000Y-66500000D03*
D17*
X141900000Y-69200000D03*
X146900000Y-69200000D03*
%TD*%
M02*
