%TF.GenerationSoftware,KiCad,Pcbnew,5.1.10*%
%TF.CreationDate,2021-12-02T21:41:10+00:00*%
%TF.ProjectId,ELE3044 - Tractor Tracker,454c4533-3034-4342-902d-205472616374,rev?*%
%TF.SameCoordinates,Original*%
%TF.FileFunction,Other,Comment*%
%FSLAX46Y46*%
G04 Gerber Fmt 4.6, Leading zero omitted, Abs format (unit mm)*
G04 Created by KiCad (PCBNEW 5.1.10) date 2021-12-02 21:41:10*
%MOMM*%
%LPD*%
G01*
G04 APERTURE LIST*
%ADD10C,0.150000*%
G04 APERTURE END LIST*
D10*
%TO.C,H4*%
X110300000Y-144000000D02*
G75*
G03*
X110300000Y-144000000I-4300000J0D01*
G01*
%TO.C,H3*%
X110300000Y-71000000D02*
G75*
G03*
X110300000Y-71000000I-4300000J0D01*
G01*
%TO.C,H2*%
X198300000Y-144000000D02*
G75*
G03*
X198300000Y-144000000I-4300000J0D01*
G01*
%TO.C,H1*%
X198300000Y-71000000D02*
G75*
G03*
X198300000Y-71000000I-4300000J0D01*
G01*
%TD*%
%TO.C,U4*%
X196358333Y-106339285D02*
X196358333Y-105744047D01*
X196715476Y-106458333D02*
X195465476Y-106041666D01*
X196715476Y-105625000D01*
X196715476Y-105208333D02*
X195465476Y-105208333D01*
X196715476Y-104494047D01*
X195465476Y-104494047D01*
X195465476Y-104077380D02*
X195465476Y-103363095D01*
X196715476Y-103720238D02*
X195465476Y-103720238D01*
X196060714Y-102946428D02*
X196060714Y-102529761D01*
X196715476Y-102351190D02*
X196715476Y-102946428D01*
X195465476Y-102946428D01*
X195465476Y-102351190D01*
X196715476Y-101815476D02*
X195465476Y-101815476D01*
X196715476Y-101101190D01*
X195465476Y-101101190D01*
X196715476Y-100505952D02*
X195465476Y-100505952D01*
X196715476Y-99791666D01*
X195465476Y-99791666D01*
X196358333Y-99255952D02*
X196358333Y-98660714D01*
X196715476Y-99375000D02*
X195465476Y-98958333D01*
X196715476Y-98541666D01*
X207994761Y-114642857D02*
X205994761Y-114642857D01*
X207994761Y-113500000D02*
X206851904Y-114357142D01*
X205994761Y-113500000D02*
X207137619Y-114642857D01*
X206947142Y-112642857D02*
X206947142Y-111976190D01*
X207994761Y-111690476D02*
X207994761Y-112642857D01*
X205994761Y-112642857D01*
X205994761Y-111690476D01*
X206947142Y-110833333D02*
X206947142Y-110166666D01*
X207994761Y-109880952D02*
X207994761Y-110833333D01*
X205994761Y-110833333D01*
X205994761Y-109880952D01*
X207994761Y-109023809D02*
X205994761Y-109023809D01*
X205994761Y-108261904D01*
X206090000Y-108071428D01*
X206185238Y-107976190D01*
X206375714Y-107880952D01*
X206661428Y-107880952D01*
X206851904Y-107976190D01*
X206947142Y-108071428D01*
X207042380Y-108261904D01*
X207042380Y-109023809D01*
X207232857Y-107023809D02*
X207232857Y-105500000D01*
X205994761Y-104166666D02*
X205994761Y-103785714D01*
X206090000Y-103595238D01*
X206280476Y-103404761D01*
X206661428Y-103309523D01*
X207328095Y-103309523D01*
X207709047Y-103404761D01*
X207899523Y-103595238D01*
X207994761Y-103785714D01*
X207994761Y-104166666D01*
X207899523Y-104357142D01*
X207709047Y-104547619D01*
X207328095Y-104642857D01*
X206661428Y-104642857D01*
X206280476Y-104547619D01*
X206090000Y-104357142D01*
X205994761Y-104166666D01*
X205994761Y-102452380D02*
X207613809Y-102452380D01*
X207804285Y-102357142D01*
X207899523Y-102261904D01*
X207994761Y-102071428D01*
X207994761Y-101690476D01*
X207899523Y-101500000D01*
X207804285Y-101404761D01*
X207613809Y-101309523D01*
X205994761Y-101309523D01*
X205994761Y-100642857D02*
X205994761Y-99500000D01*
X207994761Y-100071428D02*
X205994761Y-100071428D01*
X205994761Y-97500000D02*
X205994761Y-96166666D01*
X207994761Y-97500000D01*
X207994761Y-96166666D01*
X205994761Y-95023809D02*
X205994761Y-94642857D01*
X206090000Y-94452380D01*
X206280476Y-94261904D01*
X206661428Y-94166666D01*
X207328095Y-94166666D01*
X207709047Y-94261904D01*
X207899523Y-94452380D01*
X207994761Y-94642857D01*
X207994761Y-95023809D01*
X207899523Y-95214285D01*
X207709047Y-95404761D01*
X207328095Y-95500000D01*
X206661428Y-95500000D01*
X206280476Y-95404761D01*
X206090000Y-95214285D01*
X205994761Y-95023809D01*
X207994761Y-93309523D02*
X205994761Y-93309523D01*
X207994761Y-92166666D01*
X205994761Y-92166666D01*
X206947142Y-91214285D02*
X206947142Y-90547619D01*
X207994761Y-90261904D02*
X207994761Y-91214285D01*
X205994761Y-91214285D01*
X205994761Y-90261904D01*
%TD*%
M02*
