%TF.GenerationSoftware,KiCad,Pcbnew,5.1.10*%
%TF.CreationDate,2021-11-25T21:59:15+00:00*%
%TF.ProjectId,ELE3044 - Tractor Tracker,454c4533-3034-4342-902d-205472616374,rev?*%
%TF.SameCoordinates,Original*%
%TF.FileFunction,Paste,Top*%
%TF.FilePolarity,Positive*%
%FSLAX46Y46*%
G04 Gerber Fmt 4.6, Leading zero omitted, Abs format (unit mm)*
G04 Created by KiCad (PCBNEW 5.1.10) date 2021-11-25 21:59:15*
%MOMM*%
%LPD*%
G01*
G04 APERTURE LIST*
%ADD10R,3.500000X1.800000*%
%ADD11R,3.500000X2.300000*%
%ADD12R,0.900000X1.500000*%
%ADD13R,1.500000X0.900000*%
%ADD14R,4.100000X4.100000*%
%ADD15R,1.750000X0.450000*%
%ADD16R,2.000000X1.500000*%
%ADD17R,2.000000X3.800000*%
%ADD18R,1.300000X1.550000*%
%ADD19R,0.800000X0.900000*%
%ADD20R,0.900000X0.800000*%
%ADD21R,1.560000X0.650000*%
%ADD22R,1.500000X1.900000*%
%ADD23R,0.400000X1.350000*%
G04 APERTURE END LIST*
%TO.C,U3*%
G36*
G01*
X177600000Y-72025000D02*
X177600000Y-71675000D01*
G75*
G02*
X177775000Y-71500000I175000J0D01*
G01*
X179225000Y-71500000D01*
G75*
G02*
X179400000Y-71675000I0J-175000D01*
G01*
X179400000Y-72025000D01*
G75*
G02*
X179225000Y-72200000I-175000J0D01*
G01*
X177775000Y-72200000D01*
G75*
G02*
X177600000Y-72025000I0J175000D01*
G01*
G37*
G36*
G01*
X177600000Y-73150000D02*
X177600000Y-72750000D01*
G75*
G02*
X177800000Y-72550000I200000J0D01*
G01*
X179200000Y-72550000D01*
G75*
G02*
X179400000Y-72750000I0J-200000D01*
G01*
X179400000Y-73150000D01*
G75*
G02*
X179200000Y-73350000I-200000J0D01*
G01*
X177800000Y-73350000D01*
G75*
G02*
X177600000Y-73150000I0J200000D01*
G01*
G37*
G36*
G01*
X177600000Y-74250000D02*
X177600000Y-73850000D01*
G75*
G02*
X177800000Y-73650000I200000J0D01*
G01*
X179200000Y-73650000D01*
G75*
G02*
X179400000Y-73850000I0J-200000D01*
G01*
X179400000Y-74250000D01*
G75*
G02*
X179200000Y-74450000I-200000J0D01*
G01*
X177800000Y-74450000D01*
G75*
G02*
X177600000Y-74250000I0J200000D01*
G01*
G37*
G36*
G01*
X177600000Y-75350000D02*
X177600000Y-74950000D01*
G75*
G02*
X177800000Y-74750000I200000J0D01*
G01*
X179200000Y-74750000D01*
G75*
G02*
X179400000Y-74950000I0J-200000D01*
G01*
X179400000Y-75350000D01*
G75*
G02*
X179200000Y-75550000I-200000J0D01*
G01*
X177800000Y-75550000D01*
G75*
G02*
X177600000Y-75350000I0J200000D01*
G01*
G37*
G36*
G01*
X177600000Y-76450000D02*
X177600000Y-76050000D01*
G75*
G02*
X177800000Y-75850000I200000J0D01*
G01*
X179200000Y-75850000D01*
G75*
G02*
X179400000Y-76050000I0J-200000D01*
G01*
X179400000Y-76450000D01*
G75*
G02*
X179200000Y-76650000I-200000J0D01*
G01*
X177800000Y-76650000D01*
G75*
G02*
X177600000Y-76450000I0J200000D01*
G01*
G37*
G36*
G01*
X177600000Y-77550000D02*
X177600000Y-77150000D01*
G75*
G02*
X177800000Y-76950000I200000J0D01*
G01*
X179200000Y-76950000D01*
G75*
G02*
X179400000Y-77150000I0J-200000D01*
G01*
X179400000Y-77550000D01*
G75*
G02*
X179200000Y-77750000I-200000J0D01*
G01*
X177800000Y-77750000D01*
G75*
G02*
X177600000Y-77550000I0J200000D01*
G01*
G37*
G36*
G01*
X177600000Y-78650000D02*
X177600000Y-78250000D01*
G75*
G02*
X177800000Y-78050000I200000J0D01*
G01*
X179200000Y-78050000D01*
G75*
G02*
X179400000Y-78250000I0J-200000D01*
G01*
X179400000Y-78650000D01*
G75*
G02*
X179200000Y-78850000I-200000J0D01*
G01*
X177800000Y-78850000D01*
G75*
G02*
X177600000Y-78650000I0J200000D01*
G01*
G37*
G36*
G01*
X177600000Y-79750000D02*
X177600000Y-79350000D01*
G75*
G02*
X177800000Y-79150000I200000J0D01*
G01*
X179200000Y-79150000D01*
G75*
G02*
X179400000Y-79350000I0J-200000D01*
G01*
X179400000Y-79750000D01*
G75*
G02*
X179200000Y-79950000I-200000J0D01*
G01*
X177800000Y-79950000D01*
G75*
G02*
X177600000Y-79750000I0J200000D01*
G01*
G37*
G36*
G01*
X177600000Y-80825000D02*
X177600000Y-80475000D01*
G75*
G02*
X177775000Y-80300000I175000J0D01*
G01*
X179225000Y-80300000D01*
G75*
G02*
X179400000Y-80475000I0J-175000D01*
G01*
X179400000Y-80825000D01*
G75*
G02*
X179225000Y-81000000I-175000J0D01*
G01*
X177775000Y-81000000D01*
G75*
G02*
X177600000Y-80825000I0J175000D01*
G01*
G37*
G36*
G01*
X168100000Y-80825000D02*
X168100000Y-80475000D01*
G75*
G02*
X168275000Y-80300000I175000J0D01*
G01*
X169725000Y-80300000D01*
G75*
G02*
X169900000Y-80475000I0J-175000D01*
G01*
X169900000Y-80825000D01*
G75*
G02*
X169725000Y-81000000I-175000J0D01*
G01*
X168275000Y-81000000D01*
G75*
G02*
X168100000Y-80825000I0J175000D01*
G01*
G37*
G36*
G01*
X168100000Y-79750000D02*
X168100000Y-79350000D01*
G75*
G02*
X168300000Y-79150000I200000J0D01*
G01*
X169700000Y-79150000D01*
G75*
G02*
X169900000Y-79350000I0J-200000D01*
G01*
X169900000Y-79750000D01*
G75*
G02*
X169700000Y-79950000I-200000J0D01*
G01*
X168300000Y-79950000D01*
G75*
G02*
X168100000Y-79750000I0J200000D01*
G01*
G37*
G36*
G01*
X168100000Y-78650000D02*
X168100000Y-78250000D01*
G75*
G02*
X168300000Y-78050000I200000J0D01*
G01*
X169700000Y-78050000D01*
G75*
G02*
X169900000Y-78250000I0J-200000D01*
G01*
X169900000Y-78650000D01*
G75*
G02*
X169700000Y-78850000I-200000J0D01*
G01*
X168300000Y-78850000D01*
G75*
G02*
X168100000Y-78650000I0J200000D01*
G01*
G37*
G36*
G01*
X168100000Y-77550000D02*
X168100000Y-77150000D01*
G75*
G02*
X168300000Y-76950000I200000J0D01*
G01*
X169700000Y-76950000D01*
G75*
G02*
X169900000Y-77150000I0J-200000D01*
G01*
X169900000Y-77550000D01*
G75*
G02*
X169700000Y-77750000I-200000J0D01*
G01*
X168300000Y-77750000D01*
G75*
G02*
X168100000Y-77550000I0J200000D01*
G01*
G37*
G36*
G01*
X168100000Y-76450000D02*
X168100000Y-76050000D01*
G75*
G02*
X168300000Y-75850000I200000J0D01*
G01*
X169700000Y-75850000D01*
G75*
G02*
X169900000Y-76050000I0J-200000D01*
G01*
X169900000Y-76450000D01*
G75*
G02*
X169700000Y-76650000I-200000J0D01*
G01*
X168300000Y-76650000D01*
G75*
G02*
X168100000Y-76450000I0J200000D01*
G01*
G37*
G36*
G01*
X168100000Y-75350000D02*
X168100000Y-74950000D01*
G75*
G02*
X168300000Y-74750000I200000J0D01*
G01*
X169700000Y-74750000D01*
G75*
G02*
X169900000Y-74950000I0J-200000D01*
G01*
X169900000Y-75350000D01*
G75*
G02*
X169700000Y-75550000I-200000J0D01*
G01*
X168300000Y-75550000D01*
G75*
G02*
X168100000Y-75350000I0J200000D01*
G01*
G37*
G36*
G01*
X168100000Y-74250000D02*
X168100000Y-73850000D01*
G75*
G02*
X168300000Y-73650000I200000J0D01*
G01*
X169700000Y-73650000D01*
G75*
G02*
X169900000Y-73850000I0J-200000D01*
G01*
X169900000Y-74250000D01*
G75*
G02*
X169700000Y-74450000I-200000J0D01*
G01*
X168300000Y-74450000D01*
G75*
G02*
X168100000Y-74250000I0J200000D01*
G01*
G37*
G36*
G01*
X168100000Y-73150000D02*
X168100000Y-72750000D01*
G75*
G02*
X168300000Y-72550000I200000J0D01*
G01*
X169700000Y-72550000D01*
G75*
G02*
X169900000Y-72750000I0J-200000D01*
G01*
X169900000Y-73150000D01*
G75*
G02*
X169700000Y-73350000I-200000J0D01*
G01*
X168300000Y-73350000D01*
G75*
G02*
X168100000Y-73150000I0J200000D01*
G01*
G37*
G36*
G01*
X168100000Y-72025000D02*
X168100000Y-71675000D01*
G75*
G02*
X168275000Y-71500000I175000J0D01*
G01*
X169725000Y-71500000D01*
G75*
G02*
X169900000Y-71675000I0J-175000D01*
G01*
X169900000Y-72025000D01*
G75*
G02*
X169725000Y-72200000I-175000J0D01*
G01*
X168275000Y-72200000D01*
G75*
G02*
X168100000Y-72025000I0J175000D01*
G01*
G37*
%TD*%
%TO.C,D2*%
G36*
G01*
X130737500Y-81793750D02*
X130737500Y-82706250D01*
G75*
G02*
X130493750Y-82950000I-243750J0D01*
G01*
X130006250Y-82950000D01*
G75*
G02*
X129762500Y-82706250I0J243750D01*
G01*
X129762500Y-81793750D01*
G75*
G02*
X130006250Y-81550000I243750J0D01*
G01*
X130493750Y-81550000D01*
G75*
G02*
X130737500Y-81793750I0J-243750D01*
G01*
G37*
G36*
G01*
X132612500Y-81793750D02*
X132612500Y-82706250D01*
G75*
G02*
X132368750Y-82950000I-243750J0D01*
G01*
X131881250Y-82950000D01*
G75*
G02*
X131637500Y-82706250I0J243750D01*
G01*
X131637500Y-81793750D01*
G75*
G02*
X131881250Y-81550000I243750J0D01*
G01*
X132368750Y-81550000D01*
G75*
G02*
X132612500Y-81793750I0J-243750D01*
G01*
G37*
%TD*%
D10*
%TO.C,D7*%
X108750000Y-101500000D03*
X113750000Y-101500000D03*
%TD*%
D11*
%TO.C,D10*%
X138400000Y-147000000D03*
X133000000Y-147000000D03*
%TD*%
D12*
%TO.C,U4*%
X191775000Y-93875000D03*
X170775000Y-93875000D03*
X169275000Y-93875000D03*
D13*
X168525000Y-95750000D03*
X168525000Y-97250000D03*
X168525000Y-98750000D03*
X168525000Y-100250000D03*
X168525000Y-101750000D03*
X168525000Y-103250000D03*
X168525000Y-104750000D03*
X168525000Y-106250000D03*
D12*
X190275000Y-93875000D03*
X188775000Y-93875000D03*
X187275000Y-93875000D03*
X185775000Y-93875000D03*
X184275000Y-93875000D03*
X182775000Y-93875000D03*
X181275000Y-93875000D03*
X179775000Y-93875000D03*
X178275000Y-93875000D03*
X176775000Y-93875000D03*
X175275000Y-93875000D03*
X173775000Y-93875000D03*
X172275000Y-93875000D03*
X185675000Y-111125000D03*
X184175000Y-111125000D03*
X182675000Y-111125000D03*
X181175000Y-111125000D03*
X179675000Y-111125000D03*
X178175000Y-111125000D03*
X176675000Y-111125000D03*
X175175000Y-111125000D03*
X173675000Y-111125000D03*
X172175000Y-111125000D03*
X170675000Y-111125000D03*
X169175000Y-111125000D03*
D13*
X168525000Y-109250000D03*
X168525000Y-107750000D03*
D12*
X187175000Y-111125000D03*
X188775000Y-111125000D03*
X190275000Y-111125000D03*
X191675000Y-111125000D03*
D14*
X183735000Y-101310000D03*
%TD*%
D15*
%TO.C,U2*%
X148200000Y-76575000D03*
X148200000Y-77225000D03*
X148200000Y-77875000D03*
X148200000Y-78525000D03*
X148200000Y-79175000D03*
X148200000Y-79825000D03*
X148200000Y-80475000D03*
X148200000Y-81125000D03*
X148200000Y-81775000D03*
X148200000Y-82425000D03*
X148200000Y-83075000D03*
X148200000Y-83725000D03*
X148200000Y-84375000D03*
X148200000Y-85025000D03*
X141000000Y-85025000D03*
X141000000Y-84375000D03*
X141000000Y-83725000D03*
X141000000Y-83075000D03*
X141000000Y-82425000D03*
X141000000Y-81775000D03*
X141000000Y-81125000D03*
X141000000Y-80475000D03*
X141000000Y-79825000D03*
X141000000Y-79175000D03*
X141000000Y-78525000D03*
X141000000Y-77875000D03*
X141000000Y-77225000D03*
X141000000Y-76575000D03*
%TD*%
D16*
%TO.C,U1*%
X121500000Y-83450000D03*
X121500000Y-88050000D03*
X121500000Y-85750000D03*
D17*
X127800000Y-85750000D03*
%TD*%
D18*
%TO.C,SW2*%
X107950000Y-115375000D03*
X112450000Y-115375000D03*
X112450000Y-107425000D03*
X107950000Y-107425000D03*
%TD*%
%TO.C,SW1*%
X107950000Y-126375000D03*
X112450000Y-126375000D03*
X112450000Y-118425000D03*
X107950000Y-118425000D03*
%TD*%
%TO.C,R2*%
G36*
G01*
X135900000Y-82700001D02*
X135900000Y-81799999D01*
G75*
G02*
X136149999Y-81550000I249999J0D01*
G01*
X136850001Y-81550000D01*
G75*
G02*
X137100000Y-81799999I0J-249999D01*
G01*
X137100000Y-82700001D01*
G75*
G02*
X136850001Y-82950000I-249999J0D01*
G01*
X136149999Y-82950000D01*
G75*
G02*
X135900000Y-82700001I0J249999D01*
G01*
G37*
G36*
G01*
X133900000Y-82700001D02*
X133900000Y-81799999D01*
G75*
G02*
X134149999Y-81550000I249999J0D01*
G01*
X134850001Y-81550000D01*
G75*
G02*
X135100000Y-81799999I0J-249999D01*
G01*
X135100000Y-82700001D01*
G75*
G02*
X134850001Y-82950000I-249999J0D01*
G01*
X134149999Y-82950000D01*
G75*
G02*
X133900000Y-82700001I0J249999D01*
G01*
G37*
%TD*%
%TO.C,R1*%
G36*
G01*
X135900000Y-89700001D02*
X135900000Y-88799999D01*
G75*
G02*
X136149999Y-88550000I249999J0D01*
G01*
X136850001Y-88550000D01*
G75*
G02*
X137100000Y-88799999I0J-249999D01*
G01*
X137100000Y-89700001D01*
G75*
G02*
X136850001Y-89950000I-249999J0D01*
G01*
X136149999Y-89950000D01*
G75*
G02*
X135900000Y-89700001I0J249999D01*
G01*
G37*
G36*
G01*
X133900000Y-89700001D02*
X133900000Y-88799999D01*
G75*
G02*
X134149999Y-88550000I249999J0D01*
G01*
X134850001Y-88550000D01*
G75*
G02*
X135100000Y-88799999I0J-249999D01*
G01*
X135100000Y-89700001D01*
G75*
G02*
X134850001Y-89950000I-249999J0D01*
G01*
X134149999Y-89950000D01*
G75*
G02*
X133900000Y-89700001I0J249999D01*
G01*
G37*
%TD*%
%TO.C,R6*%
G36*
G01*
X157050001Y-75400000D02*
X156149999Y-75400000D01*
G75*
G02*
X155900000Y-75150001I0J249999D01*
G01*
X155900000Y-74449999D01*
G75*
G02*
X156149999Y-74200000I249999J0D01*
G01*
X157050001Y-74200000D01*
G75*
G02*
X157300000Y-74449999I0J-249999D01*
G01*
X157300000Y-75150001D01*
G75*
G02*
X157050001Y-75400000I-249999J0D01*
G01*
G37*
G36*
G01*
X157050001Y-77400000D02*
X156149999Y-77400000D01*
G75*
G02*
X155900000Y-77150001I0J249999D01*
G01*
X155900000Y-76449999D01*
G75*
G02*
X156149999Y-76200000I249999J0D01*
G01*
X157050001Y-76200000D01*
G75*
G02*
X157300000Y-76449999I0J-249999D01*
G01*
X157300000Y-77150001D01*
G75*
G02*
X157050001Y-77400000I-249999J0D01*
G01*
G37*
%TD*%
%TO.C,R5*%
G36*
G01*
X154650001Y-75400000D02*
X153749999Y-75400000D01*
G75*
G02*
X153500000Y-75150001I0J249999D01*
G01*
X153500000Y-74449999D01*
G75*
G02*
X153749999Y-74200000I249999J0D01*
G01*
X154650001Y-74200000D01*
G75*
G02*
X154900000Y-74449999I0J-249999D01*
G01*
X154900000Y-75150001D01*
G75*
G02*
X154650001Y-75400000I-249999J0D01*
G01*
G37*
G36*
G01*
X154650001Y-77400000D02*
X153749999Y-77400000D01*
G75*
G02*
X153500000Y-77150001I0J249999D01*
G01*
X153500000Y-76449999D01*
G75*
G02*
X153749999Y-76200000I249999J0D01*
G01*
X154650001Y-76200000D01*
G75*
G02*
X154900000Y-76449999I0J-249999D01*
G01*
X154900000Y-77150001D01*
G75*
G02*
X154650001Y-77400000I-249999J0D01*
G01*
G37*
%TD*%
D19*
%TO.C,Q5*%
X172950000Y-141000000D03*
X173900000Y-143000000D03*
X172000000Y-143000000D03*
%TD*%
%TO.C,Q3*%
X172950000Y-128000000D03*
X173900000Y-130000000D03*
X172000000Y-130000000D03*
%TD*%
%TO.C,Q4*%
X142950000Y-140700000D03*
X143900000Y-142700000D03*
X142000000Y-142700000D03*
%TD*%
%TO.C,Q2*%
X142950000Y-128000000D03*
X143900000Y-130000000D03*
X142000000Y-130000000D03*
%TD*%
D20*
%TO.C,Q7*%
X134000000Y-119050000D03*
X132000000Y-120000000D03*
X132000000Y-118100000D03*
%TD*%
%TO.C,Q6*%
X134000000Y-115000000D03*
X132000000Y-115950000D03*
X132000000Y-114050000D03*
%TD*%
D21*
%TO.C,Q1*%
X116200000Y-97450000D03*
X116200000Y-96500000D03*
X116200000Y-98400000D03*
X113500000Y-98400000D03*
X113500000Y-97450000D03*
X113500000Y-96500000D03*
%TD*%
D22*
%TO.C,J2*%
X145400000Y-66500000D03*
D23*
X144400000Y-69200000D03*
X143750000Y-69200000D03*
X143100000Y-69200000D03*
X145700000Y-69200000D03*
X145050000Y-69200000D03*
D22*
X143400000Y-66500000D03*
%TD*%
%TO.C,F1*%
G36*
G01*
X108712500Y-95875000D02*
X108712500Y-97125000D01*
G75*
G02*
X108462500Y-97375000I-250000J0D01*
G01*
X107537500Y-97375000D01*
G75*
G02*
X107287500Y-97125000I0J250000D01*
G01*
X107287500Y-95875000D01*
G75*
G02*
X107537500Y-95625000I250000J0D01*
G01*
X108462500Y-95625000D01*
G75*
G02*
X108712500Y-95875000I0J-250000D01*
G01*
G37*
G36*
G01*
X111687500Y-95875000D02*
X111687500Y-97125000D01*
G75*
G02*
X111437500Y-97375000I-250000J0D01*
G01*
X110512500Y-97375000D01*
G75*
G02*
X110262500Y-97125000I0J250000D01*
G01*
X110262500Y-95875000D01*
G75*
G02*
X110512500Y-95625000I250000J0D01*
G01*
X111437500Y-95625000D01*
G75*
G02*
X111687500Y-95875000I0J-250000D01*
G01*
G37*
%TD*%
%TO.C,D1*%
G36*
G01*
X130800000Y-88793750D02*
X130800000Y-89706250D01*
G75*
G02*
X130556250Y-89950000I-243750J0D01*
G01*
X130068750Y-89950000D01*
G75*
G02*
X129825000Y-89706250I0J243750D01*
G01*
X129825000Y-88793750D01*
G75*
G02*
X130068750Y-88550000I243750J0D01*
G01*
X130556250Y-88550000D01*
G75*
G02*
X130800000Y-88793750I0J-243750D01*
G01*
G37*
G36*
G01*
X132675000Y-88793750D02*
X132675000Y-89706250D01*
G75*
G02*
X132431250Y-89950000I-243750J0D01*
G01*
X131943750Y-89950000D01*
G75*
G02*
X131700000Y-89706250I0J243750D01*
G01*
X131700000Y-88793750D01*
G75*
G02*
X131943750Y-88550000I243750J0D01*
G01*
X132431250Y-88550000D01*
G75*
G02*
X132675000Y-88793750I0J-243750D01*
G01*
G37*
%TD*%
%TO.C,D6*%
G36*
G01*
X157056250Y-71487500D02*
X156143750Y-71487500D01*
G75*
G02*
X155900000Y-71243750I0J243750D01*
G01*
X155900000Y-70756250D01*
G75*
G02*
X156143750Y-70512500I243750J0D01*
G01*
X157056250Y-70512500D01*
G75*
G02*
X157300000Y-70756250I0J-243750D01*
G01*
X157300000Y-71243750D01*
G75*
G02*
X157056250Y-71487500I-243750J0D01*
G01*
G37*
G36*
G01*
X157056250Y-73362500D02*
X156143750Y-73362500D01*
G75*
G02*
X155900000Y-73118750I0J243750D01*
G01*
X155900000Y-72631250D01*
G75*
G02*
X156143750Y-72387500I243750J0D01*
G01*
X157056250Y-72387500D01*
G75*
G02*
X157300000Y-72631250I0J-243750D01*
G01*
X157300000Y-73118750D01*
G75*
G02*
X157056250Y-73362500I-243750J0D01*
G01*
G37*
%TD*%
%TO.C,D5*%
G36*
G01*
X154656250Y-71487500D02*
X153743750Y-71487500D01*
G75*
G02*
X153500000Y-71243750I0J243750D01*
G01*
X153500000Y-70756250D01*
G75*
G02*
X153743750Y-70512500I243750J0D01*
G01*
X154656250Y-70512500D01*
G75*
G02*
X154900000Y-70756250I0J-243750D01*
G01*
X154900000Y-71243750D01*
G75*
G02*
X154656250Y-71487500I-243750J0D01*
G01*
G37*
G36*
G01*
X154656250Y-73362500D02*
X153743750Y-73362500D01*
G75*
G02*
X153500000Y-73118750I0J243750D01*
G01*
X153500000Y-72631250D01*
G75*
G02*
X153743750Y-72387500I243750J0D01*
G01*
X154656250Y-72387500D01*
G75*
G02*
X154900000Y-72631250I0J-243750D01*
G01*
X154900000Y-73118750D01*
G75*
G02*
X154656250Y-73362500I-243750J0D01*
G01*
G37*
%TD*%
%TO.C,D4*%
G36*
G01*
X152256250Y-71487500D02*
X151343750Y-71487500D01*
G75*
G02*
X151100000Y-71243750I0J243750D01*
G01*
X151100000Y-70756250D01*
G75*
G02*
X151343750Y-70512500I243750J0D01*
G01*
X152256250Y-70512500D01*
G75*
G02*
X152500000Y-70756250I0J-243750D01*
G01*
X152500000Y-71243750D01*
G75*
G02*
X152256250Y-71487500I-243750J0D01*
G01*
G37*
G36*
G01*
X152256250Y-73362500D02*
X151343750Y-73362500D01*
G75*
G02*
X151100000Y-73118750I0J243750D01*
G01*
X151100000Y-72631250D01*
G75*
G02*
X151343750Y-72387500I243750J0D01*
G01*
X152256250Y-72387500D01*
G75*
G02*
X152500000Y-72631250I0J-243750D01*
G01*
X152500000Y-73118750D01*
G75*
G02*
X152256250Y-73362500I-243750J0D01*
G01*
G37*
%TD*%
%TO.C,D3*%
G36*
G01*
X159456250Y-71487500D02*
X158543750Y-71487500D01*
G75*
G02*
X158300000Y-71243750I0J243750D01*
G01*
X158300000Y-70756250D01*
G75*
G02*
X158543750Y-70512500I243750J0D01*
G01*
X159456250Y-70512500D01*
G75*
G02*
X159700000Y-70756250I0J-243750D01*
G01*
X159700000Y-71243750D01*
G75*
G02*
X159456250Y-71487500I-243750J0D01*
G01*
G37*
G36*
G01*
X159456250Y-73362500D02*
X158543750Y-73362500D01*
G75*
G02*
X158300000Y-73118750I0J243750D01*
G01*
X158300000Y-72631250D01*
G75*
G02*
X158543750Y-72387500I243750J0D01*
G01*
X159456250Y-72387500D01*
G75*
G02*
X159700000Y-72631250I0J-243750D01*
G01*
X159700000Y-73118750D01*
G75*
G02*
X159456250Y-73362500I-243750J0D01*
G01*
G37*
%TD*%
D11*
%TO.C,D9*%
X167900000Y-125500000D03*
X162500000Y-125500000D03*
%TD*%
%TO.C,D11*%
X168100000Y-147000000D03*
X162700000Y-147000000D03*
%TD*%
%TO.C,D8*%
X138400000Y-125500000D03*
X133000000Y-125500000D03*
%TD*%
%TO.C,C4*%
G36*
G01*
X121750000Y-73950000D02*
X121750000Y-75050000D01*
G75*
G02*
X121500000Y-75300000I-250000J0D01*
G01*
X118500000Y-75300000D01*
G75*
G02*
X118250000Y-75050000I0J250000D01*
G01*
X118250000Y-73950000D01*
G75*
G02*
X118500000Y-73700000I250000J0D01*
G01*
X121500000Y-73700000D01*
G75*
G02*
X121750000Y-73950000I0J-250000D01*
G01*
G37*
G36*
G01*
X127150000Y-73950000D02*
X127150000Y-75050000D01*
G75*
G02*
X126900000Y-75300000I-250000J0D01*
G01*
X123900000Y-75300000D01*
G75*
G02*
X123650000Y-75050000I0J250000D01*
G01*
X123650000Y-73950000D01*
G75*
G02*
X123900000Y-73700000I250000J0D01*
G01*
X126900000Y-73700000D01*
G75*
G02*
X127150000Y-73950000I0J-250000D01*
G01*
G37*
%TD*%
%TO.C,C1*%
G36*
G01*
X123650000Y-97550000D02*
X123650000Y-96450000D01*
G75*
G02*
X123900000Y-96200000I250000J0D01*
G01*
X126900000Y-96200000D01*
G75*
G02*
X127150000Y-96450000I0J-250000D01*
G01*
X127150000Y-97550000D01*
G75*
G02*
X126900000Y-97800000I-250000J0D01*
G01*
X123900000Y-97800000D01*
G75*
G02*
X123650000Y-97550000I0J250000D01*
G01*
G37*
G36*
G01*
X118250000Y-97550000D02*
X118250000Y-96450000D01*
G75*
G02*
X118500000Y-96200000I250000J0D01*
G01*
X121500000Y-96200000D01*
G75*
G02*
X121750000Y-96450000I0J-250000D01*
G01*
X121750000Y-97550000D01*
G75*
G02*
X121500000Y-97800000I-250000J0D01*
G01*
X118500000Y-97800000D01*
G75*
G02*
X118250000Y-97550000I0J250000D01*
G01*
G37*
%TD*%
%TO.C,C7*%
G36*
G01*
X166875000Y-75487500D02*
X165925000Y-75487500D01*
G75*
G02*
X165675000Y-75237500I0J250000D01*
G01*
X165675000Y-74562500D01*
G75*
G02*
X165925000Y-74312500I250000J0D01*
G01*
X166875000Y-74312500D01*
G75*
G02*
X167125000Y-74562500I0J-250000D01*
G01*
X167125000Y-75237500D01*
G75*
G02*
X166875000Y-75487500I-250000J0D01*
G01*
G37*
G36*
G01*
X166875000Y-77562500D02*
X165925000Y-77562500D01*
G75*
G02*
X165675000Y-77312500I0J250000D01*
G01*
X165675000Y-76637500D01*
G75*
G02*
X165925000Y-76387500I250000J0D01*
G01*
X166875000Y-76387500D01*
G75*
G02*
X167125000Y-76637500I0J-250000D01*
G01*
X167125000Y-77312500D01*
G75*
G02*
X166875000Y-77562500I-250000J0D01*
G01*
G37*
%TD*%
%TO.C,C6*%
G36*
G01*
X165925000Y-80387500D02*
X166875000Y-80387500D01*
G75*
G02*
X167125000Y-80637500I0J-250000D01*
G01*
X167125000Y-81312500D01*
G75*
G02*
X166875000Y-81562500I-250000J0D01*
G01*
X165925000Y-81562500D01*
G75*
G02*
X165675000Y-81312500I0J250000D01*
G01*
X165675000Y-80637500D01*
G75*
G02*
X165925000Y-80387500I250000J0D01*
G01*
G37*
G36*
G01*
X165925000Y-78312500D02*
X166875000Y-78312500D01*
G75*
G02*
X167125000Y-78562500I0J-250000D01*
G01*
X167125000Y-79237500D01*
G75*
G02*
X166875000Y-79487500I-250000J0D01*
G01*
X165925000Y-79487500D01*
G75*
G02*
X165675000Y-79237500I0J250000D01*
G01*
X165675000Y-78562500D01*
G75*
G02*
X165925000Y-78312500I250000J0D01*
G01*
G37*
%TD*%
%TO.C,C10*%
G36*
G01*
X191087500Y-88075000D02*
X191087500Y-87125000D01*
G75*
G02*
X191337500Y-86875000I250000J0D01*
G01*
X192012500Y-86875000D01*
G75*
G02*
X192262500Y-87125000I0J-250000D01*
G01*
X192262500Y-88075000D01*
G75*
G02*
X192012500Y-88325000I-250000J0D01*
G01*
X191337500Y-88325000D01*
G75*
G02*
X191087500Y-88075000I0J250000D01*
G01*
G37*
G36*
G01*
X189012500Y-88075000D02*
X189012500Y-87125000D01*
G75*
G02*
X189262500Y-86875000I250000J0D01*
G01*
X189937500Y-86875000D01*
G75*
G02*
X190187500Y-87125000I0J-250000D01*
G01*
X190187500Y-88075000D01*
G75*
G02*
X189937500Y-88325000I-250000J0D01*
G01*
X189262500Y-88325000D01*
G75*
G02*
X189012500Y-88075000I0J250000D01*
G01*
G37*
%TD*%
%TO.C,C3*%
G36*
G01*
X122087500Y-79775000D02*
X122087500Y-80725000D01*
G75*
G02*
X121837500Y-80975000I-250000J0D01*
G01*
X121162500Y-80975000D01*
G75*
G02*
X120912500Y-80725000I0J250000D01*
G01*
X120912500Y-79775000D01*
G75*
G02*
X121162500Y-79525000I250000J0D01*
G01*
X121837500Y-79525000D01*
G75*
G02*
X122087500Y-79775000I0J-250000D01*
G01*
G37*
G36*
G01*
X124162500Y-79775000D02*
X124162500Y-80725000D01*
G75*
G02*
X123912500Y-80975000I-250000J0D01*
G01*
X123237500Y-80975000D01*
G75*
G02*
X122987500Y-80725000I0J250000D01*
G01*
X122987500Y-79775000D01*
G75*
G02*
X123237500Y-79525000I250000J0D01*
G01*
X123912500Y-79525000D01*
G75*
G02*
X124162500Y-79775000I0J-250000D01*
G01*
G37*
%TD*%
%TO.C,C2*%
G36*
G01*
X122987500Y-91975000D02*
X122987500Y-91025000D01*
G75*
G02*
X123237500Y-90775000I250000J0D01*
G01*
X123912500Y-90775000D01*
G75*
G02*
X124162500Y-91025000I0J-250000D01*
G01*
X124162500Y-91975000D01*
G75*
G02*
X123912500Y-92225000I-250000J0D01*
G01*
X123237500Y-92225000D01*
G75*
G02*
X122987500Y-91975000I0J250000D01*
G01*
G37*
G36*
G01*
X120912500Y-91975000D02*
X120912500Y-91025000D01*
G75*
G02*
X121162500Y-90775000I250000J0D01*
G01*
X121837500Y-90775000D01*
G75*
G02*
X122087500Y-91025000I0J-250000D01*
G01*
X122087500Y-91975000D01*
G75*
G02*
X121837500Y-92225000I-250000J0D01*
G01*
X121162500Y-92225000D01*
G75*
G02*
X120912500Y-91975000I0J250000D01*
G01*
G37*
%TD*%
%TO.C,R11*%
G36*
G01*
X152600000Y-80149999D02*
X152600000Y-81050001D01*
G75*
G02*
X152350001Y-81300000I-249999J0D01*
G01*
X151649999Y-81300000D01*
G75*
G02*
X151400000Y-81050001I0J249999D01*
G01*
X151400000Y-80149999D01*
G75*
G02*
X151649999Y-79900000I249999J0D01*
G01*
X152350001Y-79900000D01*
G75*
G02*
X152600000Y-80149999I0J-249999D01*
G01*
G37*
G36*
G01*
X154600000Y-80149999D02*
X154600000Y-81050001D01*
G75*
G02*
X154350001Y-81300000I-249999J0D01*
G01*
X153649999Y-81300000D01*
G75*
G02*
X153400000Y-81050001I0J249999D01*
G01*
X153400000Y-80149999D01*
G75*
G02*
X153649999Y-79900000I249999J0D01*
G01*
X154350001Y-79900000D01*
G75*
G02*
X154600000Y-80149999I0J-249999D01*
G01*
G37*
%TD*%
%TO.C,R4*%
G36*
G01*
X152250001Y-75400000D02*
X151349999Y-75400000D01*
G75*
G02*
X151100000Y-75150001I0J249999D01*
G01*
X151100000Y-74449999D01*
G75*
G02*
X151349999Y-74200000I249999J0D01*
G01*
X152250001Y-74200000D01*
G75*
G02*
X152500000Y-74449999I0J-249999D01*
G01*
X152500000Y-75150001D01*
G75*
G02*
X152250001Y-75400000I-249999J0D01*
G01*
G37*
G36*
G01*
X152250001Y-77400000D02*
X151349999Y-77400000D01*
G75*
G02*
X151100000Y-77150001I0J249999D01*
G01*
X151100000Y-76449999D01*
G75*
G02*
X151349999Y-76200000I249999J0D01*
G01*
X152250001Y-76200000D01*
G75*
G02*
X152500000Y-76449999I0J-249999D01*
G01*
X152500000Y-77150001D01*
G75*
G02*
X152250001Y-77400000I-249999J0D01*
G01*
G37*
%TD*%
%TO.C,R3*%
G36*
G01*
X159450001Y-75400000D02*
X158549999Y-75400000D01*
G75*
G02*
X158300000Y-75150001I0J249999D01*
G01*
X158300000Y-74449999D01*
G75*
G02*
X158549999Y-74200000I249999J0D01*
G01*
X159450001Y-74200000D01*
G75*
G02*
X159700000Y-74449999I0J-249999D01*
G01*
X159700000Y-75150001D01*
G75*
G02*
X159450001Y-75400000I-249999J0D01*
G01*
G37*
G36*
G01*
X159450001Y-77400000D02*
X158549999Y-77400000D01*
G75*
G02*
X158300000Y-77150001I0J249999D01*
G01*
X158300000Y-76449999D01*
G75*
G02*
X158549999Y-76200000I249999J0D01*
G01*
X159450001Y-76200000D01*
G75*
G02*
X159700000Y-76449999I0J-249999D01*
G01*
X159700000Y-77150001D01*
G75*
G02*
X159450001Y-77400000I-249999J0D01*
G01*
G37*
%TD*%
%TO.C,R13*%
G36*
G01*
X190200000Y-115349999D02*
X190200000Y-116250001D01*
G75*
G02*
X189950001Y-116500000I-249999J0D01*
G01*
X189249999Y-116500000D01*
G75*
G02*
X189000000Y-116250001I0J249999D01*
G01*
X189000000Y-115349999D01*
G75*
G02*
X189249999Y-115100000I249999J0D01*
G01*
X189950001Y-115100000D01*
G75*
G02*
X190200000Y-115349999I0J-249999D01*
G01*
G37*
G36*
G01*
X192200000Y-115349999D02*
X192200000Y-116250001D01*
G75*
G02*
X191950001Y-116500000I-249999J0D01*
G01*
X191249999Y-116500000D01*
G75*
G02*
X191000000Y-116250001I0J249999D01*
G01*
X191000000Y-115349999D01*
G75*
G02*
X191249999Y-115100000I249999J0D01*
G01*
X191950001Y-115100000D01*
G75*
G02*
X192200000Y-115349999I0J-249999D01*
G01*
G37*
%TD*%
%TO.C,R12*%
G36*
G01*
X153400000Y-83250001D02*
X153400000Y-82349999D01*
G75*
G02*
X153649999Y-82100000I249999J0D01*
G01*
X154350001Y-82100000D01*
G75*
G02*
X154600000Y-82349999I0J-249999D01*
G01*
X154600000Y-83250001D01*
G75*
G02*
X154350001Y-83500000I-249999J0D01*
G01*
X153649999Y-83500000D01*
G75*
G02*
X153400000Y-83250001I0J249999D01*
G01*
G37*
G36*
G01*
X151400000Y-83250001D02*
X151400000Y-82349999D01*
G75*
G02*
X151649999Y-82100000I249999J0D01*
G01*
X152350001Y-82100000D01*
G75*
G02*
X152600000Y-82349999I0J-249999D01*
G01*
X152600000Y-83250001D01*
G75*
G02*
X152350001Y-83500000I-249999J0D01*
G01*
X151649999Y-83500000D01*
G75*
G02*
X151400000Y-83250001I0J249999D01*
G01*
G37*
%TD*%
%TO.C,R10*%
G36*
G01*
X145349999Y-73100000D02*
X146250001Y-73100000D01*
G75*
G02*
X146500000Y-73349999I0J-249999D01*
G01*
X146500000Y-74050001D01*
G75*
G02*
X146250001Y-74300000I-249999J0D01*
G01*
X145349999Y-74300000D01*
G75*
G02*
X145100000Y-74050001I0J249999D01*
G01*
X145100000Y-73349999D01*
G75*
G02*
X145349999Y-73100000I249999J0D01*
G01*
G37*
G36*
G01*
X145349999Y-71100000D02*
X146250001Y-71100000D01*
G75*
G02*
X146500000Y-71349999I0J-249999D01*
G01*
X146500000Y-72050001D01*
G75*
G02*
X146250001Y-72300000I-249999J0D01*
G01*
X145349999Y-72300000D01*
G75*
G02*
X145100000Y-72050001I0J249999D01*
G01*
X145100000Y-71349999D01*
G75*
G02*
X145349999Y-71100000I249999J0D01*
G01*
G37*
%TD*%
%TO.C,R9*%
G36*
G01*
X143900001Y-72300000D02*
X142999999Y-72300000D01*
G75*
G02*
X142750000Y-72050001I0J249999D01*
G01*
X142750000Y-71349999D01*
G75*
G02*
X142999999Y-71100000I249999J0D01*
G01*
X143900001Y-71100000D01*
G75*
G02*
X144150000Y-71349999I0J-249999D01*
G01*
X144150000Y-72050001D01*
G75*
G02*
X143900001Y-72300000I-249999J0D01*
G01*
G37*
G36*
G01*
X143900001Y-74300000D02*
X142999999Y-74300000D01*
G75*
G02*
X142750000Y-74050001I0J249999D01*
G01*
X142750000Y-73349999D01*
G75*
G02*
X142999999Y-73100000I249999J0D01*
G01*
X143900001Y-73100000D01*
G75*
G02*
X144150000Y-73349999I0J-249999D01*
G01*
X144150000Y-74050001D01*
G75*
G02*
X143900001Y-74300000I-249999J0D01*
G01*
G37*
%TD*%
%TO.C,R8*%
G36*
G01*
X138450001Y-78800000D02*
X137549999Y-78800000D01*
G75*
G02*
X137300000Y-78550001I0J249999D01*
G01*
X137300000Y-77849999D01*
G75*
G02*
X137549999Y-77600000I249999J0D01*
G01*
X138450001Y-77600000D01*
G75*
G02*
X138700000Y-77849999I0J-249999D01*
G01*
X138700000Y-78550001D01*
G75*
G02*
X138450001Y-78800000I-249999J0D01*
G01*
G37*
G36*
G01*
X138450001Y-80800000D02*
X137549999Y-80800000D01*
G75*
G02*
X137300000Y-80550001I0J249999D01*
G01*
X137300000Y-79849999D01*
G75*
G02*
X137549999Y-79600000I249999J0D01*
G01*
X138450001Y-79600000D01*
G75*
G02*
X138700000Y-79849999I0J-249999D01*
G01*
X138700000Y-80550001D01*
G75*
G02*
X138450001Y-80800000I-249999J0D01*
G01*
G37*
%TD*%
%TO.C,R15*%
G36*
G01*
X136600000Y-114549999D02*
X136600000Y-115450001D01*
G75*
G02*
X136350001Y-115700000I-249999J0D01*
G01*
X135649999Y-115700000D01*
G75*
G02*
X135400000Y-115450001I0J249999D01*
G01*
X135400000Y-114549999D01*
G75*
G02*
X135649999Y-114300000I249999J0D01*
G01*
X136350001Y-114300000D01*
G75*
G02*
X136600000Y-114549999I0J-249999D01*
G01*
G37*
G36*
G01*
X138600000Y-114549999D02*
X138600000Y-115450001D01*
G75*
G02*
X138350001Y-115700000I-249999J0D01*
G01*
X137649999Y-115700000D01*
G75*
G02*
X137400000Y-115450001I0J249999D01*
G01*
X137400000Y-114549999D01*
G75*
G02*
X137649999Y-114300000I249999J0D01*
G01*
X138350001Y-114300000D01*
G75*
G02*
X138600000Y-114549999I0J-249999D01*
G01*
G37*
%TD*%
%TO.C,R14*%
G36*
G01*
X136600000Y-118549999D02*
X136600000Y-119450001D01*
G75*
G02*
X136350001Y-119700000I-249999J0D01*
G01*
X135649999Y-119700000D01*
G75*
G02*
X135400000Y-119450001I0J249999D01*
G01*
X135400000Y-118549999D01*
G75*
G02*
X135649999Y-118300000I249999J0D01*
G01*
X136350001Y-118300000D01*
G75*
G02*
X136600000Y-118549999I0J-249999D01*
G01*
G37*
G36*
G01*
X138600000Y-118549999D02*
X138600000Y-119450001D01*
G75*
G02*
X138350001Y-119700000I-249999J0D01*
G01*
X137649999Y-119700000D01*
G75*
G02*
X137400000Y-119450001I0J249999D01*
G01*
X137400000Y-118549999D01*
G75*
G02*
X137649999Y-118300000I249999J0D01*
G01*
X138350001Y-118300000D01*
G75*
G02*
X138600000Y-118549999I0J-249999D01*
G01*
G37*
%TD*%
%TO.C,R7*%
G36*
G01*
X105700001Y-100100000D02*
X104799999Y-100100000D01*
G75*
G02*
X104550000Y-99850001I0J249999D01*
G01*
X104550000Y-99149999D01*
G75*
G02*
X104799999Y-98900000I249999J0D01*
G01*
X105700001Y-98900000D01*
G75*
G02*
X105950000Y-99149999I0J-249999D01*
G01*
X105950000Y-99850001D01*
G75*
G02*
X105700001Y-100100000I-249999J0D01*
G01*
G37*
G36*
G01*
X105700001Y-102100000D02*
X104799999Y-102100000D01*
G75*
G02*
X104550000Y-101850001I0J249999D01*
G01*
X104550000Y-101149999D01*
G75*
G02*
X104799999Y-100900000I249999J0D01*
G01*
X105700001Y-100900000D01*
G75*
G02*
X105950000Y-101149999I0J-249999D01*
G01*
X105950000Y-101850001D01*
G75*
G02*
X105700001Y-102100000I-249999J0D01*
G01*
G37*
%TD*%
%TO.C,C9*%
G36*
G01*
X191087500Y-90475000D02*
X191087500Y-89525000D01*
G75*
G02*
X191337500Y-89275000I250000J0D01*
G01*
X192012500Y-89275000D01*
G75*
G02*
X192262500Y-89525000I0J-250000D01*
G01*
X192262500Y-90475000D01*
G75*
G02*
X192012500Y-90725000I-250000J0D01*
G01*
X191337500Y-90725000D01*
G75*
G02*
X191087500Y-90475000I0J250000D01*
G01*
G37*
G36*
G01*
X189012500Y-90475000D02*
X189012500Y-89525000D01*
G75*
G02*
X189262500Y-89275000I250000J0D01*
G01*
X189937500Y-89275000D01*
G75*
G02*
X190187500Y-89525000I0J-250000D01*
G01*
X190187500Y-90475000D01*
G75*
G02*
X189937500Y-90725000I-250000J0D01*
G01*
X189262500Y-90725000D01*
G75*
G02*
X189012500Y-90475000I0J250000D01*
G01*
G37*
%TD*%
%TO.C,C8*%
G36*
G01*
X190150000Y-113125000D02*
X190150000Y-114075000D01*
G75*
G02*
X189900000Y-114325000I-250000J0D01*
G01*
X189225000Y-114325000D01*
G75*
G02*
X188975000Y-114075000I0J250000D01*
G01*
X188975000Y-113125000D01*
G75*
G02*
X189225000Y-112875000I250000J0D01*
G01*
X189900000Y-112875000D01*
G75*
G02*
X190150000Y-113125000I0J-250000D01*
G01*
G37*
G36*
G01*
X192225000Y-113125000D02*
X192225000Y-114075000D01*
G75*
G02*
X191975000Y-114325000I-250000J0D01*
G01*
X191300000Y-114325000D01*
G75*
G02*
X191050000Y-114075000I0J250000D01*
G01*
X191050000Y-113125000D01*
G75*
G02*
X191300000Y-112875000I250000J0D01*
G01*
X191975000Y-112875000D01*
G75*
G02*
X192225000Y-113125000I0J-250000D01*
G01*
G37*
%TD*%
%TO.C,C12*%
G36*
G01*
X109550000Y-104525000D02*
X109550000Y-105475000D01*
G75*
G02*
X109300000Y-105725000I-250000J0D01*
G01*
X108625000Y-105725000D01*
G75*
G02*
X108375000Y-105475000I0J250000D01*
G01*
X108375000Y-104525000D01*
G75*
G02*
X108625000Y-104275000I250000J0D01*
G01*
X109300000Y-104275000D01*
G75*
G02*
X109550000Y-104525000I0J-250000D01*
G01*
G37*
G36*
G01*
X111625000Y-104525000D02*
X111625000Y-105475000D01*
G75*
G02*
X111375000Y-105725000I-250000J0D01*
G01*
X110700000Y-105725000D01*
G75*
G02*
X110450000Y-105475000I0J250000D01*
G01*
X110450000Y-104525000D01*
G75*
G02*
X110700000Y-104275000I250000J0D01*
G01*
X111375000Y-104275000D01*
G75*
G02*
X111625000Y-104525000I0J-250000D01*
G01*
G37*
%TD*%
%TO.C,C11*%
G36*
G01*
X109512500Y-128525000D02*
X109512500Y-129475000D01*
G75*
G02*
X109262500Y-129725000I-250000J0D01*
G01*
X108587500Y-129725000D01*
G75*
G02*
X108337500Y-129475000I0J250000D01*
G01*
X108337500Y-128525000D01*
G75*
G02*
X108587500Y-128275000I250000J0D01*
G01*
X109262500Y-128275000D01*
G75*
G02*
X109512500Y-128525000I0J-250000D01*
G01*
G37*
G36*
G01*
X111587500Y-128525000D02*
X111587500Y-129475000D01*
G75*
G02*
X111337500Y-129725000I-250000J0D01*
G01*
X110662500Y-129725000D01*
G75*
G02*
X110412500Y-129475000I0J250000D01*
G01*
X110412500Y-128525000D01*
G75*
G02*
X110662500Y-128275000I250000J0D01*
G01*
X111337500Y-128275000D01*
G75*
G02*
X111587500Y-128525000I0J-250000D01*
G01*
G37*
%TD*%
%TO.C,C5*%
G36*
G01*
X150875000Y-67762500D02*
X149925000Y-67762500D01*
G75*
G02*
X149675000Y-67512500I0J250000D01*
G01*
X149675000Y-66837500D01*
G75*
G02*
X149925000Y-66587500I250000J0D01*
G01*
X150875000Y-66587500D01*
G75*
G02*
X151125000Y-66837500I0J-250000D01*
G01*
X151125000Y-67512500D01*
G75*
G02*
X150875000Y-67762500I-250000J0D01*
G01*
G37*
G36*
G01*
X150875000Y-69837500D02*
X149925000Y-69837500D01*
G75*
G02*
X149675000Y-69587500I0J250000D01*
G01*
X149675000Y-68912500D01*
G75*
G02*
X149925000Y-68662500I250000J0D01*
G01*
X150875000Y-68662500D01*
G75*
G02*
X151125000Y-68912500I0J-250000D01*
G01*
X151125000Y-69587500D01*
G75*
G02*
X150875000Y-69837500I-250000J0D01*
G01*
G37*
%TD*%
M02*
