M48
; DRILL file {KiCad 5.1.10} date Thu Dec  2 21:41:07 2021
; FORMAT={-:-/ absolute / inch / decimal}
; #@! TF.CreationDate,2021-12-02T21:41:07+00:00
; #@! TF.GenerationSoftware,Kicad,Pcbnew,5.1.10
; #@! TF.FileFunction,Plated,1,4,PTH
FMAT,2
INCH
T1C0.0157
T2C0.0236
T3C0.0315
T4C0.0335
T5C0.0591
T6C0.0669
T7C0.0730
%
G90
G05
T1
X4.124Y-3.8583
X4.1339Y-3.1496
X4.1339Y-3.3465
X4.1339Y-3.5433
X4.1339Y-3.7402
X4.1339Y-4.1339
X4.1339Y-4.3307
X4.1339Y-4.5276
X4.1339Y-4.7244
X4.1339Y-4.9213
X4.1339Y-5.1181
X4.1339Y-5.315
X4.1339Y-5.9055
X4.1339Y-6.2992
X4.1634Y-3.8583
X4.189Y-4.2283
X4.1969Y-4.5433
X4.1969Y-4.6614
X4.1969Y-4.9764
X4.3307Y-2.9528
X4.3307Y-3.3465
X4.3307Y-3.7402
X4.3307Y-5.315
X4.3307Y-5.5118
X4.3307Y-6.2992
X4.5276Y-2.7559
X4.5276Y-2.9528
X4.5276Y-3.1496
X4.5276Y-3.3465
X4.5276Y-3.5433
X4.5276Y-3.5433
X4.5276Y-3.7402
X4.5276Y-4.1339
X4.5276Y-4.3307
X4.5276Y-4.5276
X4.5276Y-4.7244
X4.5276Y-4.9213
X4.5276Y-5.1181
X4.5276Y-5.315
X4.5276Y-5.5118
X4.5276Y-5.7087
X4.5276Y-5.9055
X4.5276Y-6.2992
X4.626Y-2.9134
X4.626Y-2.9626
X4.6654Y-2.8642
X4.6654Y-3.002
X4.7146Y-3.2677
X4.7146Y-3.3071
X4.7244Y-2.7559
X4.7244Y-3.1398
X4.7244Y-3.1791
X4.7244Y-3.7402
X4.7244Y-4.1339
X4.7244Y-4.3307
X4.7244Y-4.5276
X4.7244Y-4.7244
X4.7244Y-4.9213
X4.7244Y-5.1181
X4.7244Y-5.315
X4.7244Y-5.5118
X4.7244Y-6.2992
X4.9213Y-2.7559
X4.9213Y-3.5827
X4.9213Y-3.622
X4.9213Y-3.937
X4.9213Y-4.1339
X4.9213Y-4.3307
X4.9213Y-4.5276
X4.9213Y-4.7244
X4.9213Y-4.9213
X4.9213Y-5.1181
X4.9213Y-5.315
X4.9213Y-5.9055
X4.9213Y-6.1024
X4.9213Y-6.2992
X5.0Y-2.8642
X5.0Y-3.002
X5.0Y-3.75
X5.0Y-3.8878
X5.0394Y-2.9134
X5.0394Y-2.9626
X5.0492Y-3.7894
X5.0492Y-3.8386
X5.0787Y-3.2185
X5.0787Y-3.2579
X5.1181Y-2.7559
X5.1181Y-2.9528
X5.1181Y-3.1496
X5.1181Y-3.3465
X5.1181Y-3.7402
X5.1181Y-3.937
X5.1181Y-4.1339
X5.1181Y-4.3307
X5.1181Y-4.9213
X5.1181Y-5.1181
X5.1181Y-5.7087
X5.1181Y-5.9055
X5.1181Y-6.2992
X5.2598Y-4.4803
X5.2756Y-4.7323
X5.3071Y-4.5748
X5.315Y-2.7559
X5.315Y-2.9528
X5.315Y-3.1496
X5.315Y-3.3465
X5.315Y-3.7402
X5.315Y-3.937
X5.315Y-4.1339
X5.315Y-4.3307
X5.315Y-5.1181
X5.315Y-5.315
X5.315Y-6.2992
X5.4094Y-4.622
X5.4331Y-3.2185
X5.4331Y-3.2579
X5.4331Y-3.4941
X5.4331Y-3.5335
X5.4409Y-3.0236
X5.4882Y-3.0394
X5.4882Y-3.1181
X5.5118Y-2.7559
X5.5118Y-3.7402
X5.5118Y-3.937
X5.5118Y-4.1339
X5.5118Y-4.3307
X5.5118Y-4.5276
X5.5118Y-4.7244
X5.5118Y-6.2992
X5.6181Y-3.0197
X5.6181Y-3.0709
X5.6181Y-3.126
X5.6299Y-5.0
X5.6299Y-5.4921
X5.7087Y-3.5433
X5.7087Y-3.7402
X5.7087Y-3.937
X5.7087Y-4.1339
X5.7087Y-4.3307
X5.7087Y-4.5276
X5.7087Y-4.7244
X5.7087Y-4.9213
X5.7087Y-5.7087
X5.7087Y-5.9055
X5.7087Y-6.2992
X5.7717Y-3.0157
X5.7717Y-3.1417
X5.9055Y-3.0315
X5.9055Y-3.3228
X5.9055Y-3.5433
X5.9055Y-3.7402
X5.9055Y-3.937
X5.9055Y-4.1339
X5.9055Y-4.5276
X5.9055Y-4.7244
X5.9055Y-5.1181
X5.9055Y-5.315
X5.9055Y-5.5118
X5.9055Y-5.7087
X5.9055Y-5.9055
X5.9055Y-6.1024
X5.9055Y-6.2992
X6.0709Y-3.0709
X6.1024Y-3.5433
X6.1024Y-3.7402
X6.1024Y-3.937
X6.1024Y-4.3307
X6.1024Y-4.5276
X6.1024Y-4.9213
X6.1024Y-5.1181
X6.1024Y-5.315
X6.1024Y-6.2992
X6.1181Y-3.2362
X6.1181Y-3.2835
X6.1654Y-3.0709
X6.2598Y-3.0709
X6.2992Y-2.7559
X6.2992Y-3.5433
X6.2992Y-3.7402
X6.2992Y-4.1339
X6.2992Y-4.3307
X6.2992Y-4.5276
X6.2992Y-4.9213
X6.2992Y-5.1181
X6.2992Y-6.2992
X6.3386Y-2.8031
X6.3386Y-2.8504
X6.3386Y-3.4094
X6.4843Y-3.5551
X6.4882Y-3.0079
X6.4882Y-3.0472
X6.4882Y-3.0866
X6.4882Y-3.126
X6.4961Y-2.7559
X6.4961Y-3.937
X6.4961Y-4.1339
X6.4961Y-4.3307
X6.4961Y-4.5276
X6.4961Y-5.1181
X6.4961Y-5.315
X6.4961Y-5.5118
X6.4961Y-6.2992
X6.5197Y-2.8898
X6.5197Y-3.2441
X6.5748Y-4.2992
X6.5827Y-3.2441
X6.5866Y-2.8268
X6.5906Y-2.8898
X6.6929Y-3.5433
X6.6929Y-3.937
X6.6929Y-4.1339
X6.6929Y-4.2992
X6.6929Y-4.7244
X6.6929Y-6.2992
X6.7205Y-2.8268
X6.727Y-3.4305
X6.7638Y-3.5197
X6.7638Y-3.8346
X6.7913Y-3.8031
X6.8031Y-3.4488
X6.811Y-5.0
X6.811Y-5.5118
X6.8425Y-3.4331
X6.8898Y-4.1339
X6.8898Y-5.315
X6.8898Y-6.1024
X6.8898Y-6.2992
X7.0157Y-4.315
X7.0709Y-4.315
X7.0866Y-2.7559
X7.0866Y-3.3465
X7.0866Y-3.5433
X7.0866Y-4.5276
X7.0866Y-4.7244
X7.0866Y-4.9213
X7.0866Y-5.1181
X7.0866Y-5.315
X7.0866Y-5.5118
X7.0866Y-6.2992
X7.0945Y-3.0945
X7.0945Y-3.1732
X7.1339Y-4.315
X7.1496Y-3.0945
X7.1496Y-3.1732
X7.1654Y-3.874
X7.189Y-4.315
X7.1969Y-3.0709
X7.2047Y-3.1732
X7.2362Y-2.9764
X7.2362Y-3.0315
X7.2362Y-3.874
X7.2362Y-4.1024
X7.252Y-3.126
X7.2835Y-3.1496
X7.2835Y-3.3465
X7.2835Y-3.5433
X7.2835Y-4.5276
X7.2835Y-4.7244
X7.2835Y-4.9213
X7.2835Y-5.1181
X7.2835Y-5.315
X7.2835Y-5.5118
X7.2835Y-6.2992
X7.2913Y-3.0866
X7.3071Y-3.874
X7.3071Y-4.1024
X7.315Y-2.9764
X7.315Y-3.0315
X7.3465Y-3.9134
X7.3465Y-3.9843
X7.3465Y-4.0551
X7.3937Y-4.5748
X7.4173Y-3.4094
X7.4173Y-3.4567
X7.4173Y-3.5039
X7.4173Y-3.5512
X7.4803Y-2.9528
X7.4803Y-3.1496
X7.4803Y-3.3465
X7.4803Y-3.937
X7.4803Y-4.1339
X7.4803Y-4.7244
X7.4803Y-4.9213
X7.4803Y-5.1181
X7.4803Y-5.315
X7.4803Y-5.5118
X7.4803Y-6.1024
X7.4803Y-6.2992
X7.5276Y-3.7559
X7.5276Y-4.315
X7.5512Y-4.622
X7.5669Y-3.7559
X7.5669Y-4.315
X7.6772Y-5.1181
X7.6772Y-5.315
X7.6772Y-6.2992
T3
X5.2362Y-5.1181
X5.2362Y-5.3181
X5.2362Y-5.4181
X5.2362Y-5.5181
X5.2362Y-5.6181
X5.4362Y-5.1181
X5.4362Y-5.3181
X5.4362Y-5.4181
X5.4362Y-5.5181
X5.4362Y-5.6181
X6.4134Y-5.126
X6.4134Y-5.326
X6.4134Y-5.426
X6.4134Y-5.526
X6.4134Y-5.626
X6.6134Y-5.126
X6.6134Y-5.326
X6.6134Y-5.426
X6.6134Y-5.526
X6.6134Y-5.626
T4
X5.5866Y-2.7244
X5.7835Y-2.7244
T5
X7.2756Y-2.7953
T6
X7.1756Y-2.6953
X7.1756Y-2.8953
X7.3756Y-2.6953
X7.3756Y-2.8953
T7
X4.1171Y-6.0736
X4.3583Y-3.2115
X4.3583Y-3.5365
X4.4421Y-6.0736
X4.7671Y-6.0736
X5.0921Y-6.0736
X5.4171Y-6.0736
X5.7421Y-6.0736
X6.0671Y-6.0736
X6.3921Y-6.0736
X6.7171Y-6.0736
X7.0421Y-6.0736
X7.3671Y-6.0736
X7.6921Y-6.0736
T2
G00X5.5472Y-2.6319
M15
G01X5.5472Y-2.6043
M16
G05
G00X5.8228Y-2.6043
M15
G01X5.8228Y-2.6319
M16
G05
T0
M30
