%TF.GenerationSoftware,KiCad,Pcbnew,5.1.10*%
%TF.CreationDate,2021-11-25T21:59:15+00:00*%
%TF.ProjectId,ELE3044 - Tractor Tracker,454c4533-3034-4342-902d-205472616374,rev?*%
%TF.SameCoordinates,Original*%
%TF.FileFunction,Copper,L4,Bot*%
%TF.FilePolarity,Positive*%
%FSLAX46Y46*%
G04 Gerber Fmt 4.6, Leading zero omitted, Abs format (unit mm)*
G04 Created by KiCad (PCBNEW 5.1.10) date 2021-11-25 21:59:15*
%MOMM*%
%LPD*%
G01*
G04 APERTURE LIST*
%TA.AperFunction,ComponentPad*%
%ADD10C,4.000000*%
%TD*%
%TA.AperFunction,ComponentPad*%
%ADD11R,4.000000X4.000000*%
%TD*%
%TA.AperFunction,ComponentPad*%
%ADD12C,1.500000*%
%TD*%
%TA.AperFunction,ComponentPad*%
%ADD13C,2.250000*%
%TD*%
%TA.AperFunction,ComponentPad*%
%ADD14C,2.050000*%
%TD*%
%TA.AperFunction,ComponentPad*%
%ADD15O,1.200000X1.900000*%
%TD*%
%TA.AperFunction,ComponentPad*%
%ADD16C,1.450000*%
%TD*%
%TA.AperFunction,ViaPad*%
%ADD17C,0.800000*%
%TD*%
%TA.AperFunction,Conductor*%
%ADD18C,0.800000*%
%TD*%
%TA.AperFunction,Conductor*%
%ADD19C,0.600000*%
%TD*%
%TA.AperFunction,Conductor*%
%ADD20C,2.000000*%
%TD*%
%TA.AperFunction,Conductor*%
%ADD21C,0.400000*%
%TD*%
%TA.AperFunction,Conductor*%
%ADD22C,0.254000*%
%TD*%
%TA.AperFunction,Conductor*%
%ADD23C,0.100000*%
%TD*%
G04 APERTURE END LIST*
D10*
%TO.P,J1,2*%
%TO.N,VDC*%
X110700000Y-89827000D03*
D11*
%TO.P,J1,1*%
%TO.N,GND*%
X110700000Y-81572000D03*
%TD*%
D10*
%TO.P,J3,12*%
%TO.N,Relay_2_~D*%
X195380000Y-154270000D03*
%TO.P,J3,11*%
%TO.N,Relay_2_C*%
X187125000Y-154270000D03*
%TO.P,J3,10*%
%TO.N,Relay_2_D*%
X178870000Y-154270000D03*
%TO.P,J3,9*%
%TO.N,Relay_2_~B*%
X170615000Y-154270000D03*
%TO.P,J3,8*%
%TO.N,Relay_2_A*%
X162360000Y-154270000D03*
%TO.P,J3,7*%
%TO.N,Relay_2_B*%
X154105000Y-154270000D03*
%TO.P,J3,6*%
%TO.N,Relay_1_~D*%
X145850000Y-154270000D03*
%TO.P,J3,5*%
%TO.N,Relay_1_C*%
X137595000Y-154270000D03*
%TO.P,J3,4*%
%TO.N,Relay_1_D*%
X129340000Y-154270000D03*
%TO.P,J3,3*%
%TO.N,Relay_1_~B*%
X121085000Y-154270000D03*
%TO.P,J3,2*%
%TO.N,Relay_1_A*%
X112830000Y-154270000D03*
D11*
%TO.P,J3,1*%
%TO.N,Relay_1_B*%
X104575000Y-154270000D03*
%TD*%
%TO.P,K1,1*%
%TO.N,+3V3*%
%TA.AperFunction,ComponentPad*%
G36*
G01*
X132250000Y-130499500D02*
X132250000Y-129500500D01*
G75*
G02*
X132500500Y-129250000I250500J0D01*
G01*
X133499500Y-129250000D01*
G75*
G02*
X133750000Y-129500500I0J-250500D01*
G01*
X133750000Y-130499500D01*
G75*
G02*
X133499500Y-130750000I-250500J0D01*
G01*
X132500500Y-130750000D01*
G75*
G02*
X132250000Y-130499500I0J250500D01*
G01*
G37*
%TD.AperFunction*%
D12*
%TO.P,K1,3*%
%TO.N,Relay_1_B*%
X133000000Y-135080000D03*
%TO.P,K1,4*%
%TO.N,Relay_1_A*%
X133000000Y-137620000D03*
%TO.P,K1,5*%
%TO.N,Relay_1_~B*%
X133000000Y-140160000D03*
%TO.P,K1,6*%
%TO.N,+3V3*%
X133000000Y-142700000D03*
%TO.P,K1,7*%
%TO.N,Net-(D10-Pad2)*%
X138080000Y-142700000D03*
%TO.P,K1,8*%
%TO.N,Relay_1_D*%
X138080000Y-140160000D03*
%TO.P,K1,9*%
%TO.N,Relay_1_C*%
X138080000Y-137620000D03*
%TO.P,K1,10*%
%TO.N,Relay_1_~D*%
X138080000Y-135080000D03*
%TO.P,K1,12*%
%TO.N,Net-(D8-Pad2)*%
X138080000Y-130000000D03*
%TD*%
%TO.P,K2,1*%
%TO.N,+3V3*%
%TA.AperFunction,ComponentPad*%
G36*
G01*
X162150000Y-130699500D02*
X162150000Y-129700500D01*
G75*
G02*
X162400500Y-129450000I250500J0D01*
G01*
X163399500Y-129450000D01*
G75*
G02*
X163650000Y-129700500I0J-250500D01*
G01*
X163650000Y-130699500D01*
G75*
G02*
X163399500Y-130950000I-250500J0D01*
G01*
X162400500Y-130950000D01*
G75*
G02*
X162150000Y-130699500I0J250500D01*
G01*
G37*
%TD.AperFunction*%
%TO.P,K2,3*%
%TO.N,Relay_2_B*%
X162900000Y-135280000D03*
%TO.P,K2,4*%
%TO.N,Relay_2_A*%
X162900000Y-137820000D03*
%TO.P,K2,5*%
%TO.N,Relay_2_~B*%
X162900000Y-140360000D03*
%TO.P,K2,6*%
%TO.N,+3V3*%
X162900000Y-142900000D03*
%TO.P,K2,7*%
%TO.N,Net-(D11-Pad2)*%
X167980000Y-142900000D03*
%TO.P,K2,8*%
%TO.N,Relay_2_D*%
X167980000Y-140360000D03*
%TO.P,K2,9*%
%TO.N,Relay_2_C*%
X167980000Y-137820000D03*
%TO.P,K2,10*%
%TO.N,Relay_2_~D*%
X167980000Y-135280000D03*
%TO.P,K2,12*%
%TO.N,Net-(D9-Pad2)*%
X167980000Y-130200000D03*
%TD*%
D13*
%TO.P,J4,2*%
%TO.N,GND*%
X182260000Y-73540000D03*
X182260000Y-68460000D03*
X187340000Y-68460000D03*
X187340000Y-73540000D03*
D14*
%TO.P,J4,1*%
%TO.N,Net-(J4-Pad1)*%
X184800000Y-71000000D03*
%TD*%
D15*
%TO.P,J2,6*%
%TO.N,GND*%
X140900000Y-66500000D03*
X147900000Y-66500000D03*
D16*
X141900000Y-69200000D03*
X146900000Y-69200000D03*
%TD*%
D17*
%TO.N,*%
X167300000Y-71800000D03*
X170700000Y-71800000D03*
X165600000Y-82400000D03*
X167200000Y-82400000D03*
X165600000Y-73400000D03*
X167400000Y-73400000D03*
%TO.N,GND*%
X120000000Y-95000000D03*
X115000000Y-90000000D03*
X110000000Y-95000000D03*
X110000000Y-85000000D03*
X105000000Y-95000000D03*
X115000000Y-95000000D03*
X155400000Y-83400000D03*
X155400000Y-82200000D03*
X161000000Y-71200000D03*
X161000000Y-72400000D03*
X180200000Y-78600000D03*
X180200000Y-80600000D03*
X181600000Y-80600000D03*
X181600000Y-78600000D03*
X183000000Y-80600000D03*
X184200000Y-79400000D03*
X185200000Y-78400000D03*
X185800000Y-77000000D03*
X185800000Y-75600000D03*
X183800000Y-75600000D03*
X183800000Y-77000000D03*
X182800000Y-78000000D03*
X138000000Y-88750000D03*
X138000000Y-89750000D03*
X138000000Y-82750000D03*
X138000000Y-81750000D03*
X119750000Y-84000000D03*
X119750000Y-83000000D03*
X117500000Y-75250000D03*
X117500000Y-74000000D03*
X118500000Y-76250000D03*
X118500000Y-72750000D03*
X125000000Y-91000000D03*
X125000000Y-92000000D03*
X128250000Y-96250000D03*
X128250000Y-97500000D03*
X127000000Y-98750000D03*
X127000000Y-95250000D03*
X104750000Y-98000000D03*
X105750000Y-98000000D03*
X120000000Y-79750000D03*
X120000000Y-80750000D03*
X143000000Y-127000000D03*
X143000000Y-139500000D03*
X173000000Y-140000000D03*
X173000000Y-127000000D03*
X110000000Y-140000000D03*
X120000000Y-160000000D03*
X125000000Y-160000000D03*
X135000000Y-160000000D03*
X140000000Y-160000000D03*
X145000000Y-160000000D03*
X150000000Y-160000000D03*
X160000000Y-160000000D03*
X165000000Y-160000000D03*
X170000000Y-160000000D03*
X115000000Y-160000000D03*
X105000000Y-135000000D03*
X110000000Y-135000000D03*
X115000000Y-135000000D03*
X120000000Y-135000000D03*
X125000000Y-135000000D03*
X125000000Y-130000000D03*
X120000000Y-130000000D03*
X115000000Y-130000000D03*
X105000000Y-130000000D03*
X130000000Y-130000000D03*
X150000000Y-145000000D03*
X175000000Y-160000000D03*
X185000000Y-160000000D03*
X195000000Y-135000000D03*
X190000000Y-135000000D03*
X190000000Y-140000000D03*
X185000000Y-140000000D03*
X185000000Y-135000000D03*
X180000000Y-135000000D03*
X180000000Y-140000000D03*
X150000000Y-140000000D03*
X150000000Y-135000000D03*
X135000000Y-130000000D03*
X135000000Y-135000000D03*
X165000000Y-135000000D03*
X165000000Y-140000000D03*
X150000000Y-130000000D03*
X155000000Y-130000000D03*
X155000000Y-135000000D03*
X160000000Y-130000000D03*
X165000000Y-130000000D03*
X175000000Y-135000000D03*
X180000000Y-130000000D03*
X185000000Y-130000000D03*
X190000000Y-130000000D03*
X195000000Y-130000000D03*
X190000000Y-125000000D03*
X185000000Y-125000000D03*
X185000000Y-120000000D03*
X190000000Y-120000000D03*
X180000000Y-120000000D03*
X180000000Y-125000000D03*
X170000000Y-120000000D03*
X155000000Y-125000000D03*
X160000000Y-125000000D03*
X105000000Y-125000000D03*
X105000000Y-120000000D03*
X105000000Y-115000000D03*
X105000000Y-110000000D03*
X105000000Y-105000000D03*
X115000000Y-125000000D03*
X115000000Y-120000000D03*
X115000000Y-115000000D03*
X115000000Y-110000000D03*
X115000000Y-105000000D03*
X180000000Y-115000000D03*
X185000000Y-115000000D03*
X190000000Y-105000000D03*
X190000000Y-100000000D03*
X175000000Y-105000000D03*
X170000000Y-105000000D03*
X170000000Y-100000000D03*
X165000000Y-115000000D03*
X160000000Y-115000000D03*
X155000000Y-115000000D03*
X150000000Y-115000000D03*
X150000000Y-120000000D03*
X145000000Y-120000000D03*
X145000000Y-115000000D03*
X120000000Y-125000000D03*
X125000000Y-125000000D03*
X125000000Y-120000000D03*
X120000000Y-120000000D03*
X120000000Y-115000000D03*
X125000000Y-115000000D03*
X125000000Y-110000000D03*
X120000000Y-110000000D03*
X120000000Y-105000000D03*
X125000000Y-105000000D03*
X125000000Y-100000000D03*
X170000000Y-109200000D03*
X167000000Y-109200000D03*
X191200000Y-109600000D03*
X192200000Y-109600000D03*
X183800000Y-98400000D03*
X183800000Y-104200000D03*
X186600000Y-101200000D03*
X182000000Y-98400000D03*
X185600000Y-98400000D03*
X185600000Y-104200000D03*
X186600000Y-99400000D03*
X186600000Y-103000000D03*
X192200000Y-95400000D03*
X191200000Y-95400000D03*
X106600000Y-126400000D03*
X106600000Y-118400000D03*
X106600000Y-115400000D03*
X106400000Y-107400000D03*
X165000000Y-110000000D03*
X160000000Y-110000000D03*
X160000000Y-105000000D03*
X165000000Y-105000000D03*
X165000000Y-100000000D03*
X160000000Y-95000000D03*
X160000000Y-90000000D03*
X170000000Y-90000000D03*
X180000000Y-90000000D03*
X185000000Y-90000000D03*
X185000000Y-85000000D03*
X180000000Y-85000000D03*
X190000000Y-80000000D03*
X190000000Y-85000000D03*
X185000000Y-80000000D03*
X190000000Y-75000000D03*
X180000000Y-70000000D03*
X165000000Y-70000000D03*
X160000000Y-70000000D03*
X155000000Y-90000000D03*
X155000000Y-95000000D03*
X150000000Y-95000000D03*
X150000000Y-100000000D03*
X155000000Y-100000000D03*
X150000000Y-105000000D03*
X145000000Y-105000000D03*
X145000000Y-100000000D03*
X145000000Y-95000000D03*
X145000000Y-90000000D03*
X150000000Y-90000000D03*
X140000000Y-100000000D03*
X140000000Y-95000000D03*
X135000000Y-95000000D03*
X135000000Y-100000000D03*
X130000000Y-95000000D03*
X130000000Y-100000000D03*
X130000000Y-105000000D03*
X135000000Y-105000000D03*
X140000000Y-105000000D03*
X130000000Y-110000000D03*
X135000000Y-110000000D03*
X140000000Y-110000000D03*
X145000000Y-110000000D03*
X155000000Y-110000000D03*
X140000000Y-115000000D03*
X140000000Y-120000000D03*
X145000000Y-125000000D03*
X139400000Y-77200000D03*
X130000000Y-80000000D03*
X130000000Y-75000000D03*
X135000000Y-75000000D03*
X135000000Y-80000000D03*
X135000000Y-85000000D03*
X130000000Y-85000000D03*
X115000000Y-90000000D03*
X115000000Y-85000000D03*
X115000000Y-80000000D03*
X115000000Y-75000000D03*
X115000000Y-70000000D03*
X120000000Y-70000000D03*
X125000000Y-70000000D03*
X130000000Y-70000000D03*
X135000000Y-70000000D03*
X140000000Y-70000000D03*
X105000000Y-85000000D03*
X105000000Y-80000000D03*
X110000000Y-75000000D03*
X105000000Y-90000000D03*
X175000000Y-155000000D03*
X190000000Y-155000000D03*
X190000000Y-160000000D03*
X195000000Y-160000000D03*
X180000000Y-160000000D03*
X155000000Y-160000000D03*
X130000000Y-160000000D03*
X130000000Y-150000000D03*
X125000000Y-150000000D03*
X115000000Y-150000000D03*
X110000000Y-160000000D03*
X105000000Y-160000000D03*
X105000000Y-150000000D03*
X115000000Y-140000000D03*
X115000000Y-145000000D03*
X120000000Y-140000000D03*
X130000000Y-125000000D03*
X145000000Y-150000000D03*
X150000000Y-150000000D03*
X150000000Y-155000000D03*
X125000000Y-155000000D03*
%TO.N,VBUS*%
X146600000Y-79800000D03*
X150000000Y-84400000D03*
X146600000Y-76600000D03*
X138200000Y-76800000D03*
%TO.N,+3V3*%
X164800000Y-76400000D03*
X164800000Y-77400000D03*
X164800000Y-78400000D03*
X164800000Y-79400000D03*
X191800000Y-117400000D03*
X129000000Y-82750000D03*
X129000000Y-81750000D03*
X128000000Y-75250000D03*
X128000000Y-74000000D03*
X127000000Y-72750000D03*
X127000000Y-76250000D03*
X188400000Y-90200000D03*
X188400000Y-89000000D03*
X188400000Y-87800000D03*
X188400000Y-86600000D03*
%TO.N,ESP32_RXD0*%
X142700000Y-79400000D03*
X172500000Y-96600000D03*
%TO.N,ESP32_TXD0*%
X171800000Y-97400000D03*
X161000000Y-86600000D03*
X164700000Y-90300000D03*
%TO.N,ESP32_RXD1*%
X173800000Y-87200000D03*
X182600000Y-109600000D03*
%TO.N,ESP32_TXD1*%
X172800000Y-87600000D03*
X181200000Y-109600000D03*
%TO.N,GPS_~RESET*%
X179600000Y-109600000D03*
X170866001Y-87133999D03*
%TO.N,GPS_TIMEPULSE*%
X178200000Y-109600000D03*
X171800000Y-89400000D03*
%TO.N,EN*%
X134800000Y-116200000D03*
X187800000Y-116200000D03*
%TO.N,Relay_1_~D*%
X145000000Y-145000000D03*
%TO.N,Relay_1_D*%
X130000000Y-145000000D03*
%TO.N,DTR*%
X139400000Y-79200000D03*
X134000000Y-120200000D03*
%TO.N,Net-(R5-Pad1)*%
X154200000Y-78000000D03*
X142700000Y-76700000D03*
%TO.N,Net-(Q6-Pad1)*%
X137400000Y-117400000D03*
X133600000Y-113800000D03*
%TO.N,Net-(R3-Pad1)*%
X150000000Y-77000000D03*
X159000000Y-78000000D03*
%TO.N,Net-(R6-Pad1)*%
X156600000Y-78000000D03*
X142700000Y-78000000D03*
%TD*%
D18*
%TO.N,VBUS*%
X146600000Y-76600000D02*
X145400000Y-75400000D01*
X139600000Y-75400000D02*
X138200000Y-76800000D01*
X145400000Y-75400000D02*
X139600000Y-75400000D01*
X150000000Y-83200000D02*
X146600000Y-79800000D01*
X150000000Y-84400000D02*
X150000000Y-83200000D01*
D19*
%TO.N,ESP32_RXD0*%
X150400000Y-86400000D02*
X143600000Y-79600000D01*
X161500000Y-85600000D02*
X149400000Y-85600000D01*
X172500000Y-96600000D02*
X161500000Y-85600000D01*
X143400000Y-79400000D02*
X143600000Y-79600000D01*
X142700000Y-79400000D02*
X143400000Y-79400000D01*
%TO.N,ESP32_TXD0*%
X171800000Y-97400000D02*
X164700000Y-90300000D01*
X161000000Y-86600000D02*
X161000000Y-86600000D01*
X164700000Y-90300000D02*
X161000000Y-86600000D01*
%TO.N,ESP32_RXD1*%
X182900000Y-109300000D02*
X182600000Y-109600000D01*
X182900000Y-96300000D02*
X182900000Y-109300000D01*
X173800000Y-87200000D02*
X182900000Y-96300000D01*
%TO.N,ESP32_TXD1*%
X181099999Y-109499999D02*
X181200000Y-109600000D01*
X181099999Y-95899999D02*
X181099999Y-109499999D01*
X172800000Y-87600000D02*
X181099999Y-95899999D01*
%TO.N,GPS_~RESET*%
X179600000Y-109600000D02*
X179600000Y-100262768D01*
X179600000Y-95867998D02*
X170866001Y-87133999D01*
X179600000Y-100262768D02*
X179600000Y-95867998D01*
%TO.N,GPS_TIMEPULSE*%
X178200000Y-109600000D02*
X178200000Y-99994152D01*
X178200000Y-99994152D02*
X178200000Y-95800000D01*
X178200000Y-95800000D02*
X171800000Y-89400000D01*
X171800000Y-89400000D02*
X171800000Y-89400000D01*
D18*
%TO.N,EN*%
X134800000Y-116200000D02*
X187800000Y-116200000D01*
X187800000Y-116200000D02*
X187800000Y-116200000D01*
D20*
%TO.N,Relay_2_~D*%
X167980000Y-135280000D02*
X171660000Y-135280000D01*
X171660000Y-135280000D02*
X181640000Y-145260000D01*
X186370000Y-145260000D02*
X195380000Y-154270000D01*
X181640000Y-145260000D02*
X186370000Y-145260000D01*
%TO.N,Relay_2_D*%
X166919340Y-140360000D02*
X165500000Y-141779340D01*
X167980000Y-140360000D02*
X166919340Y-140360000D01*
X165500000Y-141779340D02*
X165500000Y-144730000D01*
X165500000Y-144730000D02*
X170820000Y-150050000D01*
X174650000Y-150050000D02*
X178870000Y-154270000D01*
X170820000Y-150050000D02*
X174650000Y-150050000D01*
%TO.N,Relay_2_C*%
X169040660Y-137820000D02*
X170930000Y-139709340D01*
X167980000Y-137820000D02*
X169040660Y-137820000D01*
X170930000Y-139709340D02*
X170930000Y-141170000D01*
X170930000Y-141170000D02*
X178950000Y-149190000D01*
X182045000Y-149190000D02*
X187125000Y-154270000D01*
X178950000Y-149190000D02*
X182045000Y-149190000D01*
%TO.N,Relay_1_~D*%
X147500000Y-152620000D02*
X145850000Y-154270000D01*
X147500000Y-141631998D02*
X147500000Y-152620000D01*
X140948002Y-135080000D02*
X147500000Y-141631998D01*
X138080000Y-135080000D02*
X140948002Y-135080000D01*
%TO.N,Relay_1_D*%
X137019340Y-140160000D02*
X135750000Y-141429340D01*
X138080000Y-140160000D02*
X137019340Y-140160000D01*
X135750000Y-147860000D02*
X129340000Y-154270000D01*
X135750000Y-141429340D02*
X135750000Y-147860000D01*
%TO.N,Relay_1_C*%
X139370000Y-137620000D02*
X141399999Y-139649999D01*
X138080000Y-137620000D02*
X139370000Y-137620000D01*
X141399999Y-150465001D02*
X137595000Y-154270000D01*
X141399999Y-139649999D02*
X141399999Y-150465001D01*
D18*
%TO.N,DTR*%
X132200000Y-118400000D02*
X134000000Y-120200000D01*
X132200000Y-99800000D02*
X132200000Y-118400000D01*
X139400000Y-92600000D02*
X132200000Y-99800000D01*
X139400000Y-79200000D02*
X139400000Y-92600000D01*
D21*
%TO.N,Net-(R5-Pad1)*%
X153634315Y-78000000D02*
X154200000Y-78000000D01*
X146200001Y-78000001D02*
X153634315Y-78000000D01*
X145000000Y-76800000D02*
X146200001Y-78000001D01*
X144900000Y-76700000D02*
X146200001Y-78000001D01*
X142700000Y-76700000D02*
X144900000Y-76700000D01*
%TO.N,Net-(Q6-Pad1)*%
X137200000Y-117400000D02*
X137400000Y-117400000D01*
D18*
X133600000Y-116480002D02*
X133600000Y-113800000D01*
X134519998Y-117400000D02*
X133600000Y-116480002D01*
X137400000Y-117400000D02*
X134519998Y-117400000D01*
D21*
%TO.N,Net-(R3-Pad1)*%
X150399999Y-76600001D02*
X150000000Y-77000000D01*
X157600000Y-76600000D02*
X150399999Y-76600001D01*
X159000000Y-78000000D02*
X157600000Y-76600000D01*
%TO.N,Net-(R6-Pad1)*%
X155799999Y-78800001D02*
X156600000Y-78000000D01*
X146151459Y-78800001D02*
X155799999Y-78800001D01*
X145351458Y-78000000D02*
X146151459Y-78800001D01*
X142700000Y-78000000D02*
X145351458Y-78000000D01*
%TD*%
D22*
%TO.N,GND*%
X139713507Y-65784504D02*
X139665000Y-66023000D01*
X139665000Y-66373000D01*
X140773000Y-66373000D01*
X140773000Y-66353000D01*
X141027000Y-66353000D01*
X141027000Y-66373000D01*
X142135000Y-66373000D01*
X142135000Y-66023000D01*
X142086493Y-65784504D01*
X142034293Y-65660000D01*
X146765707Y-65660000D01*
X146713507Y-65784504D01*
X146665000Y-66023000D01*
X146665000Y-66373000D01*
X147773000Y-66373000D01*
X147773000Y-66353000D01*
X148027000Y-66353000D01*
X148027000Y-66373000D01*
X149135000Y-66373000D01*
X149135000Y-66023000D01*
X149086493Y-65784504D01*
X149034293Y-65660000D01*
X195967722Y-65660000D01*
X196648126Y-65726714D01*
X197271572Y-65914943D01*
X197846579Y-66220681D01*
X198351247Y-66632279D01*
X198766362Y-67134067D01*
X199076105Y-67706924D01*
X199268682Y-68329039D01*
X199340000Y-69007584D01*
X199340000Y-78373000D01*
X193000000Y-78373000D01*
X192975224Y-78375440D01*
X192951399Y-78382667D01*
X192929443Y-78394403D01*
X192910197Y-78410197D01*
X192894403Y-78429443D01*
X192882667Y-78451399D01*
X192875440Y-78475224D01*
X192873000Y-78500000D01*
X192873000Y-126500000D01*
X192875440Y-126524776D01*
X192882667Y-126548601D01*
X192894403Y-126570557D01*
X192910197Y-126589803D01*
X192929443Y-126605597D01*
X192951399Y-126617333D01*
X192975224Y-126624560D01*
X193000000Y-126627000D01*
X199340001Y-126627000D01*
X199340001Y-160967711D01*
X199273286Y-161648126D01*
X199085057Y-162271570D01*
X198779323Y-162846573D01*
X198367721Y-163351248D01*
X197865933Y-163766362D01*
X197293077Y-164076104D01*
X196670961Y-164268682D01*
X195992417Y-164340000D01*
X104032279Y-164340000D01*
X103351874Y-164273286D01*
X102728430Y-164085057D01*
X102153427Y-163779323D01*
X101648752Y-163367721D01*
X101233638Y-162865933D01*
X100923896Y-162293077D01*
X100731318Y-161670961D01*
X100660000Y-160992417D01*
X100660000Y-152270000D01*
X101936928Y-152270000D01*
X101936928Y-156270000D01*
X101949188Y-156394482D01*
X101985498Y-156514180D01*
X102044463Y-156624494D01*
X102123815Y-156721185D01*
X102220506Y-156800537D01*
X102330820Y-156859502D01*
X102450518Y-156895812D01*
X102575000Y-156908072D01*
X106575000Y-156908072D01*
X106699482Y-156895812D01*
X106819180Y-156859502D01*
X106929494Y-156800537D01*
X107026185Y-156721185D01*
X107105537Y-156624494D01*
X107164502Y-156514180D01*
X107200812Y-156394482D01*
X107213072Y-156270000D01*
X107213072Y-154010475D01*
X110195000Y-154010475D01*
X110195000Y-154529525D01*
X110296261Y-155038601D01*
X110494893Y-155518141D01*
X110783262Y-155949715D01*
X111150285Y-156316738D01*
X111581859Y-156605107D01*
X112061399Y-156803739D01*
X112570475Y-156905000D01*
X113089525Y-156905000D01*
X113598601Y-156803739D01*
X114078141Y-156605107D01*
X114509715Y-156316738D01*
X114876738Y-155949715D01*
X115165107Y-155518141D01*
X115363739Y-155038601D01*
X115465000Y-154529525D01*
X115465000Y-154010475D01*
X118450000Y-154010475D01*
X118450000Y-154529525D01*
X118551261Y-155038601D01*
X118749893Y-155518141D01*
X119038262Y-155949715D01*
X119405285Y-156316738D01*
X119836859Y-156605107D01*
X120316399Y-156803739D01*
X120825475Y-156905000D01*
X121344525Y-156905000D01*
X121853601Y-156803739D01*
X122333141Y-156605107D01*
X122764715Y-156316738D01*
X123131738Y-155949715D01*
X123420107Y-155518141D01*
X123618739Y-155038601D01*
X123720000Y-154529525D01*
X123720000Y-154010475D01*
X126705000Y-154010475D01*
X126705000Y-154529525D01*
X126806261Y-155038601D01*
X127004893Y-155518141D01*
X127293262Y-155949715D01*
X127660285Y-156316738D01*
X128091859Y-156605107D01*
X128571399Y-156803739D01*
X129080475Y-156905000D01*
X129599525Y-156905000D01*
X130108601Y-156803739D01*
X130588141Y-156605107D01*
X131019715Y-156316738D01*
X131386738Y-155949715D01*
X131675107Y-155518141D01*
X131873739Y-155038601D01*
X131975000Y-154529525D01*
X131975000Y-154010475D01*
X131964508Y-153957730D01*
X136849319Y-149072920D01*
X136911714Y-149021714D01*
X137116031Y-148772752D01*
X137267852Y-148488715D01*
X137361343Y-148180516D01*
X137385000Y-147940322D01*
X137385000Y-147940320D01*
X137392911Y-147860000D01*
X137385000Y-147779681D01*
X137385000Y-143901341D01*
X137423957Y-143927371D01*
X137676011Y-144031775D01*
X137943589Y-144085000D01*
X138216411Y-144085000D01*
X138483989Y-144031775D01*
X138736043Y-143927371D01*
X138962886Y-143775799D01*
X139155799Y-143582886D01*
X139307371Y-143356043D01*
X139411775Y-143103989D01*
X139465000Y-142836411D01*
X139465000Y-142563589D01*
X139411775Y-142296011D01*
X139307371Y-142043957D01*
X139155799Y-141817114D01*
X138962886Y-141624201D01*
X138894534Y-141578530D01*
X138992752Y-141526031D01*
X139241714Y-141321714D01*
X139446031Y-141072752D01*
X139597852Y-140788715D01*
X139691343Y-140480516D01*
X139711690Y-140273929D01*
X139764999Y-140327238D01*
X139765000Y-149787761D01*
X137907270Y-151645492D01*
X137854525Y-151635000D01*
X137335475Y-151635000D01*
X136826399Y-151736261D01*
X136346859Y-151934893D01*
X135915285Y-152223262D01*
X135548262Y-152590285D01*
X135259893Y-153021859D01*
X135061261Y-153501399D01*
X134960000Y-154010475D01*
X134960000Y-154529525D01*
X135061261Y-155038601D01*
X135259893Y-155518141D01*
X135548262Y-155949715D01*
X135915285Y-156316738D01*
X136346859Y-156605107D01*
X136826399Y-156803739D01*
X137335475Y-156905000D01*
X137854525Y-156905000D01*
X138363601Y-156803739D01*
X138843141Y-156605107D01*
X139274715Y-156316738D01*
X139641738Y-155949715D01*
X139930107Y-155518141D01*
X140128739Y-155038601D01*
X140230000Y-154529525D01*
X140230000Y-154010475D01*
X140219508Y-153957730D01*
X142499318Y-151677921D01*
X142561713Y-151626715D01*
X142766030Y-151377753D01*
X142917851Y-151093716D01*
X143011342Y-150785517D01*
X143034999Y-150545323D01*
X143034999Y-150545321D01*
X143042910Y-150465002D01*
X143034999Y-150384682D01*
X143034999Y-139730318D01*
X143042910Y-139649998D01*
X143031218Y-139531286D01*
X143025118Y-139469355D01*
X145865000Y-142309237D01*
X145865000Y-144431614D01*
X145803937Y-144340226D01*
X145659774Y-144196063D01*
X145490256Y-144082795D01*
X145301898Y-144004774D01*
X145101939Y-143965000D01*
X144898061Y-143965000D01*
X144698102Y-144004774D01*
X144509744Y-144082795D01*
X144340226Y-144196063D01*
X144196063Y-144340226D01*
X144082795Y-144509744D01*
X144004774Y-144698102D01*
X143965000Y-144898061D01*
X143965000Y-145101939D01*
X144004774Y-145301898D01*
X144082795Y-145490256D01*
X144196063Y-145659774D01*
X144340226Y-145803937D01*
X144509744Y-145917205D01*
X144698102Y-145995226D01*
X144898061Y-146035000D01*
X145101939Y-146035000D01*
X145301898Y-145995226D01*
X145490256Y-145917205D01*
X145659774Y-145803937D01*
X145803937Y-145659774D01*
X145865000Y-145568386D01*
X145865001Y-151635000D01*
X145590475Y-151635000D01*
X145081399Y-151736261D01*
X144601859Y-151934893D01*
X144170285Y-152223262D01*
X143803262Y-152590285D01*
X143514893Y-153021859D01*
X143316261Y-153501399D01*
X143215000Y-154010475D01*
X143215000Y-154529525D01*
X143316261Y-155038601D01*
X143514893Y-155518141D01*
X143803262Y-155949715D01*
X144170285Y-156316738D01*
X144601859Y-156605107D01*
X145081399Y-156803739D01*
X145590475Y-156905000D01*
X146109525Y-156905000D01*
X146618601Y-156803739D01*
X147098141Y-156605107D01*
X147529715Y-156316738D01*
X147896738Y-155949715D01*
X148185107Y-155518141D01*
X148383739Y-155038601D01*
X148485000Y-154529525D01*
X148485000Y-154010475D01*
X151470000Y-154010475D01*
X151470000Y-154529525D01*
X151571261Y-155038601D01*
X151769893Y-155518141D01*
X152058262Y-155949715D01*
X152425285Y-156316738D01*
X152856859Y-156605107D01*
X153336399Y-156803739D01*
X153845475Y-156905000D01*
X154364525Y-156905000D01*
X154873601Y-156803739D01*
X155353141Y-156605107D01*
X155784715Y-156316738D01*
X156151738Y-155949715D01*
X156440107Y-155518141D01*
X156638739Y-155038601D01*
X156740000Y-154529525D01*
X156740000Y-154010475D01*
X159725000Y-154010475D01*
X159725000Y-154529525D01*
X159826261Y-155038601D01*
X160024893Y-155518141D01*
X160313262Y-155949715D01*
X160680285Y-156316738D01*
X161111859Y-156605107D01*
X161591399Y-156803739D01*
X162100475Y-156905000D01*
X162619525Y-156905000D01*
X163128601Y-156803739D01*
X163608141Y-156605107D01*
X164039715Y-156316738D01*
X164406738Y-155949715D01*
X164695107Y-155518141D01*
X164893739Y-155038601D01*
X164995000Y-154529525D01*
X164995000Y-154010475D01*
X164893739Y-153501399D01*
X164695107Y-153021859D01*
X164406738Y-152590285D01*
X164039715Y-152223262D01*
X163608141Y-151934893D01*
X163128601Y-151736261D01*
X162619525Y-151635000D01*
X162100475Y-151635000D01*
X161591399Y-151736261D01*
X161111859Y-151934893D01*
X160680285Y-152223262D01*
X160313262Y-152590285D01*
X160024893Y-153021859D01*
X159826261Y-153501399D01*
X159725000Y-154010475D01*
X156740000Y-154010475D01*
X156638739Y-153501399D01*
X156440107Y-153021859D01*
X156151738Y-152590285D01*
X155784715Y-152223262D01*
X155353141Y-151934893D01*
X154873601Y-151736261D01*
X154364525Y-151635000D01*
X153845475Y-151635000D01*
X153336399Y-151736261D01*
X152856859Y-151934893D01*
X152425285Y-152223262D01*
X152058262Y-152590285D01*
X151769893Y-153021859D01*
X151571261Y-153501399D01*
X151470000Y-154010475D01*
X148485000Y-154010475D01*
X148474508Y-153957730D01*
X148599318Y-153832921D01*
X148661714Y-153781714D01*
X148866031Y-153532752D01*
X149017852Y-153248715D01*
X149111343Y-152940516D01*
X149135000Y-152700322D01*
X149135000Y-152700320D01*
X149142911Y-152620001D01*
X149135000Y-152539681D01*
X149135000Y-141712317D01*
X149142911Y-141631997D01*
X149134342Y-141545000D01*
X149111343Y-141311482D01*
X149017852Y-141003283D01*
X148866031Y-140719246D01*
X148661714Y-140470284D01*
X148599320Y-140419079D01*
X143323830Y-135143589D01*
X161515000Y-135143589D01*
X161515000Y-135416411D01*
X161568225Y-135683989D01*
X161672629Y-135936043D01*
X161824201Y-136162886D01*
X162017114Y-136355799D01*
X162243957Y-136507371D01*
X162346873Y-136550000D01*
X162243957Y-136592629D01*
X162017114Y-136744201D01*
X161824201Y-136937114D01*
X161672629Y-137163957D01*
X161568225Y-137416011D01*
X161515000Y-137683589D01*
X161515000Y-137956411D01*
X161568225Y-138223989D01*
X161672629Y-138476043D01*
X161824201Y-138702886D01*
X162017114Y-138895799D01*
X162243957Y-139047371D01*
X162346873Y-139090000D01*
X162243957Y-139132629D01*
X162017114Y-139284201D01*
X161824201Y-139477114D01*
X161672629Y-139703957D01*
X161568225Y-139956011D01*
X161515000Y-140223589D01*
X161515000Y-140496411D01*
X161568225Y-140763989D01*
X161672629Y-141016043D01*
X161824201Y-141242886D01*
X162017114Y-141435799D01*
X162243957Y-141587371D01*
X162346873Y-141630000D01*
X162243957Y-141672629D01*
X162017114Y-141824201D01*
X161824201Y-142017114D01*
X161672629Y-142243957D01*
X161568225Y-142496011D01*
X161515000Y-142763589D01*
X161515000Y-143036411D01*
X161568225Y-143303989D01*
X161672629Y-143556043D01*
X161824201Y-143782886D01*
X162017114Y-143975799D01*
X162243957Y-144127371D01*
X162496011Y-144231775D01*
X162763589Y-144285000D01*
X163036411Y-144285000D01*
X163303989Y-144231775D01*
X163556043Y-144127371D01*
X163782886Y-143975799D01*
X163865001Y-143893684D01*
X163865001Y-144649671D01*
X163857089Y-144730000D01*
X163888658Y-145050516D01*
X163982148Y-145358714D01*
X163982149Y-145358715D01*
X164133970Y-145642752D01*
X164338287Y-145891714D01*
X164400682Y-145942920D01*
X169607080Y-151149319D01*
X169658286Y-151211714D01*
X169907248Y-151416031D01*
X170191285Y-151567852D01*
X170412643Y-151635000D01*
X170355475Y-151635000D01*
X169846399Y-151736261D01*
X169366859Y-151934893D01*
X168935285Y-152223262D01*
X168568262Y-152590285D01*
X168279893Y-153021859D01*
X168081261Y-153501399D01*
X167980000Y-154010475D01*
X167980000Y-154529525D01*
X168081261Y-155038601D01*
X168279893Y-155518141D01*
X168568262Y-155949715D01*
X168935285Y-156316738D01*
X169366859Y-156605107D01*
X169846399Y-156803739D01*
X170355475Y-156905000D01*
X170874525Y-156905000D01*
X171383601Y-156803739D01*
X171863141Y-156605107D01*
X172294715Y-156316738D01*
X172661738Y-155949715D01*
X172950107Y-155518141D01*
X173148739Y-155038601D01*
X173250000Y-154529525D01*
X173250000Y-154010475D01*
X173148739Y-153501399D01*
X172950107Y-153021859D01*
X172661738Y-152590285D01*
X172294715Y-152223262D01*
X171863141Y-151934893D01*
X171383601Y-151736261D01*
X171125893Y-151685000D01*
X173972762Y-151685000D01*
X176245492Y-153957730D01*
X176235000Y-154010475D01*
X176235000Y-154529525D01*
X176336261Y-155038601D01*
X176534893Y-155518141D01*
X176823262Y-155949715D01*
X177190285Y-156316738D01*
X177621859Y-156605107D01*
X178101399Y-156803739D01*
X178610475Y-156905000D01*
X179129525Y-156905000D01*
X179638601Y-156803739D01*
X180118141Y-156605107D01*
X180549715Y-156316738D01*
X180916738Y-155949715D01*
X181205107Y-155518141D01*
X181403739Y-155038601D01*
X181505000Y-154529525D01*
X181505000Y-154010475D01*
X181403739Y-153501399D01*
X181205107Y-153021859D01*
X180916738Y-152590285D01*
X180549715Y-152223262D01*
X180118141Y-151934893D01*
X179638601Y-151736261D01*
X179129525Y-151635000D01*
X178610475Y-151635000D01*
X178557730Y-151645492D01*
X175862925Y-148950687D01*
X175811714Y-148888286D01*
X175562752Y-148683969D01*
X175278715Y-148532148D01*
X174970516Y-148438657D01*
X174730322Y-148415000D01*
X174730319Y-148415000D01*
X174650000Y-148407089D01*
X174569681Y-148415000D01*
X171497239Y-148415000D01*
X167135000Y-144052762D01*
X167135000Y-144001114D01*
X167323957Y-144127371D01*
X167576011Y-144231775D01*
X167843589Y-144285000D01*
X168116411Y-144285000D01*
X168383989Y-144231775D01*
X168636043Y-144127371D01*
X168862886Y-143975799D01*
X169055799Y-143782886D01*
X169207371Y-143556043D01*
X169311775Y-143303989D01*
X169365000Y-143036411D01*
X169365000Y-142763589D01*
X169311775Y-142496011D01*
X169207371Y-142243957D01*
X169055799Y-142017114D01*
X168862886Y-141824201D01*
X168794534Y-141778530D01*
X168892752Y-141726031D01*
X169141714Y-141521714D01*
X169302441Y-141325867D01*
X169318657Y-141490516D01*
X169361575Y-141631997D01*
X169412148Y-141798714D01*
X169528886Y-142017114D01*
X169563970Y-142082752D01*
X169768287Y-142331714D01*
X169830682Y-142382920D01*
X177737080Y-150289319D01*
X177788286Y-150351714D01*
X178037248Y-150556031D01*
X178266772Y-150678714D01*
X178321285Y-150707852D01*
X178629483Y-150801343D01*
X178950000Y-150832911D01*
X179030322Y-150825000D01*
X181367762Y-150825000D01*
X184500492Y-153957730D01*
X184490000Y-154010475D01*
X184490000Y-154529525D01*
X184591261Y-155038601D01*
X184789893Y-155518141D01*
X185078262Y-155949715D01*
X185445285Y-156316738D01*
X185876859Y-156605107D01*
X186356399Y-156803739D01*
X186865475Y-156905000D01*
X187384525Y-156905000D01*
X187893601Y-156803739D01*
X188373141Y-156605107D01*
X188804715Y-156316738D01*
X189171738Y-155949715D01*
X189460107Y-155518141D01*
X189658739Y-155038601D01*
X189760000Y-154529525D01*
X189760000Y-154010475D01*
X189658739Y-153501399D01*
X189460107Y-153021859D01*
X189171738Y-152590285D01*
X188804715Y-152223262D01*
X188373141Y-151934893D01*
X187893601Y-151736261D01*
X187384525Y-151635000D01*
X186865475Y-151635000D01*
X186812730Y-151645492D01*
X183257925Y-148090687D01*
X183206714Y-148028286D01*
X182957752Y-147823969D01*
X182673715Y-147672148D01*
X182365516Y-147578657D01*
X182125322Y-147555000D01*
X182125319Y-147555000D01*
X182045000Y-147547089D01*
X181964681Y-147555000D01*
X179627239Y-147555000D01*
X172565000Y-140492762D01*
X172565000Y-139789659D01*
X172572911Y-139709339D01*
X172565000Y-139629018D01*
X172541343Y-139388824D01*
X172447852Y-139080625D01*
X172296031Y-138796588D01*
X172091714Y-138547626D01*
X172029320Y-138496421D01*
X170447898Y-136915000D01*
X170982762Y-136915000D01*
X180427080Y-146359319D01*
X180478286Y-146421714D01*
X180727248Y-146626031D01*
X181011285Y-146777852D01*
X181319484Y-146871343D01*
X181559678Y-146895000D01*
X181559680Y-146895000D01*
X181639999Y-146902911D01*
X181720319Y-146895000D01*
X185692762Y-146895000D01*
X192755492Y-153957730D01*
X192745000Y-154010475D01*
X192745000Y-154529525D01*
X192846261Y-155038601D01*
X193044893Y-155518141D01*
X193333262Y-155949715D01*
X193700285Y-156316738D01*
X194131859Y-156605107D01*
X194611399Y-156803739D01*
X195120475Y-156905000D01*
X195639525Y-156905000D01*
X196148601Y-156803739D01*
X196628141Y-156605107D01*
X197059715Y-156316738D01*
X197426738Y-155949715D01*
X197715107Y-155518141D01*
X197913739Y-155038601D01*
X198015000Y-154529525D01*
X198015000Y-154010475D01*
X197913739Y-153501399D01*
X197715107Y-153021859D01*
X197426738Y-152590285D01*
X197059715Y-152223262D01*
X196628141Y-151934893D01*
X196148601Y-151736261D01*
X195639525Y-151635000D01*
X195120475Y-151635000D01*
X195067730Y-151645492D01*
X187582925Y-144160687D01*
X187531714Y-144098286D01*
X187282752Y-143893969D01*
X186998715Y-143742148D01*
X186944497Y-143725701D01*
X191215000Y-143725701D01*
X191215000Y-144274299D01*
X191322026Y-144812354D01*
X191531965Y-145319192D01*
X191836750Y-145775334D01*
X192224666Y-146163250D01*
X192680808Y-146468035D01*
X193187646Y-146677974D01*
X193725701Y-146785000D01*
X194274299Y-146785000D01*
X194812354Y-146677974D01*
X195319192Y-146468035D01*
X195775334Y-146163250D01*
X196163250Y-145775334D01*
X196468035Y-145319192D01*
X196677974Y-144812354D01*
X196785000Y-144274299D01*
X196785000Y-143725701D01*
X196677974Y-143187646D01*
X196468035Y-142680808D01*
X196163250Y-142224666D01*
X195775334Y-141836750D01*
X195319192Y-141531965D01*
X194812354Y-141322026D01*
X194274299Y-141215000D01*
X193725701Y-141215000D01*
X193187646Y-141322026D01*
X192680808Y-141531965D01*
X192224666Y-141836750D01*
X191836750Y-142224666D01*
X191531965Y-142680808D01*
X191322026Y-143187646D01*
X191215000Y-143725701D01*
X186944497Y-143725701D01*
X186690516Y-143648657D01*
X186450322Y-143625000D01*
X186450319Y-143625000D01*
X186370000Y-143617089D01*
X186289681Y-143625000D01*
X182317239Y-143625000D01*
X172872925Y-134180687D01*
X172821714Y-134118286D01*
X172572752Y-133913969D01*
X172288715Y-133762148D01*
X171980516Y-133668657D01*
X171740322Y-133645000D01*
X171740319Y-133645000D01*
X171660000Y-133637089D01*
X171579681Y-133645000D01*
X167899678Y-133645000D01*
X167659484Y-133668657D01*
X167351285Y-133762148D01*
X167067248Y-133913969D01*
X166818286Y-134118286D01*
X166613969Y-134367248D01*
X166462148Y-134651285D01*
X166368657Y-134959484D01*
X166337089Y-135280000D01*
X166368657Y-135600516D01*
X166462148Y-135908715D01*
X166613969Y-136192752D01*
X166818286Y-136441714D01*
X166950233Y-136550000D01*
X166818286Y-136658286D01*
X166613969Y-136907248D01*
X166462148Y-137191285D01*
X166368657Y-137499484D01*
X166337089Y-137820000D01*
X166368657Y-138140516D01*
X166462148Y-138448715D01*
X166613969Y-138732752D01*
X166624913Y-138746087D01*
X166598824Y-138748657D01*
X166290625Y-138842148D01*
X166006588Y-138993969D01*
X165757626Y-139198286D01*
X165706419Y-139260682D01*
X164400686Y-140566416D01*
X164338286Y-140617626D01*
X164236128Y-140742107D01*
X164285000Y-140496411D01*
X164285000Y-140223589D01*
X164231775Y-139956011D01*
X164127371Y-139703957D01*
X163975799Y-139477114D01*
X163782886Y-139284201D01*
X163556043Y-139132629D01*
X163453127Y-139090000D01*
X163556043Y-139047371D01*
X163782886Y-138895799D01*
X163975799Y-138702886D01*
X164127371Y-138476043D01*
X164231775Y-138223989D01*
X164285000Y-137956411D01*
X164285000Y-137683589D01*
X164231775Y-137416011D01*
X164127371Y-137163957D01*
X163975799Y-136937114D01*
X163782886Y-136744201D01*
X163556043Y-136592629D01*
X163453127Y-136550000D01*
X163556043Y-136507371D01*
X163782886Y-136355799D01*
X163975799Y-136162886D01*
X164127371Y-135936043D01*
X164231775Y-135683989D01*
X164285000Y-135416411D01*
X164285000Y-135143589D01*
X164231775Y-134876011D01*
X164127371Y-134623957D01*
X163975799Y-134397114D01*
X163782886Y-134204201D01*
X163556043Y-134052629D01*
X163303989Y-133948225D01*
X163036411Y-133895000D01*
X162763589Y-133895000D01*
X162496011Y-133948225D01*
X162243957Y-134052629D01*
X162017114Y-134204201D01*
X161824201Y-134397114D01*
X161672629Y-134623957D01*
X161568225Y-134876011D01*
X161515000Y-135143589D01*
X143323830Y-135143589D01*
X142160927Y-133980687D01*
X142109716Y-133918286D01*
X141860754Y-133713969D01*
X141576717Y-133562148D01*
X141268518Y-133468657D01*
X141028324Y-133445000D01*
X141028321Y-133445000D01*
X140948002Y-133437089D01*
X140867683Y-133445000D01*
X137999678Y-133445000D01*
X137759484Y-133468657D01*
X137451285Y-133562148D01*
X137167248Y-133713969D01*
X136918286Y-133918286D01*
X136713969Y-134167248D01*
X136562148Y-134451285D01*
X136468657Y-134759484D01*
X136437089Y-135080000D01*
X136468657Y-135400516D01*
X136562148Y-135708715D01*
X136713969Y-135992752D01*
X136918286Y-136241714D01*
X137050233Y-136350000D01*
X136918286Y-136458286D01*
X136713969Y-136707248D01*
X136562148Y-136991285D01*
X136468657Y-137299484D01*
X136437089Y-137620000D01*
X136468657Y-137940516D01*
X136562148Y-138248715D01*
X136713969Y-138532752D01*
X136724913Y-138546087D01*
X136698823Y-138548657D01*
X136496550Y-138610016D01*
X136390625Y-138642148D01*
X136106588Y-138793969D01*
X135857626Y-138998286D01*
X135806419Y-139060682D01*
X134650686Y-140216416D01*
X134588286Y-140267626D01*
X134383969Y-140516589D01*
X134239297Y-140787252D01*
X134331775Y-140563989D01*
X134385000Y-140296411D01*
X134385000Y-140023589D01*
X134331775Y-139756011D01*
X134227371Y-139503957D01*
X134075799Y-139277114D01*
X133882886Y-139084201D01*
X133656043Y-138932629D01*
X133553127Y-138890000D01*
X133656043Y-138847371D01*
X133882886Y-138695799D01*
X134075799Y-138502886D01*
X134227371Y-138276043D01*
X134331775Y-138023989D01*
X134385000Y-137756411D01*
X134385000Y-137483589D01*
X134331775Y-137216011D01*
X134227371Y-136963957D01*
X134075799Y-136737114D01*
X133882886Y-136544201D01*
X133656043Y-136392629D01*
X133553127Y-136350000D01*
X133656043Y-136307371D01*
X133882886Y-136155799D01*
X134075799Y-135962886D01*
X134227371Y-135736043D01*
X134331775Y-135483989D01*
X134385000Y-135216411D01*
X134385000Y-134943589D01*
X134331775Y-134676011D01*
X134227371Y-134423957D01*
X134075799Y-134197114D01*
X133882886Y-134004201D01*
X133656043Y-133852629D01*
X133403989Y-133748225D01*
X133136411Y-133695000D01*
X132863589Y-133695000D01*
X132596011Y-133748225D01*
X132343957Y-133852629D01*
X132117114Y-134004201D01*
X131924201Y-134197114D01*
X131772629Y-134423957D01*
X131668225Y-134676011D01*
X131615000Y-134943589D01*
X131615000Y-135216411D01*
X131668225Y-135483989D01*
X131772629Y-135736043D01*
X131924201Y-135962886D01*
X132117114Y-136155799D01*
X132343957Y-136307371D01*
X132446873Y-136350000D01*
X132343957Y-136392629D01*
X132117114Y-136544201D01*
X131924201Y-136737114D01*
X131772629Y-136963957D01*
X131668225Y-137216011D01*
X131615000Y-137483589D01*
X131615000Y-137756411D01*
X131668225Y-138023989D01*
X131772629Y-138276043D01*
X131924201Y-138502886D01*
X132117114Y-138695799D01*
X132343957Y-138847371D01*
X132446873Y-138890000D01*
X132343957Y-138932629D01*
X132117114Y-139084201D01*
X131924201Y-139277114D01*
X131772629Y-139503957D01*
X131668225Y-139756011D01*
X131615000Y-140023589D01*
X131615000Y-140296411D01*
X131668225Y-140563989D01*
X131772629Y-140816043D01*
X131924201Y-141042886D01*
X132117114Y-141235799D01*
X132343957Y-141387371D01*
X132446873Y-141430000D01*
X132343957Y-141472629D01*
X132117114Y-141624201D01*
X131924201Y-141817114D01*
X131772629Y-142043957D01*
X131668225Y-142296011D01*
X131615000Y-142563589D01*
X131615000Y-142836411D01*
X131668225Y-143103989D01*
X131772629Y-143356043D01*
X131924201Y-143582886D01*
X132117114Y-143775799D01*
X132343957Y-143927371D01*
X132596011Y-144031775D01*
X132863589Y-144085000D01*
X133136411Y-144085000D01*
X133403989Y-144031775D01*
X133656043Y-143927371D01*
X133882886Y-143775799D01*
X134075799Y-143582886D01*
X134115000Y-143524217D01*
X134115001Y-147182760D01*
X129652270Y-151645492D01*
X129599525Y-151635000D01*
X129080475Y-151635000D01*
X128571399Y-151736261D01*
X128091859Y-151934893D01*
X127660285Y-152223262D01*
X127293262Y-152590285D01*
X127004893Y-153021859D01*
X126806261Y-153501399D01*
X126705000Y-154010475D01*
X123720000Y-154010475D01*
X123618739Y-153501399D01*
X123420107Y-153021859D01*
X123131738Y-152590285D01*
X122764715Y-152223262D01*
X122333141Y-151934893D01*
X121853601Y-151736261D01*
X121344525Y-151635000D01*
X120825475Y-151635000D01*
X120316399Y-151736261D01*
X119836859Y-151934893D01*
X119405285Y-152223262D01*
X119038262Y-152590285D01*
X118749893Y-153021859D01*
X118551261Y-153501399D01*
X118450000Y-154010475D01*
X115465000Y-154010475D01*
X115363739Y-153501399D01*
X115165107Y-153021859D01*
X114876738Y-152590285D01*
X114509715Y-152223262D01*
X114078141Y-151934893D01*
X113598601Y-151736261D01*
X113089525Y-151635000D01*
X112570475Y-151635000D01*
X112061399Y-151736261D01*
X111581859Y-151934893D01*
X111150285Y-152223262D01*
X110783262Y-152590285D01*
X110494893Y-153021859D01*
X110296261Y-153501399D01*
X110195000Y-154010475D01*
X107213072Y-154010475D01*
X107213072Y-152270000D01*
X107200812Y-152145518D01*
X107164502Y-152025820D01*
X107105537Y-151915506D01*
X107026185Y-151818815D01*
X106929494Y-151739463D01*
X106819180Y-151680498D01*
X106699482Y-151644188D01*
X106575000Y-151631928D01*
X102575000Y-151631928D01*
X102450518Y-151644188D01*
X102330820Y-151680498D01*
X102220506Y-151739463D01*
X102123815Y-151818815D01*
X102044463Y-151915506D01*
X101985498Y-152025820D01*
X101949188Y-152145518D01*
X101936928Y-152270000D01*
X100660000Y-152270000D01*
X100660000Y-143725701D01*
X103215000Y-143725701D01*
X103215000Y-144274299D01*
X103322026Y-144812354D01*
X103531965Y-145319192D01*
X103836750Y-145775334D01*
X104224666Y-146163250D01*
X104680808Y-146468035D01*
X105187646Y-146677974D01*
X105725701Y-146785000D01*
X106274299Y-146785000D01*
X106812354Y-146677974D01*
X107319192Y-146468035D01*
X107775334Y-146163250D01*
X108163250Y-145775334D01*
X108468035Y-145319192D01*
X108642473Y-144898061D01*
X128965000Y-144898061D01*
X128965000Y-145101939D01*
X129004774Y-145301898D01*
X129082795Y-145490256D01*
X129196063Y-145659774D01*
X129340226Y-145803937D01*
X129509744Y-145917205D01*
X129698102Y-145995226D01*
X129898061Y-146035000D01*
X130101939Y-146035000D01*
X130301898Y-145995226D01*
X130490256Y-145917205D01*
X130659774Y-145803937D01*
X130803937Y-145659774D01*
X130917205Y-145490256D01*
X130995226Y-145301898D01*
X131035000Y-145101939D01*
X131035000Y-144898061D01*
X130995226Y-144698102D01*
X130917205Y-144509744D01*
X130803937Y-144340226D01*
X130659774Y-144196063D01*
X130490256Y-144082795D01*
X130301898Y-144004774D01*
X130101939Y-143965000D01*
X129898061Y-143965000D01*
X129698102Y-144004774D01*
X129509744Y-144082795D01*
X129340226Y-144196063D01*
X129196063Y-144340226D01*
X129082795Y-144509744D01*
X129004774Y-144698102D01*
X128965000Y-144898061D01*
X108642473Y-144898061D01*
X108677974Y-144812354D01*
X108785000Y-144274299D01*
X108785000Y-143725701D01*
X108677974Y-143187646D01*
X108468035Y-142680808D01*
X108163250Y-142224666D01*
X107775334Y-141836750D01*
X107319192Y-141531965D01*
X106812354Y-141322026D01*
X106274299Y-141215000D01*
X105725701Y-141215000D01*
X105187646Y-141322026D01*
X104680808Y-141531965D01*
X104224666Y-141836750D01*
X103836750Y-142224666D01*
X103531965Y-142680808D01*
X103322026Y-143187646D01*
X103215000Y-143725701D01*
X100660000Y-143725701D01*
X100660000Y-129500500D01*
X131611928Y-129500500D01*
X131611928Y-130499500D01*
X131629002Y-130672852D01*
X131679567Y-130839542D01*
X131761679Y-130993164D01*
X131872185Y-131127815D01*
X132006836Y-131238321D01*
X132160458Y-131320433D01*
X132327148Y-131370998D01*
X132500500Y-131388072D01*
X133499500Y-131388072D01*
X133672852Y-131370998D01*
X133839542Y-131320433D01*
X133993164Y-131238321D01*
X134127815Y-131127815D01*
X134238321Y-130993164D01*
X134320433Y-130839542D01*
X134370998Y-130672852D01*
X134388072Y-130499500D01*
X134388072Y-129863589D01*
X136695000Y-129863589D01*
X136695000Y-130136411D01*
X136748225Y-130403989D01*
X136852629Y-130656043D01*
X137004201Y-130882886D01*
X137197114Y-131075799D01*
X137423957Y-131227371D01*
X137676011Y-131331775D01*
X137943589Y-131385000D01*
X138216411Y-131385000D01*
X138483989Y-131331775D01*
X138736043Y-131227371D01*
X138962886Y-131075799D01*
X139155799Y-130882886D01*
X139307371Y-130656043D01*
X139411775Y-130403989D01*
X139465000Y-130136411D01*
X139465000Y-129863589D01*
X139432560Y-129700500D01*
X161511928Y-129700500D01*
X161511928Y-130699500D01*
X161529002Y-130872852D01*
X161579567Y-131039542D01*
X161661679Y-131193164D01*
X161772185Y-131327815D01*
X161906836Y-131438321D01*
X162060458Y-131520433D01*
X162227148Y-131570998D01*
X162400500Y-131588072D01*
X163399500Y-131588072D01*
X163572852Y-131570998D01*
X163739542Y-131520433D01*
X163893164Y-131438321D01*
X164027815Y-131327815D01*
X164138321Y-131193164D01*
X164220433Y-131039542D01*
X164270998Y-130872852D01*
X164288072Y-130699500D01*
X164288072Y-130063589D01*
X166595000Y-130063589D01*
X166595000Y-130336411D01*
X166648225Y-130603989D01*
X166752629Y-130856043D01*
X166904201Y-131082886D01*
X167097114Y-131275799D01*
X167323957Y-131427371D01*
X167576011Y-131531775D01*
X167843589Y-131585000D01*
X168116411Y-131585000D01*
X168383989Y-131531775D01*
X168636043Y-131427371D01*
X168862886Y-131275799D01*
X169055799Y-131082886D01*
X169207371Y-130856043D01*
X169311775Y-130603989D01*
X169365000Y-130336411D01*
X169365000Y-130063589D01*
X169311775Y-129796011D01*
X169207371Y-129543957D01*
X169055799Y-129317114D01*
X168862886Y-129124201D01*
X168636043Y-128972629D01*
X168383989Y-128868225D01*
X168116411Y-128815000D01*
X167843589Y-128815000D01*
X167576011Y-128868225D01*
X167323957Y-128972629D01*
X167097114Y-129124201D01*
X166904201Y-129317114D01*
X166752629Y-129543957D01*
X166648225Y-129796011D01*
X166595000Y-130063589D01*
X164288072Y-130063589D01*
X164288072Y-129700500D01*
X164270998Y-129527148D01*
X164220433Y-129360458D01*
X164138321Y-129206836D01*
X164027815Y-129072185D01*
X163893164Y-128961679D01*
X163739542Y-128879567D01*
X163572852Y-128829002D01*
X163399500Y-128811928D01*
X162400500Y-128811928D01*
X162227148Y-128829002D01*
X162060458Y-128879567D01*
X161906836Y-128961679D01*
X161772185Y-129072185D01*
X161661679Y-129206836D01*
X161579567Y-129360458D01*
X161529002Y-129527148D01*
X161511928Y-129700500D01*
X139432560Y-129700500D01*
X139411775Y-129596011D01*
X139307371Y-129343957D01*
X139155799Y-129117114D01*
X138962886Y-128924201D01*
X138736043Y-128772629D01*
X138483989Y-128668225D01*
X138216411Y-128615000D01*
X137943589Y-128615000D01*
X137676011Y-128668225D01*
X137423957Y-128772629D01*
X137197114Y-128924201D01*
X137004201Y-129117114D01*
X136852629Y-129343957D01*
X136748225Y-129596011D01*
X136695000Y-129863589D01*
X134388072Y-129863589D01*
X134388072Y-129500500D01*
X134370998Y-129327148D01*
X134320433Y-129160458D01*
X134238321Y-129006836D01*
X134127815Y-128872185D01*
X133993164Y-128761679D01*
X133839542Y-128679567D01*
X133672852Y-128629002D01*
X133499500Y-128611928D01*
X132500500Y-128611928D01*
X132327148Y-128629002D01*
X132160458Y-128679567D01*
X132006836Y-128761679D01*
X131872185Y-128872185D01*
X131761679Y-129006836D01*
X131679567Y-129160458D01*
X131629002Y-129327148D01*
X131611928Y-129500500D01*
X100660000Y-129500500D01*
X100660000Y-99800000D01*
X131159994Y-99800000D01*
X131165000Y-99850828D01*
X131165001Y-118349162D01*
X131159994Y-118400000D01*
X131179977Y-118602895D01*
X131239160Y-118797993D01*
X131335266Y-118977797D01*
X131432197Y-119095907D01*
X131464605Y-119135396D01*
X131504092Y-119167802D01*
X133196063Y-120859774D01*
X133340226Y-121003937D01*
X133382712Y-121032325D01*
X133422202Y-121064734D01*
X133467256Y-121088816D01*
X133509744Y-121117205D01*
X133556959Y-121136762D01*
X133602006Y-121160840D01*
X133650881Y-121175666D01*
X133698102Y-121195226D01*
X133748229Y-121205197D01*
X133797104Y-121220023D01*
X133847934Y-121225029D01*
X133898061Y-121235000D01*
X133949171Y-121235000D01*
X133999999Y-121240006D01*
X134050827Y-121235000D01*
X134101939Y-121235000D01*
X134152068Y-121225029D01*
X134202894Y-121220023D01*
X134251766Y-121205198D01*
X134301898Y-121195226D01*
X134349123Y-121175665D01*
X134397993Y-121160840D01*
X134443036Y-121136764D01*
X134490256Y-121117205D01*
X134532748Y-121088813D01*
X134577797Y-121064734D01*
X134617281Y-121032330D01*
X134659774Y-121003937D01*
X134695916Y-120967795D01*
X134735395Y-120935395D01*
X134767795Y-120895916D01*
X134803937Y-120859774D01*
X134832330Y-120817281D01*
X134864734Y-120777797D01*
X134888813Y-120732748D01*
X134917205Y-120690256D01*
X134936764Y-120643036D01*
X134960840Y-120597993D01*
X134975665Y-120549123D01*
X134995226Y-120501898D01*
X135005198Y-120451766D01*
X135020023Y-120402894D01*
X135025029Y-120352068D01*
X135035000Y-120301939D01*
X135035000Y-120250827D01*
X135040006Y-120199999D01*
X135035000Y-120149171D01*
X135035000Y-120098061D01*
X135025029Y-120047934D01*
X135020023Y-119997104D01*
X135005197Y-119948229D01*
X134995226Y-119898102D01*
X134975666Y-119850881D01*
X134960840Y-119802006D01*
X134936762Y-119756959D01*
X134917205Y-119709744D01*
X134888816Y-119667256D01*
X134864734Y-119622202D01*
X134832325Y-119582712D01*
X134803937Y-119540226D01*
X134659774Y-119396063D01*
X133235000Y-117971290D01*
X133235000Y-117578712D01*
X133752195Y-118095908D01*
X133784602Y-118135396D01*
X133824090Y-118167803D01*
X133942200Y-118264734D01*
X134038307Y-118316104D01*
X134122005Y-118360841D01*
X134317103Y-118420024D01*
X134469160Y-118435000D01*
X134469163Y-118435000D01*
X134519998Y-118440007D01*
X134570833Y-118435000D01*
X137501939Y-118435000D01*
X137552057Y-118425031D01*
X137602895Y-118420024D01*
X137651777Y-118405196D01*
X137701898Y-118395226D01*
X137749113Y-118375669D01*
X137797993Y-118360841D01*
X137843042Y-118336762D01*
X137890256Y-118317205D01*
X137932746Y-118288814D01*
X137977797Y-118264734D01*
X138017284Y-118232328D01*
X138059774Y-118203937D01*
X138095908Y-118167803D01*
X138135396Y-118135396D01*
X138167803Y-118095908D01*
X138203937Y-118059774D01*
X138232328Y-118017284D01*
X138264734Y-117977797D01*
X138288814Y-117932746D01*
X138317205Y-117890256D01*
X138336762Y-117843042D01*
X138360841Y-117797993D01*
X138375669Y-117749113D01*
X138395226Y-117701898D01*
X138405196Y-117651777D01*
X138420024Y-117602895D01*
X138425031Y-117552057D01*
X138435000Y-117501939D01*
X138435000Y-117450838D01*
X138440007Y-117400000D01*
X138435000Y-117349162D01*
X138435000Y-117298061D01*
X190765000Y-117298061D01*
X190765000Y-117501939D01*
X190804774Y-117701898D01*
X190882795Y-117890256D01*
X190996063Y-118059774D01*
X191140226Y-118203937D01*
X191309744Y-118317205D01*
X191498102Y-118395226D01*
X191698061Y-118435000D01*
X191901939Y-118435000D01*
X192101898Y-118395226D01*
X192290256Y-118317205D01*
X192459774Y-118203937D01*
X192603937Y-118059774D01*
X192717205Y-117890256D01*
X192795226Y-117701898D01*
X192835000Y-117501939D01*
X192835000Y-117298061D01*
X192795226Y-117098102D01*
X192717205Y-116909744D01*
X192603937Y-116740226D01*
X192459774Y-116596063D01*
X192290256Y-116482795D01*
X192101898Y-116404774D01*
X191901939Y-116365000D01*
X191698061Y-116365000D01*
X191498102Y-116404774D01*
X191309744Y-116482795D01*
X191140226Y-116596063D01*
X190996063Y-116740226D01*
X190882795Y-116909744D01*
X190804774Y-117098102D01*
X190765000Y-117298061D01*
X138435000Y-117298061D01*
X138425031Y-117247943D01*
X138423756Y-117235000D01*
X187901939Y-117235000D01*
X187952057Y-117225031D01*
X188002895Y-117220024D01*
X188051777Y-117205196D01*
X188101898Y-117195226D01*
X188149113Y-117175669D01*
X188197993Y-117160841D01*
X188243042Y-117136762D01*
X188290256Y-117117205D01*
X188332746Y-117088814D01*
X188377797Y-117064734D01*
X188417284Y-117032328D01*
X188459774Y-117003937D01*
X188495908Y-116967803D01*
X188535396Y-116935396D01*
X188567803Y-116895908D01*
X188603937Y-116859774D01*
X188632328Y-116817284D01*
X188664734Y-116777797D01*
X188688814Y-116732746D01*
X188717205Y-116690256D01*
X188736762Y-116643042D01*
X188760841Y-116597993D01*
X188775669Y-116549113D01*
X188795226Y-116501898D01*
X188805196Y-116451777D01*
X188820024Y-116402895D01*
X188825031Y-116352057D01*
X188835000Y-116301939D01*
X188835000Y-116250838D01*
X188840007Y-116200000D01*
X188835000Y-116149162D01*
X188835000Y-116098061D01*
X188825031Y-116047943D01*
X188820024Y-115997105D01*
X188805196Y-115948223D01*
X188795226Y-115898102D01*
X188775669Y-115850887D01*
X188760841Y-115802007D01*
X188736762Y-115756958D01*
X188717205Y-115709744D01*
X188688814Y-115667254D01*
X188664734Y-115622203D01*
X188632328Y-115582716D01*
X188603937Y-115540226D01*
X188567803Y-115504092D01*
X188535396Y-115464604D01*
X188495908Y-115432197D01*
X188459774Y-115396063D01*
X188417284Y-115367672D01*
X188377797Y-115335266D01*
X188332746Y-115311186D01*
X188290256Y-115282795D01*
X188243042Y-115263238D01*
X188197993Y-115239159D01*
X188149113Y-115224331D01*
X188101898Y-115204774D01*
X188051777Y-115194804D01*
X188002895Y-115179976D01*
X187952057Y-115174969D01*
X187901939Y-115165000D01*
X134698061Y-115165000D01*
X134647943Y-115174969D01*
X134635000Y-115176244D01*
X134635000Y-113698061D01*
X134625031Y-113647943D01*
X134620024Y-113597105D01*
X134605196Y-113548223D01*
X134595226Y-113498102D01*
X134575669Y-113450887D01*
X134560841Y-113402007D01*
X134536762Y-113356958D01*
X134517205Y-113309744D01*
X134488814Y-113267254D01*
X134464734Y-113222203D01*
X134432328Y-113182716D01*
X134403937Y-113140226D01*
X134367803Y-113104092D01*
X134335396Y-113064604D01*
X134295908Y-113032197D01*
X134259774Y-112996063D01*
X134217284Y-112967672D01*
X134177797Y-112935266D01*
X134132746Y-112911186D01*
X134090256Y-112882795D01*
X134043042Y-112863238D01*
X133997993Y-112839159D01*
X133949113Y-112824331D01*
X133901898Y-112804774D01*
X133851777Y-112794804D01*
X133802895Y-112779976D01*
X133752057Y-112774969D01*
X133701939Y-112765000D01*
X133650838Y-112765000D01*
X133600000Y-112759993D01*
X133549162Y-112765000D01*
X133498061Y-112765000D01*
X133447942Y-112774969D01*
X133397106Y-112779976D01*
X133348226Y-112794804D01*
X133298102Y-112804774D01*
X133250884Y-112824332D01*
X133235000Y-112829151D01*
X133235000Y-100228710D01*
X140095908Y-93367803D01*
X140135396Y-93335396D01*
X140167803Y-93295908D01*
X140264734Y-93177798D01*
X140360840Y-92997994D01*
X140360841Y-92997993D01*
X140420024Y-92802895D01*
X140435000Y-92650838D01*
X140435000Y-92650835D01*
X140440007Y-92600000D01*
X140435000Y-92549165D01*
X140435000Y-79098061D01*
X140425031Y-79047943D01*
X140420024Y-78997105D01*
X140405196Y-78948223D01*
X140395226Y-78898102D01*
X140375669Y-78850887D01*
X140360841Y-78802007D01*
X140336762Y-78756958D01*
X140317205Y-78709744D01*
X140288814Y-78667254D01*
X140264734Y-78622203D01*
X140232328Y-78582716D01*
X140203937Y-78540226D01*
X140167803Y-78504092D01*
X140135396Y-78464604D01*
X140095908Y-78432197D01*
X140059774Y-78396063D01*
X140017284Y-78367672D01*
X139977797Y-78335266D01*
X139932747Y-78311186D01*
X139890256Y-78282795D01*
X139843039Y-78263237D01*
X139797992Y-78239159D01*
X139749116Y-78224332D01*
X139701898Y-78204774D01*
X139651774Y-78194804D01*
X139602894Y-78179976D01*
X139552058Y-78174969D01*
X139501939Y-78165000D01*
X139450838Y-78165000D01*
X139400000Y-78159993D01*
X139349162Y-78165000D01*
X139298061Y-78165000D01*
X139247943Y-78174969D01*
X139197105Y-78179976D01*
X139148223Y-78194804D01*
X139098102Y-78204774D01*
X139050887Y-78224331D01*
X139002007Y-78239159D01*
X138956958Y-78263238D01*
X138909744Y-78282795D01*
X138867254Y-78311186D01*
X138822203Y-78335266D01*
X138782716Y-78367672D01*
X138740226Y-78396063D01*
X138704092Y-78432197D01*
X138664604Y-78464604D01*
X138632197Y-78504092D01*
X138596063Y-78540226D01*
X138567672Y-78582716D01*
X138535266Y-78622203D01*
X138511186Y-78667253D01*
X138482795Y-78709744D01*
X138463237Y-78756961D01*
X138439159Y-78802008D01*
X138424332Y-78850884D01*
X138404774Y-78898102D01*
X138394804Y-78948226D01*
X138379976Y-78997106D01*
X138374969Y-79047942D01*
X138365000Y-79098061D01*
X138365000Y-79149163D01*
X138365001Y-92171288D01*
X131504097Y-99032193D01*
X131464604Y-99064604D01*
X131335266Y-99222203D01*
X131239159Y-99402008D01*
X131179976Y-99597106D01*
X131165000Y-99749163D01*
X131165000Y-99749172D01*
X131159994Y-99800000D01*
X100660000Y-99800000D01*
X100660000Y-89567475D01*
X108065000Y-89567475D01*
X108065000Y-90086525D01*
X108166261Y-90595601D01*
X108364893Y-91075141D01*
X108653262Y-91506715D01*
X109020285Y-91873738D01*
X109451859Y-92162107D01*
X109931399Y-92360739D01*
X110440475Y-92462000D01*
X110959525Y-92462000D01*
X111468601Y-92360739D01*
X111948141Y-92162107D01*
X112379715Y-91873738D01*
X112746738Y-91506715D01*
X113035107Y-91075141D01*
X113233739Y-90595601D01*
X113335000Y-90086525D01*
X113335000Y-89567475D01*
X113233739Y-89058399D01*
X113035107Y-88578859D01*
X112746738Y-88147285D01*
X112379715Y-87780262D01*
X111948141Y-87491893D01*
X111468601Y-87293261D01*
X110959525Y-87192000D01*
X110440475Y-87192000D01*
X109931399Y-87293261D01*
X109451859Y-87491893D01*
X109020285Y-87780262D01*
X108653262Y-88147285D01*
X108364893Y-88578859D01*
X108166261Y-89058399D01*
X108065000Y-89567475D01*
X100660000Y-89567475D01*
X100660000Y-83572000D01*
X108061928Y-83572000D01*
X108074188Y-83696482D01*
X108110498Y-83816180D01*
X108169463Y-83926494D01*
X108248815Y-84023185D01*
X108345506Y-84102537D01*
X108455820Y-84161502D01*
X108575518Y-84197812D01*
X108700000Y-84210072D01*
X110414250Y-84207000D01*
X110573000Y-84048250D01*
X110573000Y-81699000D01*
X110827000Y-81699000D01*
X110827000Y-84048250D01*
X110985750Y-84207000D01*
X112700000Y-84210072D01*
X112824482Y-84197812D01*
X112944180Y-84161502D01*
X113054494Y-84102537D01*
X113151185Y-84023185D01*
X113230537Y-83926494D01*
X113289502Y-83816180D01*
X113325812Y-83696482D01*
X113338072Y-83572000D01*
X113335000Y-81857750D01*
X113176250Y-81699000D01*
X110827000Y-81699000D01*
X110573000Y-81699000D01*
X108223750Y-81699000D01*
X108065000Y-81857750D01*
X108061928Y-83572000D01*
X100660000Y-83572000D01*
X100660000Y-81648061D01*
X127965000Y-81648061D01*
X127965000Y-81851939D01*
X128004774Y-82051898D01*
X128082795Y-82240256D01*
X128089306Y-82250000D01*
X128082795Y-82259744D01*
X128004774Y-82448102D01*
X127965000Y-82648061D01*
X127965000Y-82851939D01*
X128004774Y-83051898D01*
X128082795Y-83240256D01*
X128196063Y-83409774D01*
X128340226Y-83553937D01*
X128509744Y-83667205D01*
X128698102Y-83745226D01*
X128898061Y-83785000D01*
X129101939Y-83785000D01*
X129301898Y-83745226D01*
X129490256Y-83667205D01*
X129659774Y-83553937D01*
X129803937Y-83409774D01*
X129917205Y-83240256D01*
X129995226Y-83051898D01*
X130035000Y-82851939D01*
X130035000Y-82648061D01*
X129995226Y-82448102D01*
X129917205Y-82259744D01*
X129910694Y-82250000D01*
X129917205Y-82240256D01*
X129995226Y-82051898D01*
X130035000Y-81851939D01*
X130035000Y-81648061D01*
X129995226Y-81448102D01*
X129917205Y-81259744D01*
X129803937Y-81090226D01*
X129659774Y-80946063D01*
X129490256Y-80832795D01*
X129301898Y-80754774D01*
X129101939Y-80715000D01*
X128898061Y-80715000D01*
X128698102Y-80754774D01*
X128509744Y-80832795D01*
X128340226Y-80946063D01*
X128196063Y-81090226D01*
X128082795Y-81259744D01*
X128004774Y-81448102D01*
X127965000Y-81648061D01*
X100660000Y-81648061D01*
X100660000Y-79572000D01*
X108061928Y-79572000D01*
X108065000Y-81286250D01*
X108223750Y-81445000D01*
X110573000Y-81445000D01*
X110573000Y-79095750D01*
X110827000Y-79095750D01*
X110827000Y-81445000D01*
X113176250Y-81445000D01*
X113335000Y-81286250D01*
X113338072Y-79572000D01*
X113325812Y-79447518D01*
X113289502Y-79327820D01*
X113230537Y-79217506D01*
X113151185Y-79120815D01*
X113054494Y-79041463D01*
X112944180Y-78982498D01*
X112824482Y-78946188D01*
X112700000Y-78933928D01*
X110985750Y-78937000D01*
X110827000Y-79095750D01*
X110573000Y-79095750D01*
X110414250Y-78937000D01*
X108700000Y-78933928D01*
X108575518Y-78946188D01*
X108455820Y-78982498D01*
X108345506Y-79041463D01*
X108248815Y-79120815D01*
X108169463Y-79217506D01*
X108110498Y-79327820D01*
X108074188Y-79447518D01*
X108061928Y-79572000D01*
X100660000Y-79572000D01*
X100660000Y-70725701D01*
X103215000Y-70725701D01*
X103215000Y-71274299D01*
X103322026Y-71812354D01*
X103531965Y-72319192D01*
X103836750Y-72775334D01*
X104224666Y-73163250D01*
X104680808Y-73468035D01*
X105187646Y-73677974D01*
X105725701Y-73785000D01*
X106274299Y-73785000D01*
X106812354Y-73677974D01*
X107319192Y-73468035D01*
X107775334Y-73163250D01*
X108163250Y-72775334D01*
X108248291Y-72648061D01*
X125965000Y-72648061D01*
X125965000Y-72851939D01*
X126004774Y-73051898D01*
X126082795Y-73240256D01*
X126196063Y-73409774D01*
X126340226Y-73553937D01*
X126509744Y-73667205D01*
X126698102Y-73745226D01*
X126898061Y-73785000D01*
X126987489Y-73785000D01*
X126965000Y-73898061D01*
X126965000Y-74101939D01*
X127004774Y-74301898D01*
X127082795Y-74490256D01*
X127172828Y-74625000D01*
X127082795Y-74759744D01*
X127004774Y-74948102D01*
X126965000Y-75148061D01*
X126965000Y-75215000D01*
X126898061Y-75215000D01*
X126698102Y-75254774D01*
X126509744Y-75332795D01*
X126340226Y-75446063D01*
X126196063Y-75590226D01*
X126082795Y-75759744D01*
X126004774Y-75948102D01*
X125965000Y-76148061D01*
X125965000Y-76351939D01*
X126004774Y-76551898D01*
X126082795Y-76740256D01*
X126196063Y-76909774D01*
X126340226Y-77053937D01*
X126509744Y-77167205D01*
X126698102Y-77245226D01*
X126898061Y-77285000D01*
X127101939Y-77285000D01*
X127301898Y-77245226D01*
X127490256Y-77167205D01*
X127659774Y-77053937D01*
X127803937Y-76909774D01*
X127877285Y-76800000D01*
X137159994Y-76800000D01*
X137165000Y-76850828D01*
X137165000Y-76901939D01*
X137174971Y-76952067D01*
X137179977Y-77002895D01*
X137194803Y-77051768D01*
X137204774Y-77101898D01*
X137224335Y-77149122D01*
X137239160Y-77197993D01*
X137263236Y-77243036D01*
X137282795Y-77290256D01*
X137311187Y-77332748D01*
X137335266Y-77377797D01*
X137367672Y-77417284D01*
X137396063Y-77459774D01*
X137432197Y-77495908D01*
X137464604Y-77535396D01*
X137504092Y-77567803D01*
X137540226Y-77603937D01*
X137582716Y-77632328D01*
X137622203Y-77664734D01*
X137667252Y-77688813D01*
X137709744Y-77717205D01*
X137756964Y-77736764D01*
X137802007Y-77760840D01*
X137850878Y-77775665D01*
X137898102Y-77795226D01*
X137948232Y-77805197D01*
X137997105Y-77820023D01*
X138047933Y-77825029D01*
X138098061Y-77835000D01*
X138149172Y-77835000D01*
X138200000Y-77840006D01*
X138250828Y-77835000D01*
X138301939Y-77835000D01*
X138352067Y-77825029D01*
X138402895Y-77820023D01*
X138451768Y-77805197D01*
X138501898Y-77795226D01*
X138549122Y-77775665D01*
X138597993Y-77760840D01*
X138643036Y-77736764D01*
X138690256Y-77717205D01*
X138732748Y-77688813D01*
X138777797Y-77664734D01*
X138817283Y-77632329D01*
X138859774Y-77603937D01*
X139003937Y-77459774D01*
X139003939Y-77459771D01*
X140028711Y-76435000D01*
X141697435Y-76435000D01*
X141665000Y-76598061D01*
X141665000Y-76801939D01*
X141704774Y-77001898D01*
X141782795Y-77190256D01*
X141889532Y-77350000D01*
X141782795Y-77509744D01*
X141704774Y-77698102D01*
X141665000Y-77898061D01*
X141665000Y-78101939D01*
X141704774Y-78301898D01*
X141782795Y-78490256D01*
X141896063Y-78659774D01*
X141936289Y-78700000D01*
X141896063Y-78740226D01*
X141782795Y-78909744D01*
X141704774Y-79098102D01*
X141665000Y-79298061D01*
X141665000Y-79501939D01*
X141704774Y-79701898D01*
X141782795Y-79890256D01*
X141896063Y-80059774D01*
X142040226Y-80203937D01*
X142209744Y-80317205D01*
X142398102Y-80395226D01*
X142598061Y-80435000D01*
X142801939Y-80435000D01*
X143001898Y-80395226D01*
X143052130Y-80374419D01*
X148486161Y-85808451D01*
X148531993Y-85959540D01*
X148618814Y-86121972D01*
X148735656Y-86264344D01*
X148878028Y-86381186D01*
X149040460Y-86468007D01*
X149191549Y-86513839D01*
X149771333Y-87093623D01*
X149878028Y-87181185D01*
X150040459Y-87268006D01*
X150216707Y-87321471D01*
X150399999Y-87339524D01*
X150583291Y-87321471D01*
X150759540Y-87268006D01*
X150921971Y-87181185D01*
X151064343Y-87064343D01*
X151181185Y-86921971D01*
X151268006Y-86759540D01*
X151321471Y-86583291D01*
X151326227Y-86535000D01*
X159965000Y-86535000D01*
X159965000Y-86701939D01*
X160004774Y-86901898D01*
X160082795Y-87090256D01*
X160196063Y-87259774D01*
X160340226Y-87403937D01*
X160509744Y-87517205D01*
X160655142Y-87577431D01*
X163722569Y-90644859D01*
X163782795Y-90790256D01*
X163896063Y-90959774D01*
X164040226Y-91103937D01*
X164209744Y-91217205D01*
X164355142Y-91277431D01*
X170822569Y-97744859D01*
X170882795Y-97890256D01*
X170996063Y-98059774D01*
X171140226Y-98203937D01*
X171309744Y-98317205D01*
X171498102Y-98395226D01*
X171698061Y-98435000D01*
X171901939Y-98435000D01*
X172101898Y-98395226D01*
X172290256Y-98317205D01*
X172459774Y-98203937D01*
X172603937Y-98059774D01*
X172717205Y-97890256D01*
X172795226Y-97701898D01*
X172817750Y-97588660D01*
X172990256Y-97517205D01*
X173159774Y-97403937D01*
X173303937Y-97259774D01*
X173417205Y-97090256D01*
X173495226Y-96901898D01*
X173535000Y-96701939D01*
X173535000Y-96498061D01*
X173495226Y-96298102D01*
X173417205Y-96109744D01*
X173303937Y-95940226D01*
X173159774Y-95796063D01*
X172990256Y-95682795D01*
X172844859Y-95622569D01*
X164254350Y-87032060D01*
X169831001Y-87032060D01*
X169831001Y-87235938D01*
X169870775Y-87435897D01*
X169948796Y-87624255D01*
X170062064Y-87793773D01*
X170206227Y-87937936D01*
X170375745Y-88051204D01*
X170521143Y-88111430D01*
X171073001Y-88663288D01*
X170996063Y-88740226D01*
X170882795Y-88909744D01*
X170804774Y-89098102D01*
X170765000Y-89298061D01*
X170765000Y-89501939D01*
X170804774Y-89701898D01*
X170882795Y-89890256D01*
X170996063Y-90059774D01*
X171140226Y-90203937D01*
X171309744Y-90317205D01*
X171455142Y-90377431D01*
X177265001Y-96187290D01*
X177265000Y-100040083D01*
X177265001Y-100040093D01*
X177265000Y-109152704D01*
X177204774Y-109298102D01*
X177165000Y-109498061D01*
X177165000Y-109701939D01*
X177204774Y-109901898D01*
X177282795Y-110090256D01*
X177396063Y-110259774D01*
X177540226Y-110403937D01*
X177709744Y-110517205D01*
X177898102Y-110595226D01*
X178098061Y-110635000D01*
X178301939Y-110635000D01*
X178501898Y-110595226D01*
X178690256Y-110517205D01*
X178859774Y-110403937D01*
X178900000Y-110363711D01*
X178940226Y-110403937D01*
X179109744Y-110517205D01*
X179298102Y-110595226D01*
X179498061Y-110635000D01*
X179701939Y-110635000D01*
X179901898Y-110595226D01*
X180090256Y-110517205D01*
X180259774Y-110403937D01*
X180400000Y-110263711D01*
X180540226Y-110403937D01*
X180709744Y-110517205D01*
X180898102Y-110595226D01*
X181098061Y-110635000D01*
X181301939Y-110635000D01*
X181501898Y-110595226D01*
X181690256Y-110517205D01*
X181859774Y-110403937D01*
X181900000Y-110363711D01*
X181940226Y-110403937D01*
X182109744Y-110517205D01*
X182298102Y-110595226D01*
X182498061Y-110635000D01*
X182701939Y-110635000D01*
X182901898Y-110595226D01*
X183090256Y-110517205D01*
X183259774Y-110403937D01*
X183403937Y-110259774D01*
X183517205Y-110090256D01*
X183574471Y-109952004D01*
X183681186Y-109821972D01*
X183768007Y-109659540D01*
X183821471Y-109483292D01*
X183835000Y-109345932D01*
X183839524Y-109300001D01*
X183835000Y-109254069D01*
X183835000Y-96345924D01*
X183839523Y-96299999D01*
X183835000Y-96254074D01*
X183835000Y-96254068D01*
X183821471Y-96116708D01*
X183768007Y-95940460D01*
X183681186Y-95778028D01*
X183564344Y-95635656D01*
X183528666Y-95606376D01*
X174777431Y-86855142D01*
X174717205Y-86709744D01*
X174603937Y-86540226D01*
X174561772Y-86498061D01*
X187365000Y-86498061D01*
X187365000Y-86701939D01*
X187404774Y-86901898D01*
X187482795Y-87090256D01*
X187556123Y-87200000D01*
X187482795Y-87309744D01*
X187404774Y-87498102D01*
X187365000Y-87698061D01*
X187365000Y-87901939D01*
X187404774Y-88101898D01*
X187482795Y-88290256D01*
X187556123Y-88400000D01*
X187482795Y-88509744D01*
X187404774Y-88698102D01*
X187365000Y-88898061D01*
X187365000Y-89101939D01*
X187404774Y-89301898D01*
X187482795Y-89490256D01*
X187556123Y-89600000D01*
X187482795Y-89709744D01*
X187404774Y-89898102D01*
X187365000Y-90098061D01*
X187365000Y-90301939D01*
X187404774Y-90501898D01*
X187482795Y-90690256D01*
X187596063Y-90859774D01*
X187740226Y-91003937D01*
X187909744Y-91117205D01*
X188098102Y-91195226D01*
X188298061Y-91235000D01*
X188501939Y-91235000D01*
X188701898Y-91195226D01*
X188890256Y-91117205D01*
X189059774Y-91003937D01*
X189203937Y-90859774D01*
X189317205Y-90690256D01*
X189395226Y-90501898D01*
X189435000Y-90301939D01*
X189435000Y-90098061D01*
X189395226Y-89898102D01*
X189317205Y-89709744D01*
X189243877Y-89600000D01*
X189317205Y-89490256D01*
X189395226Y-89301898D01*
X189435000Y-89101939D01*
X189435000Y-88898061D01*
X189395226Y-88698102D01*
X189317205Y-88509744D01*
X189243877Y-88400000D01*
X189317205Y-88290256D01*
X189395226Y-88101898D01*
X189435000Y-87901939D01*
X189435000Y-87698061D01*
X189395226Y-87498102D01*
X189317205Y-87309744D01*
X189243877Y-87200000D01*
X189317205Y-87090256D01*
X189395226Y-86901898D01*
X189435000Y-86701939D01*
X189435000Y-86498061D01*
X189395226Y-86298102D01*
X189317205Y-86109744D01*
X189203937Y-85940226D01*
X189059774Y-85796063D01*
X188890256Y-85682795D01*
X188701898Y-85604774D01*
X188501939Y-85565000D01*
X188298061Y-85565000D01*
X188098102Y-85604774D01*
X187909744Y-85682795D01*
X187740226Y-85796063D01*
X187596063Y-85940226D01*
X187482795Y-86109744D01*
X187404774Y-86298102D01*
X187365000Y-86498061D01*
X174561772Y-86498061D01*
X174459774Y-86396063D01*
X174290256Y-86282795D01*
X174101898Y-86204774D01*
X173901939Y-86165000D01*
X173698061Y-86165000D01*
X173498102Y-86204774D01*
X173309744Y-86282795D01*
X173140226Y-86396063D01*
X172996063Y-86540226D01*
X172970409Y-86578619D01*
X172901939Y-86565000D01*
X172698061Y-86565000D01*
X172498102Y-86604774D01*
X172309744Y-86682795D01*
X172140226Y-86796063D01*
X171996063Y-86940226D01*
X171995444Y-86941153D01*
X171843432Y-86789141D01*
X171783206Y-86643743D01*
X171669938Y-86474225D01*
X171525775Y-86330062D01*
X171356257Y-86216794D01*
X171167899Y-86138773D01*
X170967940Y-86098999D01*
X170764062Y-86098999D01*
X170564103Y-86138773D01*
X170375745Y-86216794D01*
X170206227Y-86330062D01*
X170062064Y-86474225D01*
X169948796Y-86643743D01*
X169870775Y-86832101D01*
X169831001Y-87032060D01*
X164254350Y-87032060D01*
X162193630Y-84971341D01*
X162164344Y-84935656D01*
X162021972Y-84818814D01*
X161859540Y-84731993D01*
X161683292Y-84678529D01*
X161545932Y-84665000D01*
X161500000Y-84660476D01*
X161454068Y-84665000D01*
X151002565Y-84665000D01*
X151005196Y-84651777D01*
X151020024Y-84602895D01*
X151025031Y-84552057D01*
X151035000Y-84501939D01*
X151035000Y-83250827D01*
X151040006Y-83199999D01*
X151035000Y-83149171D01*
X151035000Y-83149162D01*
X151020024Y-82997105D01*
X150960841Y-82802007D01*
X150888788Y-82667205D01*
X150864734Y-82622202D01*
X150767803Y-82504092D01*
X150735396Y-82464604D01*
X150695908Y-82432197D01*
X150561772Y-82298061D01*
X164565000Y-82298061D01*
X164565000Y-82501939D01*
X164604774Y-82701898D01*
X164682795Y-82890256D01*
X164796063Y-83059774D01*
X164940226Y-83203937D01*
X165109744Y-83317205D01*
X165298102Y-83395226D01*
X165498061Y-83435000D01*
X165701939Y-83435000D01*
X165901898Y-83395226D01*
X166090256Y-83317205D01*
X166259774Y-83203937D01*
X166400000Y-83063711D01*
X166540226Y-83203937D01*
X166709744Y-83317205D01*
X166898102Y-83395226D01*
X167098061Y-83435000D01*
X167301939Y-83435000D01*
X167501898Y-83395226D01*
X167690256Y-83317205D01*
X167859774Y-83203937D01*
X168003937Y-83059774D01*
X168117205Y-82890256D01*
X168195226Y-82701898D01*
X168235000Y-82501939D01*
X168235000Y-82298061D01*
X168195226Y-82098102D01*
X168117205Y-81909744D01*
X168003937Y-81740226D01*
X167859774Y-81596063D01*
X167690256Y-81482795D01*
X167501898Y-81404774D01*
X167301939Y-81365000D01*
X167098061Y-81365000D01*
X166898102Y-81404774D01*
X166709744Y-81482795D01*
X166540226Y-81596063D01*
X166400000Y-81736289D01*
X166259774Y-81596063D01*
X166090256Y-81482795D01*
X165901898Y-81404774D01*
X165701939Y-81365000D01*
X165498061Y-81365000D01*
X165298102Y-81404774D01*
X165109744Y-81482795D01*
X164940226Y-81596063D01*
X164796063Y-81740226D01*
X164682795Y-81909744D01*
X164604774Y-82098102D01*
X164565000Y-82298061D01*
X150561772Y-82298061D01*
X147898711Y-79635001D01*
X155758981Y-79635001D01*
X155799999Y-79639041D01*
X155841017Y-79635001D01*
X155841018Y-79635001D01*
X155963688Y-79622919D01*
X156121086Y-79575173D01*
X156266145Y-79497637D01*
X156393290Y-79393292D01*
X156419445Y-79361422D01*
X156756775Y-79024093D01*
X156901898Y-78995226D01*
X157090256Y-78917205D01*
X157259774Y-78803937D01*
X157403937Y-78659774D01*
X157517205Y-78490256D01*
X157595226Y-78301898D01*
X157635000Y-78101939D01*
X157635000Y-77898061D01*
X157614591Y-77795459D01*
X157975908Y-78156775D01*
X158004774Y-78301898D01*
X158082795Y-78490256D01*
X158196063Y-78659774D01*
X158340226Y-78803937D01*
X158509744Y-78917205D01*
X158698102Y-78995226D01*
X158898061Y-79035000D01*
X159101939Y-79035000D01*
X159301898Y-78995226D01*
X159490256Y-78917205D01*
X159659774Y-78803937D01*
X159803937Y-78659774D01*
X159917205Y-78490256D01*
X159995226Y-78301898D01*
X160035000Y-78101939D01*
X160035000Y-77898061D01*
X159995226Y-77698102D01*
X159917205Y-77509744D01*
X159803937Y-77340226D01*
X159659774Y-77196063D01*
X159490256Y-77082795D01*
X159301898Y-77004774D01*
X159156775Y-76975908D01*
X158478928Y-76298061D01*
X163765000Y-76298061D01*
X163765000Y-76501939D01*
X163804774Y-76701898D01*
X163882795Y-76890256D01*
X163889306Y-76900000D01*
X163882795Y-76909744D01*
X163804774Y-77098102D01*
X163765000Y-77298061D01*
X163765000Y-77501939D01*
X163804774Y-77701898D01*
X163882795Y-77890256D01*
X163889306Y-77900000D01*
X163882795Y-77909744D01*
X163804774Y-78098102D01*
X163765000Y-78298061D01*
X163765000Y-78501939D01*
X163804774Y-78701898D01*
X163882795Y-78890256D01*
X163889306Y-78900000D01*
X163882795Y-78909744D01*
X163804774Y-79098102D01*
X163765000Y-79298061D01*
X163765000Y-79501939D01*
X163804774Y-79701898D01*
X163882795Y-79890256D01*
X163996063Y-80059774D01*
X164140226Y-80203937D01*
X164309744Y-80317205D01*
X164498102Y-80395226D01*
X164698061Y-80435000D01*
X164901939Y-80435000D01*
X165101898Y-80395226D01*
X165290256Y-80317205D01*
X165459774Y-80203937D01*
X165603937Y-80059774D01*
X165717205Y-79890256D01*
X165795226Y-79701898D01*
X165835000Y-79501939D01*
X165835000Y-79298061D01*
X165795226Y-79098102D01*
X165717205Y-78909744D01*
X165710694Y-78900000D01*
X165717205Y-78890256D01*
X165795226Y-78701898D01*
X165835000Y-78501939D01*
X165835000Y-78298061D01*
X165795226Y-78098102D01*
X165717205Y-77909744D01*
X165710694Y-77900000D01*
X165717205Y-77890256D01*
X165795226Y-77701898D01*
X165835000Y-77501939D01*
X165835000Y-77298061D01*
X165795226Y-77098102D01*
X165717205Y-76909744D01*
X165710694Y-76900000D01*
X165717205Y-76890256D01*
X165795226Y-76701898D01*
X165835000Y-76501939D01*
X165835000Y-76298061D01*
X165795226Y-76098102D01*
X165717205Y-75909744D01*
X165603937Y-75740226D01*
X165459774Y-75596063D01*
X165290256Y-75482795D01*
X165101898Y-75404774D01*
X164901939Y-75365000D01*
X164698061Y-75365000D01*
X164498102Y-75404774D01*
X164309744Y-75482795D01*
X164140226Y-75596063D01*
X163996063Y-75740226D01*
X163882795Y-75909744D01*
X163804774Y-76098102D01*
X163765000Y-76298061D01*
X158478928Y-76298061D01*
X158219440Y-76038573D01*
X158193290Y-76006709D01*
X158066145Y-75902364D01*
X157921086Y-75824828D01*
X157763688Y-75777082D01*
X157600000Y-75760960D01*
X157558981Y-75765000D01*
X150441027Y-75765002D01*
X150399998Y-75760961D01*
X150236310Y-75777083D01*
X150078912Y-75824829D01*
X149933854Y-75902365D01*
X149933852Y-75902366D01*
X149933853Y-75902366D01*
X149844568Y-75975640D01*
X149698102Y-76004774D01*
X149509744Y-76082795D01*
X149340226Y-76196063D01*
X149196063Y-76340226D01*
X149082795Y-76509744D01*
X149004774Y-76698102D01*
X148965000Y-76898061D01*
X148965000Y-77101939D01*
X148977544Y-77165001D01*
X147471573Y-77165002D01*
X147488813Y-77132748D01*
X147517205Y-77090256D01*
X147536764Y-77043036D01*
X147560840Y-76997993D01*
X147575665Y-76949123D01*
X147595226Y-76901898D01*
X147605198Y-76851766D01*
X147620023Y-76802894D01*
X147625029Y-76752068D01*
X147635000Y-76701939D01*
X147635000Y-76650827D01*
X147640006Y-76599999D01*
X147635000Y-76549171D01*
X147635000Y-76498061D01*
X147625029Y-76447934D01*
X147620023Y-76397104D01*
X147605197Y-76348229D01*
X147595226Y-76298102D01*
X147575666Y-76250881D01*
X147560840Y-76202006D01*
X147536762Y-76156959D01*
X147517205Y-76109744D01*
X147488816Y-76067256D01*
X147464734Y-76022202D01*
X147432325Y-75982712D01*
X147403937Y-75940226D01*
X147259774Y-75796063D01*
X146228242Y-74764531D01*
X181215074Y-74764531D01*
X181325921Y-75041714D01*
X181636840Y-75195089D01*
X181971705Y-75284860D01*
X182317650Y-75307576D01*
X182661380Y-75262366D01*
X182989685Y-75150966D01*
X183194079Y-75041714D01*
X183304926Y-74764531D01*
X186295074Y-74764531D01*
X186405921Y-75041714D01*
X186716840Y-75195089D01*
X187051705Y-75284860D01*
X187397650Y-75307576D01*
X187741380Y-75262366D01*
X188069685Y-75150966D01*
X188274079Y-75041714D01*
X188384926Y-74764531D01*
X187340000Y-73719605D01*
X186295074Y-74764531D01*
X183304926Y-74764531D01*
X182260000Y-73719605D01*
X181215074Y-74764531D01*
X146228242Y-74764531D01*
X146167807Y-74704097D01*
X146135396Y-74664604D01*
X145977797Y-74535266D01*
X145797993Y-74439159D01*
X145602895Y-74379976D01*
X145450838Y-74365000D01*
X145450828Y-74365000D01*
X145400000Y-74359994D01*
X145349172Y-74365000D01*
X139650835Y-74365000D01*
X139600000Y-74359993D01*
X139549164Y-74365000D01*
X139549162Y-74365000D01*
X139397105Y-74379976D01*
X139202007Y-74439159D01*
X139136676Y-74474079D01*
X139022202Y-74535266D01*
X138904092Y-74632197D01*
X138864604Y-74664604D01*
X138832197Y-74704092D01*
X137540229Y-75996061D01*
X137540226Y-75996063D01*
X137396063Y-76140226D01*
X137367671Y-76182717D01*
X137335266Y-76222203D01*
X137311187Y-76267252D01*
X137282795Y-76309744D01*
X137263236Y-76356964D01*
X137239160Y-76402007D01*
X137224335Y-76450878D01*
X137204774Y-76498102D01*
X137194803Y-76548232D01*
X137179977Y-76597105D01*
X137174971Y-76647933D01*
X137165000Y-76698061D01*
X137165000Y-76749172D01*
X137159994Y-76800000D01*
X127877285Y-76800000D01*
X127917205Y-76740256D01*
X127995226Y-76551898D01*
X128035000Y-76351939D01*
X128035000Y-76285000D01*
X128101939Y-76285000D01*
X128301898Y-76245226D01*
X128490256Y-76167205D01*
X128659774Y-76053937D01*
X128803937Y-75909774D01*
X128917205Y-75740256D01*
X128995226Y-75551898D01*
X129035000Y-75351939D01*
X129035000Y-75148061D01*
X128995226Y-74948102D01*
X128917205Y-74759744D01*
X128827172Y-74625000D01*
X128917205Y-74490256D01*
X128995226Y-74301898D01*
X129035000Y-74101939D01*
X129035000Y-73898061D01*
X128995226Y-73698102D01*
X128917205Y-73509744D01*
X128803937Y-73340226D01*
X128761772Y-73298061D01*
X164565000Y-73298061D01*
X164565000Y-73501939D01*
X164604774Y-73701898D01*
X164682795Y-73890256D01*
X164796063Y-74059774D01*
X164940226Y-74203937D01*
X165109744Y-74317205D01*
X165298102Y-74395226D01*
X165498061Y-74435000D01*
X165701939Y-74435000D01*
X165901898Y-74395226D01*
X166090256Y-74317205D01*
X166259774Y-74203937D01*
X166403937Y-74059774D01*
X166500000Y-73916005D01*
X166596063Y-74059774D01*
X166740226Y-74203937D01*
X166909744Y-74317205D01*
X167098102Y-74395226D01*
X167298061Y-74435000D01*
X167501939Y-74435000D01*
X167701898Y-74395226D01*
X167890256Y-74317205D01*
X168059774Y-74203937D01*
X168203937Y-74059774D01*
X168317205Y-73890256D01*
X168395226Y-73701898D01*
X168415962Y-73597650D01*
X180492424Y-73597650D01*
X180537634Y-73941380D01*
X180649034Y-74269685D01*
X180758286Y-74474079D01*
X181035469Y-74584926D01*
X182080395Y-73540000D01*
X182439605Y-73540000D01*
X183484531Y-74584926D01*
X183761714Y-74474079D01*
X183915089Y-74163160D01*
X184004860Y-73828295D01*
X184020004Y-73597650D01*
X185572424Y-73597650D01*
X185617634Y-73941380D01*
X185729034Y-74269685D01*
X185838286Y-74474079D01*
X186115469Y-74584926D01*
X187160395Y-73540000D01*
X187519605Y-73540000D01*
X188564531Y-74584926D01*
X188841714Y-74474079D01*
X188995089Y-74163160D01*
X189084860Y-73828295D01*
X189107576Y-73482350D01*
X189062366Y-73138620D01*
X188950966Y-72810315D01*
X188841714Y-72605921D01*
X188564531Y-72495074D01*
X187519605Y-73540000D01*
X187160395Y-73540000D01*
X186115469Y-72495074D01*
X185838286Y-72605921D01*
X185684911Y-72916840D01*
X185595140Y-73251705D01*
X185572424Y-73597650D01*
X184020004Y-73597650D01*
X184027576Y-73482350D01*
X183982366Y-73138620D01*
X183870966Y-72810315D01*
X183761714Y-72605921D01*
X183484531Y-72495074D01*
X182439605Y-73540000D01*
X182080395Y-73540000D01*
X181035469Y-72495074D01*
X180758286Y-72605921D01*
X180604911Y-72916840D01*
X180515140Y-73251705D01*
X180492424Y-73597650D01*
X168415962Y-73597650D01*
X168435000Y-73501939D01*
X168435000Y-73298061D01*
X168395226Y-73098102D01*
X168317205Y-72909744D01*
X168203937Y-72740226D01*
X168059774Y-72596063D01*
X168004548Y-72559163D01*
X168103937Y-72459774D01*
X168217205Y-72290256D01*
X168295226Y-72101898D01*
X168335000Y-71901939D01*
X168335000Y-71698061D01*
X169665000Y-71698061D01*
X169665000Y-71901939D01*
X169704774Y-72101898D01*
X169782795Y-72290256D01*
X169896063Y-72459774D01*
X170040226Y-72603937D01*
X170209744Y-72717205D01*
X170398102Y-72795226D01*
X170598061Y-72835000D01*
X170801939Y-72835000D01*
X171001898Y-72795226D01*
X171190256Y-72717205D01*
X171359774Y-72603937D01*
X171503937Y-72459774D01*
X171600358Y-72315469D01*
X181215074Y-72315469D01*
X182260000Y-73360395D01*
X183304926Y-72315469D01*
X183194079Y-72038286D01*
X182883160Y-71884911D01*
X182548295Y-71795140D01*
X182202350Y-71772424D01*
X181858620Y-71817634D01*
X181530315Y-71929034D01*
X181325921Y-72038286D01*
X181215074Y-72315469D01*
X171600358Y-72315469D01*
X171617205Y-72290256D01*
X171695226Y-72101898D01*
X171735000Y-71901939D01*
X171735000Y-71698061D01*
X171695226Y-71498102D01*
X171617205Y-71309744D01*
X171503937Y-71140226D01*
X171359774Y-70996063D01*
X171190256Y-70882795D01*
X171078501Y-70836504D01*
X183140000Y-70836504D01*
X183140000Y-71163496D01*
X183203793Y-71484204D01*
X183328927Y-71786305D01*
X183510594Y-72058188D01*
X183741812Y-72289406D01*
X184013695Y-72471073D01*
X184315796Y-72596207D01*
X184636504Y-72660000D01*
X184963496Y-72660000D01*
X185284204Y-72596207D01*
X185586305Y-72471073D01*
X185819182Y-72315469D01*
X186295074Y-72315469D01*
X187340000Y-73360395D01*
X188384926Y-72315469D01*
X188274079Y-72038286D01*
X187963160Y-71884911D01*
X187628295Y-71795140D01*
X187282350Y-71772424D01*
X186938620Y-71817634D01*
X186610315Y-71929034D01*
X186405921Y-72038286D01*
X186295074Y-72315469D01*
X185819182Y-72315469D01*
X185858188Y-72289406D01*
X186089406Y-72058188D01*
X186271073Y-71786305D01*
X186396207Y-71484204D01*
X186460000Y-71163496D01*
X186460000Y-70836504D01*
X186437960Y-70725701D01*
X191215000Y-70725701D01*
X191215000Y-71274299D01*
X191322026Y-71812354D01*
X191531965Y-72319192D01*
X191836750Y-72775334D01*
X192224666Y-73163250D01*
X192680808Y-73468035D01*
X193187646Y-73677974D01*
X193725701Y-73785000D01*
X194274299Y-73785000D01*
X194812354Y-73677974D01*
X195319192Y-73468035D01*
X195775334Y-73163250D01*
X196163250Y-72775334D01*
X196468035Y-72319192D01*
X196677974Y-71812354D01*
X196785000Y-71274299D01*
X196785000Y-70725701D01*
X196677974Y-70187646D01*
X196468035Y-69680808D01*
X196163250Y-69224666D01*
X195775334Y-68836750D01*
X195319192Y-68531965D01*
X194812354Y-68322026D01*
X194274299Y-68215000D01*
X193725701Y-68215000D01*
X193187646Y-68322026D01*
X192680808Y-68531965D01*
X192224666Y-68836750D01*
X191836750Y-69224666D01*
X191531965Y-69680808D01*
X191322026Y-70187646D01*
X191215000Y-70725701D01*
X186437960Y-70725701D01*
X186396207Y-70515796D01*
X186271073Y-70213695D01*
X186089406Y-69941812D01*
X185858188Y-69710594D01*
X185819183Y-69684531D01*
X186295074Y-69684531D01*
X186405921Y-69961714D01*
X186716840Y-70115089D01*
X187051705Y-70204860D01*
X187397650Y-70227576D01*
X187741380Y-70182366D01*
X188069685Y-70070966D01*
X188274079Y-69961714D01*
X188384926Y-69684531D01*
X187340000Y-68639605D01*
X186295074Y-69684531D01*
X185819183Y-69684531D01*
X185586305Y-69528927D01*
X185284204Y-69403793D01*
X184963496Y-69340000D01*
X184636504Y-69340000D01*
X184315796Y-69403793D01*
X184013695Y-69528927D01*
X183741812Y-69710594D01*
X183510594Y-69941812D01*
X183328927Y-70213695D01*
X183203793Y-70515796D01*
X183140000Y-70836504D01*
X171078501Y-70836504D01*
X171001898Y-70804774D01*
X170801939Y-70765000D01*
X170598061Y-70765000D01*
X170398102Y-70804774D01*
X170209744Y-70882795D01*
X170040226Y-70996063D01*
X169896063Y-71140226D01*
X169782795Y-71309744D01*
X169704774Y-71498102D01*
X169665000Y-71698061D01*
X168335000Y-71698061D01*
X168295226Y-71498102D01*
X168217205Y-71309744D01*
X168103937Y-71140226D01*
X167959774Y-70996063D01*
X167790256Y-70882795D01*
X167601898Y-70804774D01*
X167401939Y-70765000D01*
X167198061Y-70765000D01*
X166998102Y-70804774D01*
X166809744Y-70882795D01*
X166640226Y-70996063D01*
X166496063Y-71140226D01*
X166382795Y-71309744D01*
X166304774Y-71498102D01*
X166265000Y-71698061D01*
X166265000Y-71901939D01*
X166304774Y-72101898D01*
X166382795Y-72290256D01*
X166496063Y-72459774D01*
X166640226Y-72603937D01*
X166695452Y-72640837D01*
X166596063Y-72740226D01*
X166500000Y-72883995D01*
X166403937Y-72740226D01*
X166259774Y-72596063D01*
X166090256Y-72482795D01*
X165901898Y-72404774D01*
X165701939Y-72365000D01*
X165498061Y-72365000D01*
X165298102Y-72404774D01*
X165109744Y-72482795D01*
X164940226Y-72596063D01*
X164796063Y-72740226D01*
X164682795Y-72909744D01*
X164604774Y-73098102D01*
X164565000Y-73298061D01*
X128761772Y-73298061D01*
X128659774Y-73196063D01*
X128490256Y-73082795D01*
X128301898Y-73004774D01*
X128101939Y-72965000D01*
X128012511Y-72965000D01*
X128035000Y-72851939D01*
X128035000Y-72648061D01*
X127995226Y-72448102D01*
X127917205Y-72259744D01*
X127803937Y-72090226D01*
X127659774Y-71946063D01*
X127490256Y-71832795D01*
X127301898Y-71754774D01*
X127101939Y-71715000D01*
X126898061Y-71715000D01*
X126698102Y-71754774D01*
X126509744Y-71832795D01*
X126340226Y-71946063D01*
X126196063Y-72090226D01*
X126082795Y-72259744D01*
X126004774Y-72448102D01*
X125965000Y-72648061D01*
X108248291Y-72648061D01*
X108468035Y-72319192D01*
X108677974Y-71812354D01*
X108785000Y-71274299D01*
X108785000Y-70725701D01*
X108677974Y-70187646D01*
X108657880Y-70139133D01*
X141140472Y-70139133D01*
X141202965Y-70375450D01*
X141445678Y-70488850D01*
X141705849Y-70552719D01*
X141973482Y-70564604D01*
X142238291Y-70524048D01*
X142490100Y-70432609D01*
X142597035Y-70375450D01*
X142659528Y-70139133D01*
X146140472Y-70139133D01*
X146202965Y-70375450D01*
X146445678Y-70488850D01*
X146705849Y-70552719D01*
X146973482Y-70564604D01*
X147238291Y-70524048D01*
X147490100Y-70432609D01*
X147597035Y-70375450D01*
X147659528Y-70139133D01*
X146900000Y-69379605D01*
X146140472Y-70139133D01*
X142659528Y-70139133D01*
X141900000Y-69379605D01*
X141140472Y-70139133D01*
X108657880Y-70139133D01*
X108468035Y-69680808D01*
X108195868Y-69273482D01*
X140535396Y-69273482D01*
X140575952Y-69538291D01*
X140667391Y-69790100D01*
X140724550Y-69897035D01*
X140960867Y-69959528D01*
X141720395Y-69200000D01*
X142079605Y-69200000D01*
X142839133Y-69959528D01*
X143075450Y-69897035D01*
X143188850Y-69654322D01*
X143252719Y-69394151D01*
X143258077Y-69273482D01*
X145535396Y-69273482D01*
X145575952Y-69538291D01*
X145667391Y-69790100D01*
X145724550Y-69897035D01*
X145960867Y-69959528D01*
X146720395Y-69200000D01*
X147079605Y-69200000D01*
X147839133Y-69959528D01*
X148075450Y-69897035D01*
X148174735Y-69684531D01*
X181215074Y-69684531D01*
X181325921Y-69961714D01*
X181636840Y-70115089D01*
X181971705Y-70204860D01*
X182317650Y-70227576D01*
X182661380Y-70182366D01*
X182989685Y-70070966D01*
X183194079Y-69961714D01*
X183304926Y-69684531D01*
X182260000Y-68639605D01*
X181215074Y-69684531D01*
X148174735Y-69684531D01*
X148188850Y-69654322D01*
X148252719Y-69394151D01*
X148264604Y-69126518D01*
X148224048Y-68861709D01*
X148132609Y-68609900D01*
X148083300Y-68517650D01*
X180492424Y-68517650D01*
X180537634Y-68861380D01*
X180649034Y-69189685D01*
X180758286Y-69394079D01*
X181035469Y-69504926D01*
X182080395Y-68460000D01*
X182439605Y-68460000D01*
X183484531Y-69504926D01*
X183761714Y-69394079D01*
X183915089Y-69083160D01*
X184004860Y-68748295D01*
X184020004Y-68517650D01*
X185572424Y-68517650D01*
X185617634Y-68861380D01*
X185729034Y-69189685D01*
X185838286Y-69394079D01*
X186115469Y-69504926D01*
X187160395Y-68460000D01*
X187519605Y-68460000D01*
X188564531Y-69504926D01*
X188841714Y-69394079D01*
X188995089Y-69083160D01*
X189084860Y-68748295D01*
X189107576Y-68402350D01*
X189062366Y-68058620D01*
X188950966Y-67730315D01*
X188841714Y-67525921D01*
X188564531Y-67415074D01*
X187519605Y-68460000D01*
X187160395Y-68460000D01*
X186115469Y-67415074D01*
X185838286Y-67525921D01*
X185684911Y-67836840D01*
X185595140Y-68171705D01*
X185572424Y-68517650D01*
X184020004Y-68517650D01*
X184027576Y-68402350D01*
X183982366Y-68058620D01*
X183870966Y-67730315D01*
X183761714Y-67525921D01*
X183484531Y-67415074D01*
X182439605Y-68460000D01*
X182080395Y-68460000D01*
X181035469Y-67415074D01*
X180758286Y-67525921D01*
X180604911Y-67836840D01*
X180515140Y-68171705D01*
X180492424Y-68517650D01*
X148083300Y-68517650D01*
X148075450Y-68502965D01*
X147839133Y-68440472D01*
X147079605Y-69200000D01*
X146720395Y-69200000D01*
X145960867Y-68440472D01*
X145724550Y-68502965D01*
X145611150Y-68745678D01*
X145547281Y-69005849D01*
X145535396Y-69273482D01*
X143258077Y-69273482D01*
X143264604Y-69126518D01*
X143224048Y-68861709D01*
X143132609Y-68609900D01*
X143075450Y-68502965D01*
X142839133Y-68440472D01*
X142079605Y-69200000D01*
X141720395Y-69200000D01*
X140960867Y-68440472D01*
X140724550Y-68502965D01*
X140611150Y-68745678D01*
X140547281Y-69005849D01*
X140535396Y-69273482D01*
X108195868Y-69273482D01*
X108163250Y-69224666D01*
X107775334Y-68836750D01*
X107319192Y-68531965D01*
X106812354Y-68322026D01*
X106274299Y-68215000D01*
X105725701Y-68215000D01*
X105187646Y-68322026D01*
X104680808Y-68531965D01*
X104224666Y-68836750D01*
X103836750Y-69224666D01*
X103531965Y-69680808D01*
X103322026Y-70187646D01*
X103215000Y-70725701D01*
X100660000Y-70725701D01*
X100660000Y-69032278D01*
X100726714Y-68351874D01*
X100914943Y-67728428D01*
X101220681Y-67153421D01*
X101632279Y-66648753D01*
X101658573Y-66627000D01*
X139665000Y-66627000D01*
X139665000Y-66977000D01*
X139713507Y-67215496D01*
X139807610Y-67439946D01*
X139943693Y-67641725D01*
X140116526Y-67813078D01*
X140319467Y-67947421D01*
X140544718Y-68039591D01*
X140582391Y-68043462D01*
X140773000Y-67918731D01*
X140773000Y-66627000D01*
X141027000Y-66627000D01*
X141027000Y-67918731D01*
X141200862Y-68032503D01*
X141140472Y-68260867D01*
X141900000Y-69020395D01*
X142659528Y-68260867D01*
X146140472Y-68260867D01*
X146900000Y-69020395D01*
X147659528Y-68260867D01*
X147599138Y-68032503D01*
X147773000Y-67918731D01*
X147773000Y-66627000D01*
X148027000Y-66627000D01*
X148027000Y-67918731D01*
X148217609Y-68043462D01*
X148255282Y-68039591D01*
X148480533Y-67947421D01*
X148683474Y-67813078D01*
X148856307Y-67641725D01*
X148992390Y-67439946D01*
X149078119Y-67235469D01*
X181215074Y-67235469D01*
X182260000Y-68280395D01*
X183304926Y-67235469D01*
X186295074Y-67235469D01*
X187340000Y-68280395D01*
X188384926Y-67235469D01*
X188274079Y-66958286D01*
X187963160Y-66804911D01*
X187628295Y-66715140D01*
X187282350Y-66692424D01*
X186938620Y-66737634D01*
X186610315Y-66849034D01*
X186405921Y-66958286D01*
X186295074Y-67235469D01*
X183304926Y-67235469D01*
X183194079Y-66958286D01*
X182883160Y-66804911D01*
X182548295Y-66715140D01*
X182202350Y-66692424D01*
X181858620Y-66737634D01*
X181530315Y-66849034D01*
X181325921Y-66958286D01*
X181215074Y-67235469D01*
X149078119Y-67235469D01*
X149086493Y-67215496D01*
X149135000Y-66977000D01*
X149135000Y-66627000D01*
X148027000Y-66627000D01*
X147773000Y-66627000D01*
X146665000Y-66627000D01*
X146665000Y-66977000D01*
X146713507Y-67215496D01*
X146807610Y-67439946D01*
X146943693Y-67641725D01*
X147116526Y-67813078D01*
X147211836Y-67876171D01*
X147094151Y-67847281D01*
X146826518Y-67835396D01*
X146561709Y-67875952D01*
X146309900Y-67967391D01*
X146202965Y-68024550D01*
X146140472Y-68260867D01*
X142659528Y-68260867D01*
X142597035Y-68024550D01*
X142354322Y-67911150D01*
X142094151Y-67847281D01*
X141826518Y-67835396D01*
X141596558Y-67870615D01*
X141683474Y-67813078D01*
X141856307Y-67641725D01*
X141992390Y-67439946D01*
X142086493Y-67215496D01*
X142135000Y-66977000D01*
X142135000Y-66627000D01*
X141027000Y-66627000D01*
X140773000Y-66627000D01*
X139665000Y-66627000D01*
X101658573Y-66627000D01*
X102134067Y-66233638D01*
X102706924Y-65923895D01*
X103329039Y-65731318D01*
X104007584Y-65660000D01*
X139765707Y-65660000D01*
X139713507Y-65784504D01*
%TA.AperFunction,Conductor*%
D23*
G36*
X139713507Y-65784504D02*
G01*
X139665000Y-66023000D01*
X139665000Y-66373000D01*
X140773000Y-66373000D01*
X140773000Y-66353000D01*
X141027000Y-66353000D01*
X141027000Y-66373000D01*
X142135000Y-66373000D01*
X142135000Y-66023000D01*
X142086493Y-65784504D01*
X142034293Y-65660000D01*
X146765707Y-65660000D01*
X146713507Y-65784504D01*
X146665000Y-66023000D01*
X146665000Y-66373000D01*
X147773000Y-66373000D01*
X147773000Y-66353000D01*
X148027000Y-66353000D01*
X148027000Y-66373000D01*
X149135000Y-66373000D01*
X149135000Y-66023000D01*
X149086493Y-65784504D01*
X149034293Y-65660000D01*
X195967722Y-65660000D01*
X196648126Y-65726714D01*
X197271572Y-65914943D01*
X197846579Y-66220681D01*
X198351247Y-66632279D01*
X198766362Y-67134067D01*
X199076105Y-67706924D01*
X199268682Y-68329039D01*
X199340000Y-69007584D01*
X199340000Y-78373000D01*
X193000000Y-78373000D01*
X192975224Y-78375440D01*
X192951399Y-78382667D01*
X192929443Y-78394403D01*
X192910197Y-78410197D01*
X192894403Y-78429443D01*
X192882667Y-78451399D01*
X192875440Y-78475224D01*
X192873000Y-78500000D01*
X192873000Y-126500000D01*
X192875440Y-126524776D01*
X192882667Y-126548601D01*
X192894403Y-126570557D01*
X192910197Y-126589803D01*
X192929443Y-126605597D01*
X192951399Y-126617333D01*
X192975224Y-126624560D01*
X193000000Y-126627000D01*
X199340001Y-126627000D01*
X199340001Y-160967711D01*
X199273286Y-161648126D01*
X199085057Y-162271570D01*
X198779323Y-162846573D01*
X198367721Y-163351248D01*
X197865933Y-163766362D01*
X197293077Y-164076104D01*
X196670961Y-164268682D01*
X195992417Y-164340000D01*
X104032279Y-164340000D01*
X103351874Y-164273286D01*
X102728430Y-164085057D01*
X102153427Y-163779323D01*
X101648752Y-163367721D01*
X101233638Y-162865933D01*
X100923896Y-162293077D01*
X100731318Y-161670961D01*
X100660000Y-160992417D01*
X100660000Y-152270000D01*
X101936928Y-152270000D01*
X101936928Y-156270000D01*
X101949188Y-156394482D01*
X101985498Y-156514180D01*
X102044463Y-156624494D01*
X102123815Y-156721185D01*
X102220506Y-156800537D01*
X102330820Y-156859502D01*
X102450518Y-156895812D01*
X102575000Y-156908072D01*
X106575000Y-156908072D01*
X106699482Y-156895812D01*
X106819180Y-156859502D01*
X106929494Y-156800537D01*
X107026185Y-156721185D01*
X107105537Y-156624494D01*
X107164502Y-156514180D01*
X107200812Y-156394482D01*
X107213072Y-156270000D01*
X107213072Y-154010475D01*
X110195000Y-154010475D01*
X110195000Y-154529525D01*
X110296261Y-155038601D01*
X110494893Y-155518141D01*
X110783262Y-155949715D01*
X111150285Y-156316738D01*
X111581859Y-156605107D01*
X112061399Y-156803739D01*
X112570475Y-156905000D01*
X113089525Y-156905000D01*
X113598601Y-156803739D01*
X114078141Y-156605107D01*
X114509715Y-156316738D01*
X114876738Y-155949715D01*
X115165107Y-155518141D01*
X115363739Y-155038601D01*
X115465000Y-154529525D01*
X115465000Y-154010475D01*
X118450000Y-154010475D01*
X118450000Y-154529525D01*
X118551261Y-155038601D01*
X118749893Y-155518141D01*
X119038262Y-155949715D01*
X119405285Y-156316738D01*
X119836859Y-156605107D01*
X120316399Y-156803739D01*
X120825475Y-156905000D01*
X121344525Y-156905000D01*
X121853601Y-156803739D01*
X122333141Y-156605107D01*
X122764715Y-156316738D01*
X123131738Y-155949715D01*
X123420107Y-155518141D01*
X123618739Y-155038601D01*
X123720000Y-154529525D01*
X123720000Y-154010475D01*
X126705000Y-154010475D01*
X126705000Y-154529525D01*
X126806261Y-155038601D01*
X127004893Y-155518141D01*
X127293262Y-155949715D01*
X127660285Y-156316738D01*
X128091859Y-156605107D01*
X128571399Y-156803739D01*
X129080475Y-156905000D01*
X129599525Y-156905000D01*
X130108601Y-156803739D01*
X130588141Y-156605107D01*
X131019715Y-156316738D01*
X131386738Y-155949715D01*
X131675107Y-155518141D01*
X131873739Y-155038601D01*
X131975000Y-154529525D01*
X131975000Y-154010475D01*
X131964508Y-153957730D01*
X136849319Y-149072920D01*
X136911714Y-149021714D01*
X137116031Y-148772752D01*
X137267852Y-148488715D01*
X137361343Y-148180516D01*
X137385000Y-147940322D01*
X137385000Y-147940320D01*
X137392911Y-147860000D01*
X137385000Y-147779681D01*
X137385000Y-143901341D01*
X137423957Y-143927371D01*
X137676011Y-144031775D01*
X137943589Y-144085000D01*
X138216411Y-144085000D01*
X138483989Y-144031775D01*
X138736043Y-143927371D01*
X138962886Y-143775799D01*
X139155799Y-143582886D01*
X139307371Y-143356043D01*
X139411775Y-143103989D01*
X139465000Y-142836411D01*
X139465000Y-142563589D01*
X139411775Y-142296011D01*
X139307371Y-142043957D01*
X139155799Y-141817114D01*
X138962886Y-141624201D01*
X138894534Y-141578530D01*
X138992752Y-141526031D01*
X139241714Y-141321714D01*
X139446031Y-141072752D01*
X139597852Y-140788715D01*
X139691343Y-140480516D01*
X139711690Y-140273929D01*
X139764999Y-140327238D01*
X139765000Y-149787761D01*
X137907270Y-151645492D01*
X137854525Y-151635000D01*
X137335475Y-151635000D01*
X136826399Y-151736261D01*
X136346859Y-151934893D01*
X135915285Y-152223262D01*
X135548262Y-152590285D01*
X135259893Y-153021859D01*
X135061261Y-153501399D01*
X134960000Y-154010475D01*
X134960000Y-154529525D01*
X135061261Y-155038601D01*
X135259893Y-155518141D01*
X135548262Y-155949715D01*
X135915285Y-156316738D01*
X136346859Y-156605107D01*
X136826399Y-156803739D01*
X137335475Y-156905000D01*
X137854525Y-156905000D01*
X138363601Y-156803739D01*
X138843141Y-156605107D01*
X139274715Y-156316738D01*
X139641738Y-155949715D01*
X139930107Y-155518141D01*
X140128739Y-155038601D01*
X140230000Y-154529525D01*
X140230000Y-154010475D01*
X140219508Y-153957730D01*
X142499318Y-151677921D01*
X142561713Y-151626715D01*
X142766030Y-151377753D01*
X142917851Y-151093716D01*
X143011342Y-150785517D01*
X143034999Y-150545323D01*
X143034999Y-150545321D01*
X143042910Y-150465002D01*
X143034999Y-150384682D01*
X143034999Y-139730318D01*
X143042910Y-139649998D01*
X143031218Y-139531286D01*
X143025118Y-139469355D01*
X145865000Y-142309237D01*
X145865000Y-144431614D01*
X145803937Y-144340226D01*
X145659774Y-144196063D01*
X145490256Y-144082795D01*
X145301898Y-144004774D01*
X145101939Y-143965000D01*
X144898061Y-143965000D01*
X144698102Y-144004774D01*
X144509744Y-144082795D01*
X144340226Y-144196063D01*
X144196063Y-144340226D01*
X144082795Y-144509744D01*
X144004774Y-144698102D01*
X143965000Y-144898061D01*
X143965000Y-145101939D01*
X144004774Y-145301898D01*
X144082795Y-145490256D01*
X144196063Y-145659774D01*
X144340226Y-145803937D01*
X144509744Y-145917205D01*
X144698102Y-145995226D01*
X144898061Y-146035000D01*
X145101939Y-146035000D01*
X145301898Y-145995226D01*
X145490256Y-145917205D01*
X145659774Y-145803937D01*
X145803937Y-145659774D01*
X145865000Y-145568386D01*
X145865001Y-151635000D01*
X145590475Y-151635000D01*
X145081399Y-151736261D01*
X144601859Y-151934893D01*
X144170285Y-152223262D01*
X143803262Y-152590285D01*
X143514893Y-153021859D01*
X143316261Y-153501399D01*
X143215000Y-154010475D01*
X143215000Y-154529525D01*
X143316261Y-155038601D01*
X143514893Y-155518141D01*
X143803262Y-155949715D01*
X144170285Y-156316738D01*
X144601859Y-156605107D01*
X145081399Y-156803739D01*
X145590475Y-156905000D01*
X146109525Y-156905000D01*
X146618601Y-156803739D01*
X147098141Y-156605107D01*
X147529715Y-156316738D01*
X147896738Y-155949715D01*
X148185107Y-155518141D01*
X148383739Y-155038601D01*
X148485000Y-154529525D01*
X148485000Y-154010475D01*
X151470000Y-154010475D01*
X151470000Y-154529525D01*
X151571261Y-155038601D01*
X151769893Y-155518141D01*
X152058262Y-155949715D01*
X152425285Y-156316738D01*
X152856859Y-156605107D01*
X153336399Y-156803739D01*
X153845475Y-156905000D01*
X154364525Y-156905000D01*
X154873601Y-156803739D01*
X155353141Y-156605107D01*
X155784715Y-156316738D01*
X156151738Y-155949715D01*
X156440107Y-155518141D01*
X156638739Y-155038601D01*
X156740000Y-154529525D01*
X156740000Y-154010475D01*
X159725000Y-154010475D01*
X159725000Y-154529525D01*
X159826261Y-155038601D01*
X160024893Y-155518141D01*
X160313262Y-155949715D01*
X160680285Y-156316738D01*
X161111859Y-156605107D01*
X161591399Y-156803739D01*
X162100475Y-156905000D01*
X162619525Y-156905000D01*
X163128601Y-156803739D01*
X163608141Y-156605107D01*
X164039715Y-156316738D01*
X164406738Y-155949715D01*
X164695107Y-155518141D01*
X164893739Y-155038601D01*
X164995000Y-154529525D01*
X164995000Y-154010475D01*
X164893739Y-153501399D01*
X164695107Y-153021859D01*
X164406738Y-152590285D01*
X164039715Y-152223262D01*
X163608141Y-151934893D01*
X163128601Y-151736261D01*
X162619525Y-151635000D01*
X162100475Y-151635000D01*
X161591399Y-151736261D01*
X161111859Y-151934893D01*
X160680285Y-152223262D01*
X160313262Y-152590285D01*
X160024893Y-153021859D01*
X159826261Y-153501399D01*
X159725000Y-154010475D01*
X156740000Y-154010475D01*
X156638739Y-153501399D01*
X156440107Y-153021859D01*
X156151738Y-152590285D01*
X155784715Y-152223262D01*
X155353141Y-151934893D01*
X154873601Y-151736261D01*
X154364525Y-151635000D01*
X153845475Y-151635000D01*
X153336399Y-151736261D01*
X152856859Y-151934893D01*
X152425285Y-152223262D01*
X152058262Y-152590285D01*
X151769893Y-153021859D01*
X151571261Y-153501399D01*
X151470000Y-154010475D01*
X148485000Y-154010475D01*
X148474508Y-153957730D01*
X148599318Y-153832921D01*
X148661714Y-153781714D01*
X148866031Y-153532752D01*
X149017852Y-153248715D01*
X149111343Y-152940516D01*
X149135000Y-152700322D01*
X149135000Y-152700320D01*
X149142911Y-152620001D01*
X149135000Y-152539681D01*
X149135000Y-141712317D01*
X149142911Y-141631997D01*
X149134342Y-141545000D01*
X149111343Y-141311482D01*
X149017852Y-141003283D01*
X148866031Y-140719246D01*
X148661714Y-140470284D01*
X148599320Y-140419079D01*
X143323830Y-135143589D01*
X161515000Y-135143589D01*
X161515000Y-135416411D01*
X161568225Y-135683989D01*
X161672629Y-135936043D01*
X161824201Y-136162886D01*
X162017114Y-136355799D01*
X162243957Y-136507371D01*
X162346873Y-136550000D01*
X162243957Y-136592629D01*
X162017114Y-136744201D01*
X161824201Y-136937114D01*
X161672629Y-137163957D01*
X161568225Y-137416011D01*
X161515000Y-137683589D01*
X161515000Y-137956411D01*
X161568225Y-138223989D01*
X161672629Y-138476043D01*
X161824201Y-138702886D01*
X162017114Y-138895799D01*
X162243957Y-139047371D01*
X162346873Y-139090000D01*
X162243957Y-139132629D01*
X162017114Y-139284201D01*
X161824201Y-139477114D01*
X161672629Y-139703957D01*
X161568225Y-139956011D01*
X161515000Y-140223589D01*
X161515000Y-140496411D01*
X161568225Y-140763989D01*
X161672629Y-141016043D01*
X161824201Y-141242886D01*
X162017114Y-141435799D01*
X162243957Y-141587371D01*
X162346873Y-141630000D01*
X162243957Y-141672629D01*
X162017114Y-141824201D01*
X161824201Y-142017114D01*
X161672629Y-142243957D01*
X161568225Y-142496011D01*
X161515000Y-142763589D01*
X161515000Y-143036411D01*
X161568225Y-143303989D01*
X161672629Y-143556043D01*
X161824201Y-143782886D01*
X162017114Y-143975799D01*
X162243957Y-144127371D01*
X162496011Y-144231775D01*
X162763589Y-144285000D01*
X163036411Y-144285000D01*
X163303989Y-144231775D01*
X163556043Y-144127371D01*
X163782886Y-143975799D01*
X163865001Y-143893684D01*
X163865001Y-144649671D01*
X163857089Y-144730000D01*
X163888658Y-145050516D01*
X163982148Y-145358714D01*
X163982149Y-145358715D01*
X164133970Y-145642752D01*
X164338287Y-145891714D01*
X164400682Y-145942920D01*
X169607080Y-151149319D01*
X169658286Y-151211714D01*
X169907248Y-151416031D01*
X170191285Y-151567852D01*
X170412643Y-151635000D01*
X170355475Y-151635000D01*
X169846399Y-151736261D01*
X169366859Y-151934893D01*
X168935285Y-152223262D01*
X168568262Y-152590285D01*
X168279893Y-153021859D01*
X168081261Y-153501399D01*
X167980000Y-154010475D01*
X167980000Y-154529525D01*
X168081261Y-155038601D01*
X168279893Y-155518141D01*
X168568262Y-155949715D01*
X168935285Y-156316738D01*
X169366859Y-156605107D01*
X169846399Y-156803739D01*
X170355475Y-156905000D01*
X170874525Y-156905000D01*
X171383601Y-156803739D01*
X171863141Y-156605107D01*
X172294715Y-156316738D01*
X172661738Y-155949715D01*
X172950107Y-155518141D01*
X173148739Y-155038601D01*
X173250000Y-154529525D01*
X173250000Y-154010475D01*
X173148739Y-153501399D01*
X172950107Y-153021859D01*
X172661738Y-152590285D01*
X172294715Y-152223262D01*
X171863141Y-151934893D01*
X171383601Y-151736261D01*
X171125893Y-151685000D01*
X173972762Y-151685000D01*
X176245492Y-153957730D01*
X176235000Y-154010475D01*
X176235000Y-154529525D01*
X176336261Y-155038601D01*
X176534893Y-155518141D01*
X176823262Y-155949715D01*
X177190285Y-156316738D01*
X177621859Y-156605107D01*
X178101399Y-156803739D01*
X178610475Y-156905000D01*
X179129525Y-156905000D01*
X179638601Y-156803739D01*
X180118141Y-156605107D01*
X180549715Y-156316738D01*
X180916738Y-155949715D01*
X181205107Y-155518141D01*
X181403739Y-155038601D01*
X181505000Y-154529525D01*
X181505000Y-154010475D01*
X181403739Y-153501399D01*
X181205107Y-153021859D01*
X180916738Y-152590285D01*
X180549715Y-152223262D01*
X180118141Y-151934893D01*
X179638601Y-151736261D01*
X179129525Y-151635000D01*
X178610475Y-151635000D01*
X178557730Y-151645492D01*
X175862925Y-148950687D01*
X175811714Y-148888286D01*
X175562752Y-148683969D01*
X175278715Y-148532148D01*
X174970516Y-148438657D01*
X174730322Y-148415000D01*
X174730319Y-148415000D01*
X174650000Y-148407089D01*
X174569681Y-148415000D01*
X171497239Y-148415000D01*
X167135000Y-144052762D01*
X167135000Y-144001114D01*
X167323957Y-144127371D01*
X167576011Y-144231775D01*
X167843589Y-144285000D01*
X168116411Y-144285000D01*
X168383989Y-144231775D01*
X168636043Y-144127371D01*
X168862886Y-143975799D01*
X169055799Y-143782886D01*
X169207371Y-143556043D01*
X169311775Y-143303989D01*
X169365000Y-143036411D01*
X169365000Y-142763589D01*
X169311775Y-142496011D01*
X169207371Y-142243957D01*
X169055799Y-142017114D01*
X168862886Y-141824201D01*
X168794534Y-141778530D01*
X168892752Y-141726031D01*
X169141714Y-141521714D01*
X169302441Y-141325867D01*
X169318657Y-141490516D01*
X169361575Y-141631997D01*
X169412148Y-141798714D01*
X169528886Y-142017114D01*
X169563970Y-142082752D01*
X169768287Y-142331714D01*
X169830682Y-142382920D01*
X177737080Y-150289319D01*
X177788286Y-150351714D01*
X178037248Y-150556031D01*
X178266772Y-150678714D01*
X178321285Y-150707852D01*
X178629483Y-150801343D01*
X178950000Y-150832911D01*
X179030322Y-150825000D01*
X181367762Y-150825000D01*
X184500492Y-153957730D01*
X184490000Y-154010475D01*
X184490000Y-154529525D01*
X184591261Y-155038601D01*
X184789893Y-155518141D01*
X185078262Y-155949715D01*
X185445285Y-156316738D01*
X185876859Y-156605107D01*
X186356399Y-156803739D01*
X186865475Y-156905000D01*
X187384525Y-156905000D01*
X187893601Y-156803739D01*
X188373141Y-156605107D01*
X188804715Y-156316738D01*
X189171738Y-155949715D01*
X189460107Y-155518141D01*
X189658739Y-155038601D01*
X189760000Y-154529525D01*
X189760000Y-154010475D01*
X189658739Y-153501399D01*
X189460107Y-153021859D01*
X189171738Y-152590285D01*
X188804715Y-152223262D01*
X188373141Y-151934893D01*
X187893601Y-151736261D01*
X187384525Y-151635000D01*
X186865475Y-151635000D01*
X186812730Y-151645492D01*
X183257925Y-148090687D01*
X183206714Y-148028286D01*
X182957752Y-147823969D01*
X182673715Y-147672148D01*
X182365516Y-147578657D01*
X182125322Y-147555000D01*
X182125319Y-147555000D01*
X182045000Y-147547089D01*
X181964681Y-147555000D01*
X179627239Y-147555000D01*
X172565000Y-140492762D01*
X172565000Y-139789659D01*
X172572911Y-139709339D01*
X172565000Y-139629018D01*
X172541343Y-139388824D01*
X172447852Y-139080625D01*
X172296031Y-138796588D01*
X172091714Y-138547626D01*
X172029320Y-138496421D01*
X170447898Y-136915000D01*
X170982762Y-136915000D01*
X180427080Y-146359319D01*
X180478286Y-146421714D01*
X180727248Y-146626031D01*
X181011285Y-146777852D01*
X181319484Y-146871343D01*
X181559678Y-146895000D01*
X181559680Y-146895000D01*
X181639999Y-146902911D01*
X181720319Y-146895000D01*
X185692762Y-146895000D01*
X192755492Y-153957730D01*
X192745000Y-154010475D01*
X192745000Y-154529525D01*
X192846261Y-155038601D01*
X193044893Y-155518141D01*
X193333262Y-155949715D01*
X193700285Y-156316738D01*
X194131859Y-156605107D01*
X194611399Y-156803739D01*
X195120475Y-156905000D01*
X195639525Y-156905000D01*
X196148601Y-156803739D01*
X196628141Y-156605107D01*
X197059715Y-156316738D01*
X197426738Y-155949715D01*
X197715107Y-155518141D01*
X197913739Y-155038601D01*
X198015000Y-154529525D01*
X198015000Y-154010475D01*
X197913739Y-153501399D01*
X197715107Y-153021859D01*
X197426738Y-152590285D01*
X197059715Y-152223262D01*
X196628141Y-151934893D01*
X196148601Y-151736261D01*
X195639525Y-151635000D01*
X195120475Y-151635000D01*
X195067730Y-151645492D01*
X187582925Y-144160687D01*
X187531714Y-144098286D01*
X187282752Y-143893969D01*
X186998715Y-143742148D01*
X186944497Y-143725701D01*
X191215000Y-143725701D01*
X191215000Y-144274299D01*
X191322026Y-144812354D01*
X191531965Y-145319192D01*
X191836750Y-145775334D01*
X192224666Y-146163250D01*
X192680808Y-146468035D01*
X193187646Y-146677974D01*
X193725701Y-146785000D01*
X194274299Y-146785000D01*
X194812354Y-146677974D01*
X195319192Y-146468035D01*
X195775334Y-146163250D01*
X196163250Y-145775334D01*
X196468035Y-145319192D01*
X196677974Y-144812354D01*
X196785000Y-144274299D01*
X196785000Y-143725701D01*
X196677974Y-143187646D01*
X196468035Y-142680808D01*
X196163250Y-142224666D01*
X195775334Y-141836750D01*
X195319192Y-141531965D01*
X194812354Y-141322026D01*
X194274299Y-141215000D01*
X193725701Y-141215000D01*
X193187646Y-141322026D01*
X192680808Y-141531965D01*
X192224666Y-141836750D01*
X191836750Y-142224666D01*
X191531965Y-142680808D01*
X191322026Y-143187646D01*
X191215000Y-143725701D01*
X186944497Y-143725701D01*
X186690516Y-143648657D01*
X186450322Y-143625000D01*
X186450319Y-143625000D01*
X186370000Y-143617089D01*
X186289681Y-143625000D01*
X182317239Y-143625000D01*
X172872925Y-134180687D01*
X172821714Y-134118286D01*
X172572752Y-133913969D01*
X172288715Y-133762148D01*
X171980516Y-133668657D01*
X171740322Y-133645000D01*
X171740319Y-133645000D01*
X171660000Y-133637089D01*
X171579681Y-133645000D01*
X167899678Y-133645000D01*
X167659484Y-133668657D01*
X167351285Y-133762148D01*
X167067248Y-133913969D01*
X166818286Y-134118286D01*
X166613969Y-134367248D01*
X166462148Y-134651285D01*
X166368657Y-134959484D01*
X166337089Y-135280000D01*
X166368657Y-135600516D01*
X166462148Y-135908715D01*
X166613969Y-136192752D01*
X166818286Y-136441714D01*
X166950233Y-136550000D01*
X166818286Y-136658286D01*
X166613969Y-136907248D01*
X166462148Y-137191285D01*
X166368657Y-137499484D01*
X166337089Y-137820000D01*
X166368657Y-138140516D01*
X166462148Y-138448715D01*
X166613969Y-138732752D01*
X166624913Y-138746087D01*
X166598824Y-138748657D01*
X166290625Y-138842148D01*
X166006588Y-138993969D01*
X165757626Y-139198286D01*
X165706419Y-139260682D01*
X164400686Y-140566416D01*
X164338286Y-140617626D01*
X164236128Y-140742107D01*
X164285000Y-140496411D01*
X164285000Y-140223589D01*
X164231775Y-139956011D01*
X164127371Y-139703957D01*
X163975799Y-139477114D01*
X163782886Y-139284201D01*
X163556043Y-139132629D01*
X163453127Y-139090000D01*
X163556043Y-139047371D01*
X163782886Y-138895799D01*
X163975799Y-138702886D01*
X164127371Y-138476043D01*
X164231775Y-138223989D01*
X164285000Y-137956411D01*
X164285000Y-137683589D01*
X164231775Y-137416011D01*
X164127371Y-137163957D01*
X163975799Y-136937114D01*
X163782886Y-136744201D01*
X163556043Y-136592629D01*
X163453127Y-136550000D01*
X163556043Y-136507371D01*
X163782886Y-136355799D01*
X163975799Y-136162886D01*
X164127371Y-135936043D01*
X164231775Y-135683989D01*
X164285000Y-135416411D01*
X164285000Y-135143589D01*
X164231775Y-134876011D01*
X164127371Y-134623957D01*
X163975799Y-134397114D01*
X163782886Y-134204201D01*
X163556043Y-134052629D01*
X163303989Y-133948225D01*
X163036411Y-133895000D01*
X162763589Y-133895000D01*
X162496011Y-133948225D01*
X162243957Y-134052629D01*
X162017114Y-134204201D01*
X161824201Y-134397114D01*
X161672629Y-134623957D01*
X161568225Y-134876011D01*
X161515000Y-135143589D01*
X143323830Y-135143589D01*
X142160927Y-133980687D01*
X142109716Y-133918286D01*
X141860754Y-133713969D01*
X141576717Y-133562148D01*
X141268518Y-133468657D01*
X141028324Y-133445000D01*
X141028321Y-133445000D01*
X140948002Y-133437089D01*
X140867683Y-133445000D01*
X137999678Y-133445000D01*
X137759484Y-133468657D01*
X137451285Y-133562148D01*
X137167248Y-133713969D01*
X136918286Y-133918286D01*
X136713969Y-134167248D01*
X136562148Y-134451285D01*
X136468657Y-134759484D01*
X136437089Y-135080000D01*
X136468657Y-135400516D01*
X136562148Y-135708715D01*
X136713969Y-135992752D01*
X136918286Y-136241714D01*
X137050233Y-136350000D01*
X136918286Y-136458286D01*
X136713969Y-136707248D01*
X136562148Y-136991285D01*
X136468657Y-137299484D01*
X136437089Y-137620000D01*
X136468657Y-137940516D01*
X136562148Y-138248715D01*
X136713969Y-138532752D01*
X136724913Y-138546087D01*
X136698823Y-138548657D01*
X136496550Y-138610016D01*
X136390625Y-138642148D01*
X136106588Y-138793969D01*
X135857626Y-138998286D01*
X135806419Y-139060682D01*
X134650686Y-140216416D01*
X134588286Y-140267626D01*
X134383969Y-140516589D01*
X134239297Y-140787252D01*
X134331775Y-140563989D01*
X134385000Y-140296411D01*
X134385000Y-140023589D01*
X134331775Y-139756011D01*
X134227371Y-139503957D01*
X134075799Y-139277114D01*
X133882886Y-139084201D01*
X133656043Y-138932629D01*
X133553127Y-138890000D01*
X133656043Y-138847371D01*
X133882886Y-138695799D01*
X134075799Y-138502886D01*
X134227371Y-138276043D01*
X134331775Y-138023989D01*
X134385000Y-137756411D01*
X134385000Y-137483589D01*
X134331775Y-137216011D01*
X134227371Y-136963957D01*
X134075799Y-136737114D01*
X133882886Y-136544201D01*
X133656043Y-136392629D01*
X133553127Y-136350000D01*
X133656043Y-136307371D01*
X133882886Y-136155799D01*
X134075799Y-135962886D01*
X134227371Y-135736043D01*
X134331775Y-135483989D01*
X134385000Y-135216411D01*
X134385000Y-134943589D01*
X134331775Y-134676011D01*
X134227371Y-134423957D01*
X134075799Y-134197114D01*
X133882886Y-134004201D01*
X133656043Y-133852629D01*
X133403989Y-133748225D01*
X133136411Y-133695000D01*
X132863589Y-133695000D01*
X132596011Y-133748225D01*
X132343957Y-133852629D01*
X132117114Y-134004201D01*
X131924201Y-134197114D01*
X131772629Y-134423957D01*
X131668225Y-134676011D01*
X131615000Y-134943589D01*
X131615000Y-135216411D01*
X131668225Y-135483989D01*
X131772629Y-135736043D01*
X131924201Y-135962886D01*
X132117114Y-136155799D01*
X132343957Y-136307371D01*
X132446873Y-136350000D01*
X132343957Y-136392629D01*
X132117114Y-136544201D01*
X131924201Y-136737114D01*
X131772629Y-136963957D01*
X131668225Y-137216011D01*
X131615000Y-137483589D01*
X131615000Y-137756411D01*
X131668225Y-138023989D01*
X131772629Y-138276043D01*
X131924201Y-138502886D01*
X132117114Y-138695799D01*
X132343957Y-138847371D01*
X132446873Y-138890000D01*
X132343957Y-138932629D01*
X132117114Y-139084201D01*
X131924201Y-139277114D01*
X131772629Y-139503957D01*
X131668225Y-139756011D01*
X131615000Y-140023589D01*
X131615000Y-140296411D01*
X131668225Y-140563989D01*
X131772629Y-140816043D01*
X131924201Y-141042886D01*
X132117114Y-141235799D01*
X132343957Y-141387371D01*
X132446873Y-141430000D01*
X132343957Y-141472629D01*
X132117114Y-141624201D01*
X131924201Y-141817114D01*
X131772629Y-142043957D01*
X131668225Y-142296011D01*
X131615000Y-142563589D01*
X131615000Y-142836411D01*
X131668225Y-143103989D01*
X131772629Y-143356043D01*
X131924201Y-143582886D01*
X132117114Y-143775799D01*
X132343957Y-143927371D01*
X132596011Y-144031775D01*
X132863589Y-144085000D01*
X133136411Y-144085000D01*
X133403989Y-144031775D01*
X133656043Y-143927371D01*
X133882886Y-143775799D01*
X134075799Y-143582886D01*
X134115000Y-143524217D01*
X134115001Y-147182760D01*
X129652270Y-151645492D01*
X129599525Y-151635000D01*
X129080475Y-151635000D01*
X128571399Y-151736261D01*
X128091859Y-151934893D01*
X127660285Y-152223262D01*
X127293262Y-152590285D01*
X127004893Y-153021859D01*
X126806261Y-153501399D01*
X126705000Y-154010475D01*
X123720000Y-154010475D01*
X123618739Y-153501399D01*
X123420107Y-153021859D01*
X123131738Y-152590285D01*
X122764715Y-152223262D01*
X122333141Y-151934893D01*
X121853601Y-151736261D01*
X121344525Y-151635000D01*
X120825475Y-151635000D01*
X120316399Y-151736261D01*
X119836859Y-151934893D01*
X119405285Y-152223262D01*
X119038262Y-152590285D01*
X118749893Y-153021859D01*
X118551261Y-153501399D01*
X118450000Y-154010475D01*
X115465000Y-154010475D01*
X115363739Y-153501399D01*
X115165107Y-153021859D01*
X114876738Y-152590285D01*
X114509715Y-152223262D01*
X114078141Y-151934893D01*
X113598601Y-151736261D01*
X113089525Y-151635000D01*
X112570475Y-151635000D01*
X112061399Y-151736261D01*
X111581859Y-151934893D01*
X111150285Y-152223262D01*
X110783262Y-152590285D01*
X110494893Y-153021859D01*
X110296261Y-153501399D01*
X110195000Y-154010475D01*
X107213072Y-154010475D01*
X107213072Y-152270000D01*
X107200812Y-152145518D01*
X107164502Y-152025820D01*
X107105537Y-151915506D01*
X107026185Y-151818815D01*
X106929494Y-151739463D01*
X106819180Y-151680498D01*
X106699482Y-151644188D01*
X106575000Y-151631928D01*
X102575000Y-151631928D01*
X102450518Y-151644188D01*
X102330820Y-151680498D01*
X102220506Y-151739463D01*
X102123815Y-151818815D01*
X102044463Y-151915506D01*
X101985498Y-152025820D01*
X101949188Y-152145518D01*
X101936928Y-152270000D01*
X100660000Y-152270000D01*
X100660000Y-143725701D01*
X103215000Y-143725701D01*
X103215000Y-144274299D01*
X103322026Y-144812354D01*
X103531965Y-145319192D01*
X103836750Y-145775334D01*
X104224666Y-146163250D01*
X104680808Y-146468035D01*
X105187646Y-146677974D01*
X105725701Y-146785000D01*
X106274299Y-146785000D01*
X106812354Y-146677974D01*
X107319192Y-146468035D01*
X107775334Y-146163250D01*
X108163250Y-145775334D01*
X108468035Y-145319192D01*
X108642473Y-144898061D01*
X128965000Y-144898061D01*
X128965000Y-145101939D01*
X129004774Y-145301898D01*
X129082795Y-145490256D01*
X129196063Y-145659774D01*
X129340226Y-145803937D01*
X129509744Y-145917205D01*
X129698102Y-145995226D01*
X129898061Y-146035000D01*
X130101939Y-146035000D01*
X130301898Y-145995226D01*
X130490256Y-145917205D01*
X130659774Y-145803937D01*
X130803937Y-145659774D01*
X130917205Y-145490256D01*
X130995226Y-145301898D01*
X131035000Y-145101939D01*
X131035000Y-144898061D01*
X130995226Y-144698102D01*
X130917205Y-144509744D01*
X130803937Y-144340226D01*
X130659774Y-144196063D01*
X130490256Y-144082795D01*
X130301898Y-144004774D01*
X130101939Y-143965000D01*
X129898061Y-143965000D01*
X129698102Y-144004774D01*
X129509744Y-144082795D01*
X129340226Y-144196063D01*
X129196063Y-144340226D01*
X129082795Y-144509744D01*
X129004774Y-144698102D01*
X128965000Y-144898061D01*
X108642473Y-144898061D01*
X108677974Y-144812354D01*
X108785000Y-144274299D01*
X108785000Y-143725701D01*
X108677974Y-143187646D01*
X108468035Y-142680808D01*
X108163250Y-142224666D01*
X107775334Y-141836750D01*
X107319192Y-141531965D01*
X106812354Y-141322026D01*
X106274299Y-141215000D01*
X105725701Y-141215000D01*
X105187646Y-141322026D01*
X104680808Y-141531965D01*
X104224666Y-141836750D01*
X103836750Y-142224666D01*
X103531965Y-142680808D01*
X103322026Y-143187646D01*
X103215000Y-143725701D01*
X100660000Y-143725701D01*
X100660000Y-129500500D01*
X131611928Y-129500500D01*
X131611928Y-130499500D01*
X131629002Y-130672852D01*
X131679567Y-130839542D01*
X131761679Y-130993164D01*
X131872185Y-131127815D01*
X132006836Y-131238321D01*
X132160458Y-131320433D01*
X132327148Y-131370998D01*
X132500500Y-131388072D01*
X133499500Y-131388072D01*
X133672852Y-131370998D01*
X133839542Y-131320433D01*
X133993164Y-131238321D01*
X134127815Y-131127815D01*
X134238321Y-130993164D01*
X134320433Y-130839542D01*
X134370998Y-130672852D01*
X134388072Y-130499500D01*
X134388072Y-129863589D01*
X136695000Y-129863589D01*
X136695000Y-130136411D01*
X136748225Y-130403989D01*
X136852629Y-130656043D01*
X137004201Y-130882886D01*
X137197114Y-131075799D01*
X137423957Y-131227371D01*
X137676011Y-131331775D01*
X137943589Y-131385000D01*
X138216411Y-131385000D01*
X138483989Y-131331775D01*
X138736043Y-131227371D01*
X138962886Y-131075799D01*
X139155799Y-130882886D01*
X139307371Y-130656043D01*
X139411775Y-130403989D01*
X139465000Y-130136411D01*
X139465000Y-129863589D01*
X139432560Y-129700500D01*
X161511928Y-129700500D01*
X161511928Y-130699500D01*
X161529002Y-130872852D01*
X161579567Y-131039542D01*
X161661679Y-131193164D01*
X161772185Y-131327815D01*
X161906836Y-131438321D01*
X162060458Y-131520433D01*
X162227148Y-131570998D01*
X162400500Y-131588072D01*
X163399500Y-131588072D01*
X163572852Y-131570998D01*
X163739542Y-131520433D01*
X163893164Y-131438321D01*
X164027815Y-131327815D01*
X164138321Y-131193164D01*
X164220433Y-131039542D01*
X164270998Y-130872852D01*
X164288072Y-130699500D01*
X164288072Y-130063589D01*
X166595000Y-130063589D01*
X166595000Y-130336411D01*
X166648225Y-130603989D01*
X166752629Y-130856043D01*
X166904201Y-131082886D01*
X167097114Y-131275799D01*
X167323957Y-131427371D01*
X167576011Y-131531775D01*
X167843589Y-131585000D01*
X168116411Y-131585000D01*
X168383989Y-131531775D01*
X168636043Y-131427371D01*
X168862886Y-131275799D01*
X169055799Y-131082886D01*
X169207371Y-130856043D01*
X169311775Y-130603989D01*
X169365000Y-130336411D01*
X169365000Y-130063589D01*
X169311775Y-129796011D01*
X169207371Y-129543957D01*
X169055799Y-129317114D01*
X168862886Y-129124201D01*
X168636043Y-128972629D01*
X168383989Y-128868225D01*
X168116411Y-128815000D01*
X167843589Y-128815000D01*
X167576011Y-128868225D01*
X167323957Y-128972629D01*
X167097114Y-129124201D01*
X166904201Y-129317114D01*
X166752629Y-129543957D01*
X166648225Y-129796011D01*
X166595000Y-130063589D01*
X164288072Y-130063589D01*
X164288072Y-129700500D01*
X164270998Y-129527148D01*
X164220433Y-129360458D01*
X164138321Y-129206836D01*
X164027815Y-129072185D01*
X163893164Y-128961679D01*
X163739542Y-128879567D01*
X163572852Y-128829002D01*
X163399500Y-128811928D01*
X162400500Y-128811928D01*
X162227148Y-128829002D01*
X162060458Y-128879567D01*
X161906836Y-128961679D01*
X161772185Y-129072185D01*
X161661679Y-129206836D01*
X161579567Y-129360458D01*
X161529002Y-129527148D01*
X161511928Y-129700500D01*
X139432560Y-129700500D01*
X139411775Y-129596011D01*
X139307371Y-129343957D01*
X139155799Y-129117114D01*
X138962886Y-128924201D01*
X138736043Y-128772629D01*
X138483989Y-128668225D01*
X138216411Y-128615000D01*
X137943589Y-128615000D01*
X137676011Y-128668225D01*
X137423957Y-128772629D01*
X137197114Y-128924201D01*
X137004201Y-129117114D01*
X136852629Y-129343957D01*
X136748225Y-129596011D01*
X136695000Y-129863589D01*
X134388072Y-129863589D01*
X134388072Y-129500500D01*
X134370998Y-129327148D01*
X134320433Y-129160458D01*
X134238321Y-129006836D01*
X134127815Y-128872185D01*
X133993164Y-128761679D01*
X133839542Y-128679567D01*
X133672852Y-128629002D01*
X133499500Y-128611928D01*
X132500500Y-128611928D01*
X132327148Y-128629002D01*
X132160458Y-128679567D01*
X132006836Y-128761679D01*
X131872185Y-128872185D01*
X131761679Y-129006836D01*
X131679567Y-129160458D01*
X131629002Y-129327148D01*
X131611928Y-129500500D01*
X100660000Y-129500500D01*
X100660000Y-99800000D01*
X131159994Y-99800000D01*
X131165000Y-99850828D01*
X131165001Y-118349162D01*
X131159994Y-118400000D01*
X131179977Y-118602895D01*
X131239160Y-118797993D01*
X131335266Y-118977797D01*
X131432197Y-119095907D01*
X131464605Y-119135396D01*
X131504092Y-119167802D01*
X133196063Y-120859774D01*
X133340226Y-121003937D01*
X133382712Y-121032325D01*
X133422202Y-121064734D01*
X133467256Y-121088816D01*
X133509744Y-121117205D01*
X133556959Y-121136762D01*
X133602006Y-121160840D01*
X133650881Y-121175666D01*
X133698102Y-121195226D01*
X133748229Y-121205197D01*
X133797104Y-121220023D01*
X133847934Y-121225029D01*
X133898061Y-121235000D01*
X133949171Y-121235000D01*
X133999999Y-121240006D01*
X134050827Y-121235000D01*
X134101939Y-121235000D01*
X134152068Y-121225029D01*
X134202894Y-121220023D01*
X134251766Y-121205198D01*
X134301898Y-121195226D01*
X134349123Y-121175665D01*
X134397993Y-121160840D01*
X134443036Y-121136764D01*
X134490256Y-121117205D01*
X134532748Y-121088813D01*
X134577797Y-121064734D01*
X134617281Y-121032330D01*
X134659774Y-121003937D01*
X134695916Y-120967795D01*
X134735395Y-120935395D01*
X134767795Y-120895916D01*
X134803937Y-120859774D01*
X134832330Y-120817281D01*
X134864734Y-120777797D01*
X134888813Y-120732748D01*
X134917205Y-120690256D01*
X134936764Y-120643036D01*
X134960840Y-120597993D01*
X134975665Y-120549123D01*
X134995226Y-120501898D01*
X135005198Y-120451766D01*
X135020023Y-120402894D01*
X135025029Y-120352068D01*
X135035000Y-120301939D01*
X135035000Y-120250827D01*
X135040006Y-120199999D01*
X135035000Y-120149171D01*
X135035000Y-120098061D01*
X135025029Y-120047934D01*
X135020023Y-119997104D01*
X135005197Y-119948229D01*
X134995226Y-119898102D01*
X134975666Y-119850881D01*
X134960840Y-119802006D01*
X134936762Y-119756959D01*
X134917205Y-119709744D01*
X134888816Y-119667256D01*
X134864734Y-119622202D01*
X134832325Y-119582712D01*
X134803937Y-119540226D01*
X134659774Y-119396063D01*
X133235000Y-117971290D01*
X133235000Y-117578712D01*
X133752195Y-118095908D01*
X133784602Y-118135396D01*
X133824090Y-118167803D01*
X133942200Y-118264734D01*
X134038307Y-118316104D01*
X134122005Y-118360841D01*
X134317103Y-118420024D01*
X134469160Y-118435000D01*
X134469163Y-118435000D01*
X134519998Y-118440007D01*
X134570833Y-118435000D01*
X137501939Y-118435000D01*
X137552057Y-118425031D01*
X137602895Y-118420024D01*
X137651777Y-118405196D01*
X137701898Y-118395226D01*
X137749113Y-118375669D01*
X137797993Y-118360841D01*
X137843042Y-118336762D01*
X137890256Y-118317205D01*
X137932746Y-118288814D01*
X137977797Y-118264734D01*
X138017284Y-118232328D01*
X138059774Y-118203937D01*
X138095908Y-118167803D01*
X138135396Y-118135396D01*
X138167803Y-118095908D01*
X138203937Y-118059774D01*
X138232328Y-118017284D01*
X138264734Y-117977797D01*
X138288814Y-117932746D01*
X138317205Y-117890256D01*
X138336762Y-117843042D01*
X138360841Y-117797993D01*
X138375669Y-117749113D01*
X138395226Y-117701898D01*
X138405196Y-117651777D01*
X138420024Y-117602895D01*
X138425031Y-117552057D01*
X138435000Y-117501939D01*
X138435000Y-117450838D01*
X138440007Y-117400000D01*
X138435000Y-117349162D01*
X138435000Y-117298061D01*
X190765000Y-117298061D01*
X190765000Y-117501939D01*
X190804774Y-117701898D01*
X190882795Y-117890256D01*
X190996063Y-118059774D01*
X191140226Y-118203937D01*
X191309744Y-118317205D01*
X191498102Y-118395226D01*
X191698061Y-118435000D01*
X191901939Y-118435000D01*
X192101898Y-118395226D01*
X192290256Y-118317205D01*
X192459774Y-118203937D01*
X192603937Y-118059774D01*
X192717205Y-117890256D01*
X192795226Y-117701898D01*
X192835000Y-117501939D01*
X192835000Y-117298061D01*
X192795226Y-117098102D01*
X192717205Y-116909744D01*
X192603937Y-116740226D01*
X192459774Y-116596063D01*
X192290256Y-116482795D01*
X192101898Y-116404774D01*
X191901939Y-116365000D01*
X191698061Y-116365000D01*
X191498102Y-116404774D01*
X191309744Y-116482795D01*
X191140226Y-116596063D01*
X190996063Y-116740226D01*
X190882795Y-116909744D01*
X190804774Y-117098102D01*
X190765000Y-117298061D01*
X138435000Y-117298061D01*
X138425031Y-117247943D01*
X138423756Y-117235000D01*
X187901939Y-117235000D01*
X187952057Y-117225031D01*
X188002895Y-117220024D01*
X188051777Y-117205196D01*
X188101898Y-117195226D01*
X188149113Y-117175669D01*
X188197993Y-117160841D01*
X188243042Y-117136762D01*
X188290256Y-117117205D01*
X188332746Y-117088814D01*
X188377797Y-117064734D01*
X188417284Y-117032328D01*
X188459774Y-117003937D01*
X188495908Y-116967803D01*
X188535396Y-116935396D01*
X188567803Y-116895908D01*
X188603937Y-116859774D01*
X188632328Y-116817284D01*
X188664734Y-116777797D01*
X188688814Y-116732746D01*
X188717205Y-116690256D01*
X188736762Y-116643042D01*
X188760841Y-116597993D01*
X188775669Y-116549113D01*
X188795226Y-116501898D01*
X188805196Y-116451777D01*
X188820024Y-116402895D01*
X188825031Y-116352057D01*
X188835000Y-116301939D01*
X188835000Y-116250838D01*
X188840007Y-116200000D01*
X188835000Y-116149162D01*
X188835000Y-116098061D01*
X188825031Y-116047943D01*
X188820024Y-115997105D01*
X188805196Y-115948223D01*
X188795226Y-115898102D01*
X188775669Y-115850887D01*
X188760841Y-115802007D01*
X188736762Y-115756958D01*
X188717205Y-115709744D01*
X188688814Y-115667254D01*
X188664734Y-115622203D01*
X188632328Y-115582716D01*
X188603937Y-115540226D01*
X188567803Y-115504092D01*
X188535396Y-115464604D01*
X188495908Y-115432197D01*
X188459774Y-115396063D01*
X188417284Y-115367672D01*
X188377797Y-115335266D01*
X188332746Y-115311186D01*
X188290256Y-115282795D01*
X188243042Y-115263238D01*
X188197993Y-115239159D01*
X188149113Y-115224331D01*
X188101898Y-115204774D01*
X188051777Y-115194804D01*
X188002895Y-115179976D01*
X187952057Y-115174969D01*
X187901939Y-115165000D01*
X134698061Y-115165000D01*
X134647943Y-115174969D01*
X134635000Y-115176244D01*
X134635000Y-113698061D01*
X134625031Y-113647943D01*
X134620024Y-113597105D01*
X134605196Y-113548223D01*
X134595226Y-113498102D01*
X134575669Y-113450887D01*
X134560841Y-113402007D01*
X134536762Y-113356958D01*
X134517205Y-113309744D01*
X134488814Y-113267254D01*
X134464734Y-113222203D01*
X134432328Y-113182716D01*
X134403937Y-113140226D01*
X134367803Y-113104092D01*
X134335396Y-113064604D01*
X134295908Y-113032197D01*
X134259774Y-112996063D01*
X134217284Y-112967672D01*
X134177797Y-112935266D01*
X134132746Y-112911186D01*
X134090256Y-112882795D01*
X134043042Y-112863238D01*
X133997993Y-112839159D01*
X133949113Y-112824331D01*
X133901898Y-112804774D01*
X133851777Y-112794804D01*
X133802895Y-112779976D01*
X133752057Y-112774969D01*
X133701939Y-112765000D01*
X133650838Y-112765000D01*
X133600000Y-112759993D01*
X133549162Y-112765000D01*
X133498061Y-112765000D01*
X133447942Y-112774969D01*
X133397106Y-112779976D01*
X133348226Y-112794804D01*
X133298102Y-112804774D01*
X133250884Y-112824332D01*
X133235000Y-112829151D01*
X133235000Y-100228710D01*
X140095908Y-93367803D01*
X140135396Y-93335396D01*
X140167803Y-93295908D01*
X140264734Y-93177798D01*
X140360840Y-92997994D01*
X140360841Y-92997993D01*
X140420024Y-92802895D01*
X140435000Y-92650838D01*
X140435000Y-92650835D01*
X140440007Y-92600000D01*
X140435000Y-92549165D01*
X140435000Y-79098061D01*
X140425031Y-79047943D01*
X140420024Y-78997105D01*
X140405196Y-78948223D01*
X140395226Y-78898102D01*
X140375669Y-78850887D01*
X140360841Y-78802007D01*
X140336762Y-78756958D01*
X140317205Y-78709744D01*
X140288814Y-78667254D01*
X140264734Y-78622203D01*
X140232328Y-78582716D01*
X140203937Y-78540226D01*
X140167803Y-78504092D01*
X140135396Y-78464604D01*
X140095908Y-78432197D01*
X140059774Y-78396063D01*
X140017284Y-78367672D01*
X139977797Y-78335266D01*
X139932747Y-78311186D01*
X139890256Y-78282795D01*
X139843039Y-78263237D01*
X139797992Y-78239159D01*
X139749116Y-78224332D01*
X139701898Y-78204774D01*
X139651774Y-78194804D01*
X139602894Y-78179976D01*
X139552058Y-78174969D01*
X139501939Y-78165000D01*
X139450838Y-78165000D01*
X139400000Y-78159993D01*
X139349162Y-78165000D01*
X139298061Y-78165000D01*
X139247943Y-78174969D01*
X139197105Y-78179976D01*
X139148223Y-78194804D01*
X139098102Y-78204774D01*
X139050887Y-78224331D01*
X139002007Y-78239159D01*
X138956958Y-78263238D01*
X138909744Y-78282795D01*
X138867254Y-78311186D01*
X138822203Y-78335266D01*
X138782716Y-78367672D01*
X138740226Y-78396063D01*
X138704092Y-78432197D01*
X138664604Y-78464604D01*
X138632197Y-78504092D01*
X138596063Y-78540226D01*
X138567672Y-78582716D01*
X138535266Y-78622203D01*
X138511186Y-78667253D01*
X138482795Y-78709744D01*
X138463237Y-78756961D01*
X138439159Y-78802008D01*
X138424332Y-78850884D01*
X138404774Y-78898102D01*
X138394804Y-78948226D01*
X138379976Y-78997106D01*
X138374969Y-79047942D01*
X138365000Y-79098061D01*
X138365000Y-79149163D01*
X138365001Y-92171288D01*
X131504097Y-99032193D01*
X131464604Y-99064604D01*
X131335266Y-99222203D01*
X131239159Y-99402008D01*
X131179976Y-99597106D01*
X131165000Y-99749163D01*
X131165000Y-99749172D01*
X131159994Y-99800000D01*
X100660000Y-99800000D01*
X100660000Y-89567475D01*
X108065000Y-89567475D01*
X108065000Y-90086525D01*
X108166261Y-90595601D01*
X108364893Y-91075141D01*
X108653262Y-91506715D01*
X109020285Y-91873738D01*
X109451859Y-92162107D01*
X109931399Y-92360739D01*
X110440475Y-92462000D01*
X110959525Y-92462000D01*
X111468601Y-92360739D01*
X111948141Y-92162107D01*
X112379715Y-91873738D01*
X112746738Y-91506715D01*
X113035107Y-91075141D01*
X113233739Y-90595601D01*
X113335000Y-90086525D01*
X113335000Y-89567475D01*
X113233739Y-89058399D01*
X113035107Y-88578859D01*
X112746738Y-88147285D01*
X112379715Y-87780262D01*
X111948141Y-87491893D01*
X111468601Y-87293261D01*
X110959525Y-87192000D01*
X110440475Y-87192000D01*
X109931399Y-87293261D01*
X109451859Y-87491893D01*
X109020285Y-87780262D01*
X108653262Y-88147285D01*
X108364893Y-88578859D01*
X108166261Y-89058399D01*
X108065000Y-89567475D01*
X100660000Y-89567475D01*
X100660000Y-83572000D01*
X108061928Y-83572000D01*
X108074188Y-83696482D01*
X108110498Y-83816180D01*
X108169463Y-83926494D01*
X108248815Y-84023185D01*
X108345506Y-84102537D01*
X108455820Y-84161502D01*
X108575518Y-84197812D01*
X108700000Y-84210072D01*
X110414250Y-84207000D01*
X110573000Y-84048250D01*
X110573000Y-81699000D01*
X110827000Y-81699000D01*
X110827000Y-84048250D01*
X110985750Y-84207000D01*
X112700000Y-84210072D01*
X112824482Y-84197812D01*
X112944180Y-84161502D01*
X113054494Y-84102537D01*
X113151185Y-84023185D01*
X113230537Y-83926494D01*
X113289502Y-83816180D01*
X113325812Y-83696482D01*
X113338072Y-83572000D01*
X113335000Y-81857750D01*
X113176250Y-81699000D01*
X110827000Y-81699000D01*
X110573000Y-81699000D01*
X108223750Y-81699000D01*
X108065000Y-81857750D01*
X108061928Y-83572000D01*
X100660000Y-83572000D01*
X100660000Y-81648061D01*
X127965000Y-81648061D01*
X127965000Y-81851939D01*
X128004774Y-82051898D01*
X128082795Y-82240256D01*
X128089306Y-82250000D01*
X128082795Y-82259744D01*
X128004774Y-82448102D01*
X127965000Y-82648061D01*
X127965000Y-82851939D01*
X128004774Y-83051898D01*
X128082795Y-83240256D01*
X128196063Y-83409774D01*
X128340226Y-83553937D01*
X128509744Y-83667205D01*
X128698102Y-83745226D01*
X128898061Y-83785000D01*
X129101939Y-83785000D01*
X129301898Y-83745226D01*
X129490256Y-83667205D01*
X129659774Y-83553937D01*
X129803937Y-83409774D01*
X129917205Y-83240256D01*
X129995226Y-83051898D01*
X130035000Y-82851939D01*
X130035000Y-82648061D01*
X129995226Y-82448102D01*
X129917205Y-82259744D01*
X129910694Y-82250000D01*
X129917205Y-82240256D01*
X129995226Y-82051898D01*
X130035000Y-81851939D01*
X130035000Y-81648061D01*
X129995226Y-81448102D01*
X129917205Y-81259744D01*
X129803937Y-81090226D01*
X129659774Y-80946063D01*
X129490256Y-80832795D01*
X129301898Y-80754774D01*
X129101939Y-80715000D01*
X128898061Y-80715000D01*
X128698102Y-80754774D01*
X128509744Y-80832795D01*
X128340226Y-80946063D01*
X128196063Y-81090226D01*
X128082795Y-81259744D01*
X128004774Y-81448102D01*
X127965000Y-81648061D01*
X100660000Y-81648061D01*
X100660000Y-79572000D01*
X108061928Y-79572000D01*
X108065000Y-81286250D01*
X108223750Y-81445000D01*
X110573000Y-81445000D01*
X110573000Y-79095750D01*
X110827000Y-79095750D01*
X110827000Y-81445000D01*
X113176250Y-81445000D01*
X113335000Y-81286250D01*
X113338072Y-79572000D01*
X113325812Y-79447518D01*
X113289502Y-79327820D01*
X113230537Y-79217506D01*
X113151185Y-79120815D01*
X113054494Y-79041463D01*
X112944180Y-78982498D01*
X112824482Y-78946188D01*
X112700000Y-78933928D01*
X110985750Y-78937000D01*
X110827000Y-79095750D01*
X110573000Y-79095750D01*
X110414250Y-78937000D01*
X108700000Y-78933928D01*
X108575518Y-78946188D01*
X108455820Y-78982498D01*
X108345506Y-79041463D01*
X108248815Y-79120815D01*
X108169463Y-79217506D01*
X108110498Y-79327820D01*
X108074188Y-79447518D01*
X108061928Y-79572000D01*
X100660000Y-79572000D01*
X100660000Y-70725701D01*
X103215000Y-70725701D01*
X103215000Y-71274299D01*
X103322026Y-71812354D01*
X103531965Y-72319192D01*
X103836750Y-72775334D01*
X104224666Y-73163250D01*
X104680808Y-73468035D01*
X105187646Y-73677974D01*
X105725701Y-73785000D01*
X106274299Y-73785000D01*
X106812354Y-73677974D01*
X107319192Y-73468035D01*
X107775334Y-73163250D01*
X108163250Y-72775334D01*
X108248291Y-72648061D01*
X125965000Y-72648061D01*
X125965000Y-72851939D01*
X126004774Y-73051898D01*
X126082795Y-73240256D01*
X126196063Y-73409774D01*
X126340226Y-73553937D01*
X126509744Y-73667205D01*
X126698102Y-73745226D01*
X126898061Y-73785000D01*
X126987489Y-73785000D01*
X126965000Y-73898061D01*
X126965000Y-74101939D01*
X127004774Y-74301898D01*
X127082795Y-74490256D01*
X127172828Y-74625000D01*
X127082795Y-74759744D01*
X127004774Y-74948102D01*
X126965000Y-75148061D01*
X126965000Y-75215000D01*
X126898061Y-75215000D01*
X126698102Y-75254774D01*
X126509744Y-75332795D01*
X126340226Y-75446063D01*
X126196063Y-75590226D01*
X126082795Y-75759744D01*
X126004774Y-75948102D01*
X125965000Y-76148061D01*
X125965000Y-76351939D01*
X126004774Y-76551898D01*
X126082795Y-76740256D01*
X126196063Y-76909774D01*
X126340226Y-77053937D01*
X126509744Y-77167205D01*
X126698102Y-77245226D01*
X126898061Y-77285000D01*
X127101939Y-77285000D01*
X127301898Y-77245226D01*
X127490256Y-77167205D01*
X127659774Y-77053937D01*
X127803937Y-76909774D01*
X127877285Y-76800000D01*
X137159994Y-76800000D01*
X137165000Y-76850828D01*
X137165000Y-76901939D01*
X137174971Y-76952067D01*
X137179977Y-77002895D01*
X137194803Y-77051768D01*
X137204774Y-77101898D01*
X137224335Y-77149122D01*
X137239160Y-77197993D01*
X137263236Y-77243036D01*
X137282795Y-77290256D01*
X137311187Y-77332748D01*
X137335266Y-77377797D01*
X137367672Y-77417284D01*
X137396063Y-77459774D01*
X137432197Y-77495908D01*
X137464604Y-77535396D01*
X137504092Y-77567803D01*
X137540226Y-77603937D01*
X137582716Y-77632328D01*
X137622203Y-77664734D01*
X137667252Y-77688813D01*
X137709744Y-77717205D01*
X137756964Y-77736764D01*
X137802007Y-77760840D01*
X137850878Y-77775665D01*
X137898102Y-77795226D01*
X137948232Y-77805197D01*
X137997105Y-77820023D01*
X138047933Y-77825029D01*
X138098061Y-77835000D01*
X138149172Y-77835000D01*
X138200000Y-77840006D01*
X138250828Y-77835000D01*
X138301939Y-77835000D01*
X138352067Y-77825029D01*
X138402895Y-77820023D01*
X138451768Y-77805197D01*
X138501898Y-77795226D01*
X138549122Y-77775665D01*
X138597993Y-77760840D01*
X138643036Y-77736764D01*
X138690256Y-77717205D01*
X138732748Y-77688813D01*
X138777797Y-77664734D01*
X138817283Y-77632329D01*
X138859774Y-77603937D01*
X139003937Y-77459774D01*
X139003939Y-77459771D01*
X140028711Y-76435000D01*
X141697435Y-76435000D01*
X141665000Y-76598061D01*
X141665000Y-76801939D01*
X141704774Y-77001898D01*
X141782795Y-77190256D01*
X141889532Y-77350000D01*
X141782795Y-77509744D01*
X141704774Y-77698102D01*
X141665000Y-77898061D01*
X141665000Y-78101939D01*
X141704774Y-78301898D01*
X141782795Y-78490256D01*
X141896063Y-78659774D01*
X141936289Y-78700000D01*
X141896063Y-78740226D01*
X141782795Y-78909744D01*
X141704774Y-79098102D01*
X141665000Y-79298061D01*
X141665000Y-79501939D01*
X141704774Y-79701898D01*
X141782795Y-79890256D01*
X141896063Y-80059774D01*
X142040226Y-80203937D01*
X142209744Y-80317205D01*
X142398102Y-80395226D01*
X142598061Y-80435000D01*
X142801939Y-80435000D01*
X143001898Y-80395226D01*
X143052130Y-80374419D01*
X148486161Y-85808451D01*
X148531993Y-85959540D01*
X148618814Y-86121972D01*
X148735656Y-86264344D01*
X148878028Y-86381186D01*
X149040460Y-86468007D01*
X149191549Y-86513839D01*
X149771333Y-87093623D01*
X149878028Y-87181185D01*
X150040459Y-87268006D01*
X150216707Y-87321471D01*
X150399999Y-87339524D01*
X150583291Y-87321471D01*
X150759540Y-87268006D01*
X150921971Y-87181185D01*
X151064343Y-87064343D01*
X151181185Y-86921971D01*
X151268006Y-86759540D01*
X151321471Y-86583291D01*
X151326227Y-86535000D01*
X159965000Y-86535000D01*
X159965000Y-86701939D01*
X160004774Y-86901898D01*
X160082795Y-87090256D01*
X160196063Y-87259774D01*
X160340226Y-87403937D01*
X160509744Y-87517205D01*
X160655142Y-87577431D01*
X163722569Y-90644859D01*
X163782795Y-90790256D01*
X163896063Y-90959774D01*
X164040226Y-91103937D01*
X164209744Y-91217205D01*
X164355142Y-91277431D01*
X170822569Y-97744859D01*
X170882795Y-97890256D01*
X170996063Y-98059774D01*
X171140226Y-98203937D01*
X171309744Y-98317205D01*
X171498102Y-98395226D01*
X171698061Y-98435000D01*
X171901939Y-98435000D01*
X172101898Y-98395226D01*
X172290256Y-98317205D01*
X172459774Y-98203937D01*
X172603937Y-98059774D01*
X172717205Y-97890256D01*
X172795226Y-97701898D01*
X172817750Y-97588660D01*
X172990256Y-97517205D01*
X173159774Y-97403937D01*
X173303937Y-97259774D01*
X173417205Y-97090256D01*
X173495226Y-96901898D01*
X173535000Y-96701939D01*
X173535000Y-96498061D01*
X173495226Y-96298102D01*
X173417205Y-96109744D01*
X173303937Y-95940226D01*
X173159774Y-95796063D01*
X172990256Y-95682795D01*
X172844859Y-95622569D01*
X164254350Y-87032060D01*
X169831001Y-87032060D01*
X169831001Y-87235938D01*
X169870775Y-87435897D01*
X169948796Y-87624255D01*
X170062064Y-87793773D01*
X170206227Y-87937936D01*
X170375745Y-88051204D01*
X170521143Y-88111430D01*
X171073001Y-88663288D01*
X170996063Y-88740226D01*
X170882795Y-88909744D01*
X170804774Y-89098102D01*
X170765000Y-89298061D01*
X170765000Y-89501939D01*
X170804774Y-89701898D01*
X170882795Y-89890256D01*
X170996063Y-90059774D01*
X171140226Y-90203937D01*
X171309744Y-90317205D01*
X171455142Y-90377431D01*
X177265001Y-96187290D01*
X177265000Y-100040083D01*
X177265001Y-100040093D01*
X177265000Y-109152704D01*
X177204774Y-109298102D01*
X177165000Y-109498061D01*
X177165000Y-109701939D01*
X177204774Y-109901898D01*
X177282795Y-110090256D01*
X177396063Y-110259774D01*
X177540226Y-110403937D01*
X177709744Y-110517205D01*
X177898102Y-110595226D01*
X178098061Y-110635000D01*
X178301939Y-110635000D01*
X178501898Y-110595226D01*
X178690256Y-110517205D01*
X178859774Y-110403937D01*
X178900000Y-110363711D01*
X178940226Y-110403937D01*
X179109744Y-110517205D01*
X179298102Y-110595226D01*
X179498061Y-110635000D01*
X179701939Y-110635000D01*
X179901898Y-110595226D01*
X180090256Y-110517205D01*
X180259774Y-110403937D01*
X180400000Y-110263711D01*
X180540226Y-110403937D01*
X180709744Y-110517205D01*
X180898102Y-110595226D01*
X181098061Y-110635000D01*
X181301939Y-110635000D01*
X181501898Y-110595226D01*
X181690256Y-110517205D01*
X181859774Y-110403937D01*
X181900000Y-110363711D01*
X181940226Y-110403937D01*
X182109744Y-110517205D01*
X182298102Y-110595226D01*
X182498061Y-110635000D01*
X182701939Y-110635000D01*
X182901898Y-110595226D01*
X183090256Y-110517205D01*
X183259774Y-110403937D01*
X183403937Y-110259774D01*
X183517205Y-110090256D01*
X183574471Y-109952004D01*
X183681186Y-109821972D01*
X183768007Y-109659540D01*
X183821471Y-109483292D01*
X183835000Y-109345932D01*
X183839524Y-109300001D01*
X183835000Y-109254069D01*
X183835000Y-96345924D01*
X183839523Y-96299999D01*
X183835000Y-96254074D01*
X183835000Y-96254068D01*
X183821471Y-96116708D01*
X183768007Y-95940460D01*
X183681186Y-95778028D01*
X183564344Y-95635656D01*
X183528666Y-95606376D01*
X174777431Y-86855142D01*
X174717205Y-86709744D01*
X174603937Y-86540226D01*
X174561772Y-86498061D01*
X187365000Y-86498061D01*
X187365000Y-86701939D01*
X187404774Y-86901898D01*
X187482795Y-87090256D01*
X187556123Y-87200000D01*
X187482795Y-87309744D01*
X187404774Y-87498102D01*
X187365000Y-87698061D01*
X187365000Y-87901939D01*
X187404774Y-88101898D01*
X187482795Y-88290256D01*
X187556123Y-88400000D01*
X187482795Y-88509744D01*
X187404774Y-88698102D01*
X187365000Y-88898061D01*
X187365000Y-89101939D01*
X187404774Y-89301898D01*
X187482795Y-89490256D01*
X187556123Y-89600000D01*
X187482795Y-89709744D01*
X187404774Y-89898102D01*
X187365000Y-90098061D01*
X187365000Y-90301939D01*
X187404774Y-90501898D01*
X187482795Y-90690256D01*
X187596063Y-90859774D01*
X187740226Y-91003937D01*
X187909744Y-91117205D01*
X188098102Y-91195226D01*
X188298061Y-91235000D01*
X188501939Y-91235000D01*
X188701898Y-91195226D01*
X188890256Y-91117205D01*
X189059774Y-91003937D01*
X189203937Y-90859774D01*
X189317205Y-90690256D01*
X189395226Y-90501898D01*
X189435000Y-90301939D01*
X189435000Y-90098061D01*
X189395226Y-89898102D01*
X189317205Y-89709744D01*
X189243877Y-89600000D01*
X189317205Y-89490256D01*
X189395226Y-89301898D01*
X189435000Y-89101939D01*
X189435000Y-88898061D01*
X189395226Y-88698102D01*
X189317205Y-88509744D01*
X189243877Y-88400000D01*
X189317205Y-88290256D01*
X189395226Y-88101898D01*
X189435000Y-87901939D01*
X189435000Y-87698061D01*
X189395226Y-87498102D01*
X189317205Y-87309744D01*
X189243877Y-87200000D01*
X189317205Y-87090256D01*
X189395226Y-86901898D01*
X189435000Y-86701939D01*
X189435000Y-86498061D01*
X189395226Y-86298102D01*
X189317205Y-86109744D01*
X189203937Y-85940226D01*
X189059774Y-85796063D01*
X188890256Y-85682795D01*
X188701898Y-85604774D01*
X188501939Y-85565000D01*
X188298061Y-85565000D01*
X188098102Y-85604774D01*
X187909744Y-85682795D01*
X187740226Y-85796063D01*
X187596063Y-85940226D01*
X187482795Y-86109744D01*
X187404774Y-86298102D01*
X187365000Y-86498061D01*
X174561772Y-86498061D01*
X174459774Y-86396063D01*
X174290256Y-86282795D01*
X174101898Y-86204774D01*
X173901939Y-86165000D01*
X173698061Y-86165000D01*
X173498102Y-86204774D01*
X173309744Y-86282795D01*
X173140226Y-86396063D01*
X172996063Y-86540226D01*
X172970409Y-86578619D01*
X172901939Y-86565000D01*
X172698061Y-86565000D01*
X172498102Y-86604774D01*
X172309744Y-86682795D01*
X172140226Y-86796063D01*
X171996063Y-86940226D01*
X171995444Y-86941153D01*
X171843432Y-86789141D01*
X171783206Y-86643743D01*
X171669938Y-86474225D01*
X171525775Y-86330062D01*
X171356257Y-86216794D01*
X171167899Y-86138773D01*
X170967940Y-86098999D01*
X170764062Y-86098999D01*
X170564103Y-86138773D01*
X170375745Y-86216794D01*
X170206227Y-86330062D01*
X170062064Y-86474225D01*
X169948796Y-86643743D01*
X169870775Y-86832101D01*
X169831001Y-87032060D01*
X164254350Y-87032060D01*
X162193630Y-84971341D01*
X162164344Y-84935656D01*
X162021972Y-84818814D01*
X161859540Y-84731993D01*
X161683292Y-84678529D01*
X161545932Y-84665000D01*
X161500000Y-84660476D01*
X161454068Y-84665000D01*
X151002565Y-84665000D01*
X151005196Y-84651777D01*
X151020024Y-84602895D01*
X151025031Y-84552057D01*
X151035000Y-84501939D01*
X151035000Y-83250827D01*
X151040006Y-83199999D01*
X151035000Y-83149171D01*
X151035000Y-83149162D01*
X151020024Y-82997105D01*
X150960841Y-82802007D01*
X150888788Y-82667205D01*
X150864734Y-82622202D01*
X150767803Y-82504092D01*
X150735396Y-82464604D01*
X150695908Y-82432197D01*
X150561772Y-82298061D01*
X164565000Y-82298061D01*
X164565000Y-82501939D01*
X164604774Y-82701898D01*
X164682795Y-82890256D01*
X164796063Y-83059774D01*
X164940226Y-83203937D01*
X165109744Y-83317205D01*
X165298102Y-83395226D01*
X165498061Y-83435000D01*
X165701939Y-83435000D01*
X165901898Y-83395226D01*
X166090256Y-83317205D01*
X166259774Y-83203937D01*
X166400000Y-83063711D01*
X166540226Y-83203937D01*
X166709744Y-83317205D01*
X166898102Y-83395226D01*
X167098061Y-83435000D01*
X167301939Y-83435000D01*
X167501898Y-83395226D01*
X167690256Y-83317205D01*
X167859774Y-83203937D01*
X168003937Y-83059774D01*
X168117205Y-82890256D01*
X168195226Y-82701898D01*
X168235000Y-82501939D01*
X168235000Y-82298061D01*
X168195226Y-82098102D01*
X168117205Y-81909744D01*
X168003937Y-81740226D01*
X167859774Y-81596063D01*
X167690256Y-81482795D01*
X167501898Y-81404774D01*
X167301939Y-81365000D01*
X167098061Y-81365000D01*
X166898102Y-81404774D01*
X166709744Y-81482795D01*
X166540226Y-81596063D01*
X166400000Y-81736289D01*
X166259774Y-81596063D01*
X166090256Y-81482795D01*
X165901898Y-81404774D01*
X165701939Y-81365000D01*
X165498061Y-81365000D01*
X165298102Y-81404774D01*
X165109744Y-81482795D01*
X164940226Y-81596063D01*
X164796063Y-81740226D01*
X164682795Y-81909744D01*
X164604774Y-82098102D01*
X164565000Y-82298061D01*
X150561772Y-82298061D01*
X147898711Y-79635001D01*
X155758981Y-79635001D01*
X155799999Y-79639041D01*
X155841017Y-79635001D01*
X155841018Y-79635001D01*
X155963688Y-79622919D01*
X156121086Y-79575173D01*
X156266145Y-79497637D01*
X156393290Y-79393292D01*
X156419445Y-79361422D01*
X156756775Y-79024093D01*
X156901898Y-78995226D01*
X157090256Y-78917205D01*
X157259774Y-78803937D01*
X157403937Y-78659774D01*
X157517205Y-78490256D01*
X157595226Y-78301898D01*
X157635000Y-78101939D01*
X157635000Y-77898061D01*
X157614591Y-77795459D01*
X157975908Y-78156775D01*
X158004774Y-78301898D01*
X158082795Y-78490256D01*
X158196063Y-78659774D01*
X158340226Y-78803937D01*
X158509744Y-78917205D01*
X158698102Y-78995226D01*
X158898061Y-79035000D01*
X159101939Y-79035000D01*
X159301898Y-78995226D01*
X159490256Y-78917205D01*
X159659774Y-78803937D01*
X159803937Y-78659774D01*
X159917205Y-78490256D01*
X159995226Y-78301898D01*
X160035000Y-78101939D01*
X160035000Y-77898061D01*
X159995226Y-77698102D01*
X159917205Y-77509744D01*
X159803937Y-77340226D01*
X159659774Y-77196063D01*
X159490256Y-77082795D01*
X159301898Y-77004774D01*
X159156775Y-76975908D01*
X158478928Y-76298061D01*
X163765000Y-76298061D01*
X163765000Y-76501939D01*
X163804774Y-76701898D01*
X163882795Y-76890256D01*
X163889306Y-76900000D01*
X163882795Y-76909744D01*
X163804774Y-77098102D01*
X163765000Y-77298061D01*
X163765000Y-77501939D01*
X163804774Y-77701898D01*
X163882795Y-77890256D01*
X163889306Y-77900000D01*
X163882795Y-77909744D01*
X163804774Y-78098102D01*
X163765000Y-78298061D01*
X163765000Y-78501939D01*
X163804774Y-78701898D01*
X163882795Y-78890256D01*
X163889306Y-78900000D01*
X163882795Y-78909744D01*
X163804774Y-79098102D01*
X163765000Y-79298061D01*
X163765000Y-79501939D01*
X163804774Y-79701898D01*
X163882795Y-79890256D01*
X163996063Y-80059774D01*
X164140226Y-80203937D01*
X164309744Y-80317205D01*
X164498102Y-80395226D01*
X164698061Y-80435000D01*
X164901939Y-80435000D01*
X165101898Y-80395226D01*
X165290256Y-80317205D01*
X165459774Y-80203937D01*
X165603937Y-80059774D01*
X165717205Y-79890256D01*
X165795226Y-79701898D01*
X165835000Y-79501939D01*
X165835000Y-79298061D01*
X165795226Y-79098102D01*
X165717205Y-78909744D01*
X165710694Y-78900000D01*
X165717205Y-78890256D01*
X165795226Y-78701898D01*
X165835000Y-78501939D01*
X165835000Y-78298061D01*
X165795226Y-78098102D01*
X165717205Y-77909744D01*
X165710694Y-77900000D01*
X165717205Y-77890256D01*
X165795226Y-77701898D01*
X165835000Y-77501939D01*
X165835000Y-77298061D01*
X165795226Y-77098102D01*
X165717205Y-76909744D01*
X165710694Y-76900000D01*
X165717205Y-76890256D01*
X165795226Y-76701898D01*
X165835000Y-76501939D01*
X165835000Y-76298061D01*
X165795226Y-76098102D01*
X165717205Y-75909744D01*
X165603937Y-75740226D01*
X165459774Y-75596063D01*
X165290256Y-75482795D01*
X165101898Y-75404774D01*
X164901939Y-75365000D01*
X164698061Y-75365000D01*
X164498102Y-75404774D01*
X164309744Y-75482795D01*
X164140226Y-75596063D01*
X163996063Y-75740226D01*
X163882795Y-75909744D01*
X163804774Y-76098102D01*
X163765000Y-76298061D01*
X158478928Y-76298061D01*
X158219440Y-76038573D01*
X158193290Y-76006709D01*
X158066145Y-75902364D01*
X157921086Y-75824828D01*
X157763688Y-75777082D01*
X157600000Y-75760960D01*
X157558981Y-75765000D01*
X150441027Y-75765002D01*
X150399998Y-75760961D01*
X150236310Y-75777083D01*
X150078912Y-75824829D01*
X149933854Y-75902365D01*
X149933852Y-75902366D01*
X149933853Y-75902366D01*
X149844568Y-75975640D01*
X149698102Y-76004774D01*
X149509744Y-76082795D01*
X149340226Y-76196063D01*
X149196063Y-76340226D01*
X149082795Y-76509744D01*
X149004774Y-76698102D01*
X148965000Y-76898061D01*
X148965000Y-77101939D01*
X148977544Y-77165001D01*
X147471573Y-77165002D01*
X147488813Y-77132748D01*
X147517205Y-77090256D01*
X147536764Y-77043036D01*
X147560840Y-76997993D01*
X147575665Y-76949123D01*
X147595226Y-76901898D01*
X147605198Y-76851766D01*
X147620023Y-76802894D01*
X147625029Y-76752068D01*
X147635000Y-76701939D01*
X147635000Y-76650827D01*
X147640006Y-76599999D01*
X147635000Y-76549171D01*
X147635000Y-76498061D01*
X147625029Y-76447934D01*
X147620023Y-76397104D01*
X147605197Y-76348229D01*
X147595226Y-76298102D01*
X147575666Y-76250881D01*
X147560840Y-76202006D01*
X147536762Y-76156959D01*
X147517205Y-76109744D01*
X147488816Y-76067256D01*
X147464734Y-76022202D01*
X147432325Y-75982712D01*
X147403937Y-75940226D01*
X147259774Y-75796063D01*
X146228242Y-74764531D01*
X181215074Y-74764531D01*
X181325921Y-75041714D01*
X181636840Y-75195089D01*
X181971705Y-75284860D01*
X182317650Y-75307576D01*
X182661380Y-75262366D01*
X182989685Y-75150966D01*
X183194079Y-75041714D01*
X183304926Y-74764531D01*
X186295074Y-74764531D01*
X186405921Y-75041714D01*
X186716840Y-75195089D01*
X187051705Y-75284860D01*
X187397650Y-75307576D01*
X187741380Y-75262366D01*
X188069685Y-75150966D01*
X188274079Y-75041714D01*
X188384926Y-74764531D01*
X187340000Y-73719605D01*
X186295074Y-74764531D01*
X183304926Y-74764531D01*
X182260000Y-73719605D01*
X181215074Y-74764531D01*
X146228242Y-74764531D01*
X146167807Y-74704097D01*
X146135396Y-74664604D01*
X145977797Y-74535266D01*
X145797993Y-74439159D01*
X145602895Y-74379976D01*
X145450838Y-74365000D01*
X145450828Y-74365000D01*
X145400000Y-74359994D01*
X145349172Y-74365000D01*
X139650835Y-74365000D01*
X139600000Y-74359993D01*
X139549164Y-74365000D01*
X139549162Y-74365000D01*
X139397105Y-74379976D01*
X139202007Y-74439159D01*
X139136676Y-74474079D01*
X139022202Y-74535266D01*
X138904092Y-74632197D01*
X138864604Y-74664604D01*
X138832197Y-74704092D01*
X137540229Y-75996061D01*
X137540226Y-75996063D01*
X137396063Y-76140226D01*
X137367671Y-76182717D01*
X137335266Y-76222203D01*
X137311187Y-76267252D01*
X137282795Y-76309744D01*
X137263236Y-76356964D01*
X137239160Y-76402007D01*
X137224335Y-76450878D01*
X137204774Y-76498102D01*
X137194803Y-76548232D01*
X137179977Y-76597105D01*
X137174971Y-76647933D01*
X137165000Y-76698061D01*
X137165000Y-76749172D01*
X137159994Y-76800000D01*
X127877285Y-76800000D01*
X127917205Y-76740256D01*
X127995226Y-76551898D01*
X128035000Y-76351939D01*
X128035000Y-76285000D01*
X128101939Y-76285000D01*
X128301898Y-76245226D01*
X128490256Y-76167205D01*
X128659774Y-76053937D01*
X128803937Y-75909774D01*
X128917205Y-75740256D01*
X128995226Y-75551898D01*
X129035000Y-75351939D01*
X129035000Y-75148061D01*
X128995226Y-74948102D01*
X128917205Y-74759744D01*
X128827172Y-74625000D01*
X128917205Y-74490256D01*
X128995226Y-74301898D01*
X129035000Y-74101939D01*
X129035000Y-73898061D01*
X128995226Y-73698102D01*
X128917205Y-73509744D01*
X128803937Y-73340226D01*
X128761772Y-73298061D01*
X164565000Y-73298061D01*
X164565000Y-73501939D01*
X164604774Y-73701898D01*
X164682795Y-73890256D01*
X164796063Y-74059774D01*
X164940226Y-74203937D01*
X165109744Y-74317205D01*
X165298102Y-74395226D01*
X165498061Y-74435000D01*
X165701939Y-74435000D01*
X165901898Y-74395226D01*
X166090256Y-74317205D01*
X166259774Y-74203937D01*
X166403937Y-74059774D01*
X166500000Y-73916005D01*
X166596063Y-74059774D01*
X166740226Y-74203937D01*
X166909744Y-74317205D01*
X167098102Y-74395226D01*
X167298061Y-74435000D01*
X167501939Y-74435000D01*
X167701898Y-74395226D01*
X167890256Y-74317205D01*
X168059774Y-74203937D01*
X168203937Y-74059774D01*
X168317205Y-73890256D01*
X168395226Y-73701898D01*
X168415962Y-73597650D01*
X180492424Y-73597650D01*
X180537634Y-73941380D01*
X180649034Y-74269685D01*
X180758286Y-74474079D01*
X181035469Y-74584926D01*
X182080395Y-73540000D01*
X182439605Y-73540000D01*
X183484531Y-74584926D01*
X183761714Y-74474079D01*
X183915089Y-74163160D01*
X184004860Y-73828295D01*
X184020004Y-73597650D01*
X185572424Y-73597650D01*
X185617634Y-73941380D01*
X185729034Y-74269685D01*
X185838286Y-74474079D01*
X186115469Y-74584926D01*
X187160395Y-73540000D01*
X187519605Y-73540000D01*
X188564531Y-74584926D01*
X188841714Y-74474079D01*
X188995089Y-74163160D01*
X189084860Y-73828295D01*
X189107576Y-73482350D01*
X189062366Y-73138620D01*
X188950966Y-72810315D01*
X188841714Y-72605921D01*
X188564531Y-72495074D01*
X187519605Y-73540000D01*
X187160395Y-73540000D01*
X186115469Y-72495074D01*
X185838286Y-72605921D01*
X185684911Y-72916840D01*
X185595140Y-73251705D01*
X185572424Y-73597650D01*
X184020004Y-73597650D01*
X184027576Y-73482350D01*
X183982366Y-73138620D01*
X183870966Y-72810315D01*
X183761714Y-72605921D01*
X183484531Y-72495074D01*
X182439605Y-73540000D01*
X182080395Y-73540000D01*
X181035469Y-72495074D01*
X180758286Y-72605921D01*
X180604911Y-72916840D01*
X180515140Y-73251705D01*
X180492424Y-73597650D01*
X168415962Y-73597650D01*
X168435000Y-73501939D01*
X168435000Y-73298061D01*
X168395226Y-73098102D01*
X168317205Y-72909744D01*
X168203937Y-72740226D01*
X168059774Y-72596063D01*
X168004548Y-72559163D01*
X168103937Y-72459774D01*
X168217205Y-72290256D01*
X168295226Y-72101898D01*
X168335000Y-71901939D01*
X168335000Y-71698061D01*
X169665000Y-71698061D01*
X169665000Y-71901939D01*
X169704774Y-72101898D01*
X169782795Y-72290256D01*
X169896063Y-72459774D01*
X170040226Y-72603937D01*
X170209744Y-72717205D01*
X170398102Y-72795226D01*
X170598061Y-72835000D01*
X170801939Y-72835000D01*
X171001898Y-72795226D01*
X171190256Y-72717205D01*
X171359774Y-72603937D01*
X171503937Y-72459774D01*
X171600358Y-72315469D01*
X181215074Y-72315469D01*
X182260000Y-73360395D01*
X183304926Y-72315469D01*
X183194079Y-72038286D01*
X182883160Y-71884911D01*
X182548295Y-71795140D01*
X182202350Y-71772424D01*
X181858620Y-71817634D01*
X181530315Y-71929034D01*
X181325921Y-72038286D01*
X181215074Y-72315469D01*
X171600358Y-72315469D01*
X171617205Y-72290256D01*
X171695226Y-72101898D01*
X171735000Y-71901939D01*
X171735000Y-71698061D01*
X171695226Y-71498102D01*
X171617205Y-71309744D01*
X171503937Y-71140226D01*
X171359774Y-70996063D01*
X171190256Y-70882795D01*
X171078501Y-70836504D01*
X183140000Y-70836504D01*
X183140000Y-71163496D01*
X183203793Y-71484204D01*
X183328927Y-71786305D01*
X183510594Y-72058188D01*
X183741812Y-72289406D01*
X184013695Y-72471073D01*
X184315796Y-72596207D01*
X184636504Y-72660000D01*
X184963496Y-72660000D01*
X185284204Y-72596207D01*
X185586305Y-72471073D01*
X185819182Y-72315469D01*
X186295074Y-72315469D01*
X187340000Y-73360395D01*
X188384926Y-72315469D01*
X188274079Y-72038286D01*
X187963160Y-71884911D01*
X187628295Y-71795140D01*
X187282350Y-71772424D01*
X186938620Y-71817634D01*
X186610315Y-71929034D01*
X186405921Y-72038286D01*
X186295074Y-72315469D01*
X185819182Y-72315469D01*
X185858188Y-72289406D01*
X186089406Y-72058188D01*
X186271073Y-71786305D01*
X186396207Y-71484204D01*
X186460000Y-71163496D01*
X186460000Y-70836504D01*
X186437960Y-70725701D01*
X191215000Y-70725701D01*
X191215000Y-71274299D01*
X191322026Y-71812354D01*
X191531965Y-72319192D01*
X191836750Y-72775334D01*
X192224666Y-73163250D01*
X192680808Y-73468035D01*
X193187646Y-73677974D01*
X193725701Y-73785000D01*
X194274299Y-73785000D01*
X194812354Y-73677974D01*
X195319192Y-73468035D01*
X195775334Y-73163250D01*
X196163250Y-72775334D01*
X196468035Y-72319192D01*
X196677974Y-71812354D01*
X196785000Y-71274299D01*
X196785000Y-70725701D01*
X196677974Y-70187646D01*
X196468035Y-69680808D01*
X196163250Y-69224666D01*
X195775334Y-68836750D01*
X195319192Y-68531965D01*
X194812354Y-68322026D01*
X194274299Y-68215000D01*
X193725701Y-68215000D01*
X193187646Y-68322026D01*
X192680808Y-68531965D01*
X192224666Y-68836750D01*
X191836750Y-69224666D01*
X191531965Y-69680808D01*
X191322026Y-70187646D01*
X191215000Y-70725701D01*
X186437960Y-70725701D01*
X186396207Y-70515796D01*
X186271073Y-70213695D01*
X186089406Y-69941812D01*
X185858188Y-69710594D01*
X185819183Y-69684531D01*
X186295074Y-69684531D01*
X186405921Y-69961714D01*
X186716840Y-70115089D01*
X187051705Y-70204860D01*
X187397650Y-70227576D01*
X187741380Y-70182366D01*
X188069685Y-70070966D01*
X188274079Y-69961714D01*
X188384926Y-69684531D01*
X187340000Y-68639605D01*
X186295074Y-69684531D01*
X185819183Y-69684531D01*
X185586305Y-69528927D01*
X185284204Y-69403793D01*
X184963496Y-69340000D01*
X184636504Y-69340000D01*
X184315796Y-69403793D01*
X184013695Y-69528927D01*
X183741812Y-69710594D01*
X183510594Y-69941812D01*
X183328927Y-70213695D01*
X183203793Y-70515796D01*
X183140000Y-70836504D01*
X171078501Y-70836504D01*
X171001898Y-70804774D01*
X170801939Y-70765000D01*
X170598061Y-70765000D01*
X170398102Y-70804774D01*
X170209744Y-70882795D01*
X170040226Y-70996063D01*
X169896063Y-71140226D01*
X169782795Y-71309744D01*
X169704774Y-71498102D01*
X169665000Y-71698061D01*
X168335000Y-71698061D01*
X168295226Y-71498102D01*
X168217205Y-71309744D01*
X168103937Y-71140226D01*
X167959774Y-70996063D01*
X167790256Y-70882795D01*
X167601898Y-70804774D01*
X167401939Y-70765000D01*
X167198061Y-70765000D01*
X166998102Y-70804774D01*
X166809744Y-70882795D01*
X166640226Y-70996063D01*
X166496063Y-71140226D01*
X166382795Y-71309744D01*
X166304774Y-71498102D01*
X166265000Y-71698061D01*
X166265000Y-71901939D01*
X166304774Y-72101898D01*
X166382795Y-72290256D01*
X166496063Y-72459774D01*
X166640226Y-72603937D01*
X166695452Y-72640837D01*
X166596063Y-72740226D01*
X166500000Y-72883995D01*
X166403937Y-72740226D01*
X166259774Y-72596063D01*
X166090256Y-72482795D01*
X165901898Y-72404774D01*
X165701939Y-72365000D01*
X165498061Y-72365000D01*
X165298102Y-72404774D01*
X165109744Y-72482795D01*
X164940226Y-72596063D01*
X164796063Y-72740226D01*
X164682795Y-72909744D01*
X164604774Y-73098102D01*
X164565000Y-73298061D01*
X128761772Y-73298061D01*
X128659774Y-73196063D01*
X128490256Y-73082795D01*
X128301898Y-73004774D01*
X128101939Y-72965000D01*
X128012511Y-72965000D01*
X128035000Y-72851939D01*
X128035000Y-72648061D01*
X127995226Y-72448102D01*
X127917205Y-72259744D01*
X127803937Y-72090226D01*
X127659774Y-71946063D01*
X127490256Y-71832795D01*
X127301898Y-71754774D01*
X127101939Y-71715000D01*
X126898061Y-71715000D01*
X126698102Y-71754774D01*
X126509744Y-71832795D01*
X126340226Y-71946063D01*
X126196063Y-72090226D01*
X126082795Y-72259744D01*
X126004774Y-72448102D01*
X125965000Y-72648061D01*
X108248291Y-72648061D01*
X108468035Y-72319192D01*
X108677974Y-71812354D01*
X108785000Y-71274299D01*
X108785000Y-70725701D01*
X108677974Y-70187646D01*
X108657880Y-70139133D01*
X141140472Y-70139133D01*
X141202965Y-70375450D01*
X141445678Y-70488850D01*
X141705849Y-70552719D01*
X141973482Y-70564604D01*
X142238291Y-70524048D01*
X142490100Y-70432609D01*
X142597035Y-70375450D01*
X142659528Y-70139133D01*
X146140472Y-70139133D01*
X146202965Y-70375450D01*
X146445678Y-70488850D01*
X146705849Y-70552719D01*
X146973482Y-70564604D01*
X147238291Y-70524048D01*
X147490100Y-70432609D01*
X147597035Y-70375450D01*
X147659528Y-70139133D01*
X146900000Y-69379605D01*
X146140472Y-70139133D01*
X142659528Y-70139133D01*
X141900000Y-69379605D01*
X141140472Y-70139133D01*
X108657880Y-70139133D01*
X108468035Y-69680808D01*
X108195868Y-69273482D01*
X140535396Y-69273482D01*
X140575952Y-69538291D01*
X140667391Y-69790100D01*
X140724550Y-69897035D01*
X140960867Y-69959528D01*
X141720395Y-69200000D01*
X142079605Y-69200000D01*
X142839133Y-69959528D01*
X143075450Y-69897035D01*
X143188850Y-69654322D01*
X143252719Y-69394151D01*
X143258077Y-69273482D01*
X145535396Y-69273482D01*
X145575952Y-69538291D01*
X145667391Y-69790100D01*
X145724550Y-69897035D01*
X145960867Y-69959528D01*
X146720395Y-69200000D01*
X147079605Y-69200000D01*
X147839133Y-69959528D01*
X148075450Y-69897035D01*
X148174735Y-69684531D01*
X181215074Y-69684531D01*
X181325921Y-69961714D01*
X181636840Y-70115089D01*
X181971705Y-70204860D01*
X182317650Y-70227576D01*
X182661380Y-70182366D01*
X182989685Y-70070966D01*
X183194079Y-69961714D01*
X183304926Y-69684531D01*
X182260000Y-68639605D01*
X181215074Y-69684531D01*
X148174735Y-69684531D01*
X148188850Y-69654322D01*
X148252719Y-69394151D01*
X148264604Y-69126518D01*
X148224048Y-68861709D01*
X148132609Y-68609900D01*
X148083300Y-68517650D01*
X180492424Y-68517650D01*
X180537634Y-68861380D01*
X180649034Y-69189685D01*
X180758286Y-69394079D01*
X181035469Y-69504926D01*
X182080395Y-68460000D01*
X182439605Y-68460000D01*
X183484531Y-69504926D01*
X183761714Y-69394079D01*
X183915089Y-69083160D01*
X184004860Y-68748295D01*
X184020004Y-68517650D01*
X185572424Y-68517650D01*
X185617634Y-68861380D01*
X185729034Y-69189685D01*
X185838286Y-69394079D01*
X186115469Y-69504926D01*
X187160395Y-68460000D01*
X187519605Y-68460000D01*
X188564531Y-69504926D01*
X188841714Y-69394079D01*
X188995089Y-69083160D01*
X189084860Y-68748295D01*
X189107576Y-68402350D01*
X189062366Y-68058620D01*
X188950966Y-67730315D01*
X188841714Y-67525921D01*
X188564531Y-67415074D01*
X187519605Y-68460000D01*
X187160395Y-68460000D01*
X186115469Y-67415074D01*
X185838286Y-67525921D01*
X185684911Y-67836840D01*
X185595140Y-68171705D01*
X185572424Y-68517650D01*
X184020004Y-68517650D01*
X184027576Y-68402350D01*
X183982366Y-68058620D01*
X183870966Y-67730315D01*
X183761714Y-67525921D01*
X183484531Y-67415074D01*
X182439605Y-68460000D01*
X182080395Y-68460000D01*
X181035469Y-67415074D01*
X180758286Y-67525921D01*
X180604911Y-67836840D01*
X180515140Y-68171705D01*
X180492424Y-68517650D01*
X148083300Y-68517650D01*
X148075450Y-68502965D01*
X147839133Y-68440472D01*
X147079605Y-69200000D01*
X146720395Y-69200000D01*
X145960867Y-68440472D01*
X145724550Y-68502965D01*
X145611150Y-68745678D01*
X145547281Y-69005849D01*
X145535396Y-69273482D01*
X143258077Y-69273482D01*
X143264604Y-69126518D01*
X143224048Y-68861709D01*
X143132609Y-68609900D01*
X143075450Y-68502965D01*
X142839133Y-68440472D01*
X142079605Y-69200000D01*
X141720395Y-69200000D01*
X140960867Y-68440472D01*
X140724550Y-68502965D01*
X140611150Y-68745678D01*
X140547281Y-69005849D01*
X140535396Y-69273482D01*
X108195868Y-69273482D01*
X108163250Y-69224666D01*
X107775334Y-68836750D01*
X107319192Y-68531965D01*
X106812354Y-68322026D01*
X106274299Y-68215000D01*
X105725701Y-68215000D01*
X105187646Y-68322026D01*
X104680808Y-68531965D01*
X104224666Y-68836750D01*
X103836750Y-69224666D01*
X103531965Y-69680808D01*
X103322026Y-70187646D01*
X103215000Y-70725701D01*
X100660000Y-70725701D01*
X100660000Y-69032278D01*
X100726714Y-68351874D01*
X100914943Y-67728428D01*
X101220681Y-67153421D01*
X101632279Y-66648753D01*
X101658573Y-66627000D01*
X139665000Y-66627000D01*
X139665000Y-66977000D01*
X139713507Y-67215496D01*
X139807610Y-67439946D01*
X139943693Y-67641725D01*
X140116526Y-67813078D01*
X140319467Y-67947421D01*
X140544718Y-68039591D01*
X140582391Y-68043462D01*
X140773000Y-67918731D01*
X140773000Y-66627000D01*
X141027000Y-66627000D01*
X141027000Y-67918731D01*
X141200862Y-68032503D01*
X141140472Y-68260867D01*
X141900000Y-69020395D01*
X142659528Y-68260867D01*
X146140472Y-68260867D01*
X146900000Y-69020395D01*
X147659528Y-68260867D01*
X147599138Y-68032503D01*
X147773000Y-67918731D01*
X147773000Y-66627000D01*
X148027000Y-66627000D01*
X148027000Y-67918731D01*
X148217609Y-68043462D01*
X148255282Y-68039591D01*
X148480533Y-67947421D01*
X148683474Y-67813078D01*
X148856307Y-67641725D01*
X148992390Y-67439946D01*
X149078119Y-67235469D01*
X181215074Y-67235469D01*
X182260000Y-68280395D01*
X183304926Y-67235469D01*
X186295074Y-67235469D01*
X187340000Y-68280395D01*
X188384926Y-67235469D01*
X188274079Y-66958286D01*
X187963160Y-66804911D01*
X187628295Y-66715140D01*
X187282350Y-66692424D01*
X186938620Y-66737634D01*
X186610315Y-66849034D01*
X186405921Y-66958286D01*
X186295074Y-67235469D01*
X183304926Y-67235469D01*
X183194079Y-66958286D01*
X182883160Y-66804911D01*
X182548295Y-66715140D01*
X182202350Y-66692424D01*
X181858620Y-66737634D01*
X181530315Y-66849034D01*
X181325921Y-66958286D01*
X181215074Y-67235469D01*
X149078119Y-67235469D01*
X149086493Y-67215496D01*
X149135000Y-66977000D01*
X149135000Y-66627000D01*
X148027000Y-66627000D01*
X147773000Y-66627000D01*
X146665000Y-66627000D01*
X146665000Y-66977000D01*
X146713507Y-67215496D01*
X146807610Y-67439946D01*
X146943693Y-67641725D01*
X147116526Y-67813078D01*
X147211836Y-67876171D01*
X147094151Y-67847281D01*
X146826518Y-67835396D01*
X146561709Y-67875952D01*
X146309900Y-67967391D01*
X146202965Y-68024550D01*
X146140472Y-68260867D01*
X142659528Y-68260867D01*
X142597035Y-68024550D01*
X142354322Y-67911150D01*
X142094151Y-67847281D01*
X141826518Y-67835396D01*
X141596558Y-67870615D01*
X141683474Y-67813078D01*
X141856307Y-67641725D01*
X141992390Y-67439946D01*
X142086493Y-67215496D01*
X142135000Y-66977000D01*
X142135000Y-66627000D01*
X141027000Y-66627000D01*
X140773000Y-66627000D01*
X139665000Y-66627000D01*
X101658573Y-66627000D01*
X102134067Y-66233638D01*
X102706924Y-65923895D01*
X103329039Y-65731318D01*
X104007584Y-65660000D01*
X139765707Y-65660000D01*
X139713507Y-65784504D01*
G37*
%TD.AperFunction*%
%TD*%
M02*
