%TF.GenerationSoftware,KiCad,Pcbnew,5.1.10*%
%TF.CreationDate,2021-12-02T21:41:10+00:00*%
%TF.ProjectId,ELE3044 - Tractor Tracker,454c4533-3034-4342-902d-205472616374,rev?*%
%TF.SameCoordinates,Original*%
%TF.FileFunction,Legend,Top*%
%TF.FilePolarity,Positive*%
%FSLAX46Y46*%
G04 Gerber Fmt 4.6, Leading zero omitted, Abs format (unit mm)*
G04 Created by KiCad (PCBNEW 5.1.10) date 2021-12-02 21:41:10*
%MOMM*%
%LPD*%
G01*
G04 APERTURE LIST*
%ADD10C,0.120000*%
%ADD11C,0.150000*%
%ADD12C,0.500000*%
%ADD13C,0.300000*%
G04 APERTURE END LIST*
D10*
X169500000Y-144100000D02*
X170300000Y-144100000D01*
X169900000Y-143700000D02*
X169900000Y-144500000D01*
X169300000Y-122600000D02*
X170100000Y-122600000D01*
X169700000Y-122200000D02*
X169700000Y-123000000D01*
X140000000Y-144200000D02*
X140800000Y-144200000D01*
X140400000Y-143800000D02*
X140400000Y-144600000D01*
X139500000Y-122600000D02*
X140300000Y-122600000D01*
X139900000Y-122200000D02*
X139900000Y-123000000D01*
D11*
X187114285Y-76190476D02*
X186828571Y-75428571D01*
X186542857Y-76190476D01*
X186828571Y-76666666D02*
X186828571Y-77428571D01*
X186828571Y-77904761D02*
X186828571Y-78666666D01*
X186447619Y-80476190D02*
X186923809Y-80142857D01*
X186447619Y-79904761D02*
X187447619Y-79904761D01*
X187447619Y-80285714D01*
X187400000Y-80380952D01*
X187352380Y-80428571D01*
X187257142Y-80476190D01*
X187114285Y-80476190D01*
X187019047Y-80428571D01*
X186971428Y-80380952D01*
X186923809Y-80285714D01*
X186923809Y-79904761D01*
X186971428Y-81238095D02*
X186971428Y-80904761D01*
X186447619Y-80904761D02*
X187447619Y-80904761D01*
X187447619Y-81380952D01*
X186447619Y-82523809D02*
X187447619Y-82523809D01*
X186447619Y-83000000D02*
X187447619Y-83000000D01*
X186447619Y-83571428D01*
X187447619Y-83571428D01*
D12*
X169100000Y-70400000D02*
G75*
G03*
X169100000Y-70400000I0J0D01*
G01*
X141200000Y-75100000D02*
G75*
G03*
X141200000Y-75100000I0J0D01*
G01*
D11*
X116950000Y-80257142D02*
X117021428Y-80114285D01*
X117021428Y-79900000D01*
X116950000Y-79685714D01*
X116807142Y-79542857D01*
X116664285Y-79471428D01*
X116378571Y-79400000D01*
X116164285Y-79400000D01*
X115878571Y-79471428D01*
X115735714Y-79542857D01*
X115592857Y-79685714D01*
X115521428Y-79900000D01*
X115521428Y-80042857D01*
X115592857Y-80257142D01*
X115664285Y-80328571D01*
X116164285Y-80328571D01*
X116164285Y-80042857D01*
X115521428Y-80971428D02*
X117021428Y-80971428D01*
X115521428Y-81828571D01*
X117021428Y-81828571D01*
X115521428Y-82542857D02*
X117021428Y-82542857D01*
X117021428Y-82900000D01*
X116950000Y-83114285D01*
X116807142Y-83257142D01*
X116664285Y-83328571D01*
X116378571Y-83400000D01*
X116164285Y-83400000D01*
X115878571Y-83328571D01*
X115735714Y-83257142D01*
X115592857Y-83114285D01*
X115521428Y-82900000D01*
X115521428Y-82542857D01*
X116092857Y-86557142D02*
X116092857Y-87700000D01*
X115521428Y-87128571D02*
X116664285Y-87128571D01*
X115521428Y-89200000D02*
X115521428Y-88342857D01*
X115521428Y-88771428D02*
X117021428Y-88771428D01*
X116807142Y-88628571D01*
X116664285Y-88485714D01*
X116592857Y-88342857D01*
X116878571Y-89771428D02*
X116950000Y-89842857D01*
X117021428Y-89985714D01*
X117021428Y-90342857D01*
X116950000Y-90485714D01*
X116878571Y-90557142D01*
X116735714Y-90628571D01*
X116592857Y-90628571D01*
X116378571Y-90557142D01*
X115521428Y-89700000D01*
X115521428Y-90628571D01*
X117021428Y-91057142D02*
X115521428Y-91557142D01*
X117021428Y-92057142D01*
D10*
X147500000Y-93000000D02*
G75*
G02*
X152500000Y-93000000I2500000J0D01*
G01*
X148000000Y-93000000D02*
G75*
G02*
X152000000Y-93000000I2000000J0D01*
G01*
X148500000Y-93000000D02*
G75*
G02*
X151500000Y-93000000I1500000J0D01*
G01*
X149000000Y-93000000D02*
G75*
G02*
X151000000Y-93000000I1000000J0D01*
G01*
X151000000Y-94000000D02*
X150000000Y-92500000D01*
X150000000Y-92500000D02*
X149000000Y-94000000D01*
X150000000Y-100000000D02*
X150000000Y-92500000D01*
X135000000Y-105000000D02*
X137500000Y-100000000D01*
X137500000Y-110000000D02*
X135000000Y-105000000D01*
X162500000Y-110000000D02*
X137500000Y-110000000D01*
X165000000Y-105000000D02*
X162500000Y-110000000D01*
X162500000Y-100000000D02*
X165000000Y-105000000D01*
X137500000Y-100000000D02*
X162500000Y-100000000D01*
X107600000Y-99600000D02*
X108400000Y-99600000D01*
X108000000Y-99200000D02*
X108000000Y-100000000D01*
D13*
X141571428Y-101628571D02*
X142428571Y-101628571D01*
X142000000Y-103128571D02*
X142000000Y-101628571D01*
X142928571Y-103128571D02*
X142928571Y-102128571D01*
X142928571Y-102414285D02*
X143000000Y-102271428D01*
X143071428Y-102200000D01*
X143214285Y-102128571D01*
X143357142Y-102128571D01*
X144500000Y-103128571D02*
X144500000Y-102342857D01*
X144428571Y-102200000D01*
X144285714Y-102128571D01*
X144000000Y-102128571D01*
X143857142Y-102200000D01*
X144500000Y-103057142D02*
X144357142Y-103128571D01*
X144000000Y-103128571D01*
X143857142Y-103057142D01*
X143785714Y-102914285D01*
X143785714Y-102771428D01*
X143857142Y-102628571D01*
X144000000Y-102557142D01*
X144357142Y-102557142D01*
X144500000Y-102485714D01*
X145857142Y-103057142D02*
X145714285Y-103128571D01*
X145428571Y-103128571D01*
X145285714Y-103057142D01*
X145214285Y-102985714D01*
X145142857Y-102842857D01*
X145142857Y-102414285D01*
X145214285Y-102271428D01*
X145285714Y-102200000D01*
X145428571Y-102128571D01*
X145714285Y-102128571D01*
X145857142Y-102200000D01*
X146285714Y-102128571D02*
X146857142Y-102128571D01*
X146500000Y-101628571D02*
X146500000Y-102914285D01*
X146571428Y-103057142D01*
X146714285Y-103128571D01*
X146857142Y-103128571D01*
X147571428Y-103128571D02*
X147428571Y-103057142D01*
X147357142Y-102985714D01*
X147285714Y-102842857D01*
X147285714Y-102414285D01*
X147357142Y-102271428D01*
X147428571Y-102200000D01*
X147571428Y-102128571D01*
X147785714Y-102128571D01*
X147928571Y-102200000D01*
X148000000Y-102271428D01*
X148071428Y-102414285D01*
X148071428Y-102842857D01*
X148000000Y-102985714D01*
X147928571Y-103057142D01*
X147785714Y-103128571D01*
X147571428Y-103128571D01*
X148714285Y-103128571D02*
X148714285Y-102128571D01*
X148714285Y-102414285D02*
X148785714Y-102271428D01*
X148857142Y-102200000D01*
X149000000Y-102128571D01*
X149142857Y-102128571D01*
X150571428Y-101628571D02*
X151428571Y-101628571D01*
X151000000Y-103128571D02*
X151000000Y-101628571D01*
X151928571Y-103128571D02*
X151928571Y-102128571D01*
X151928571Y-102414285D02*
X152000000Y-102271428D01*
X152071428Y-102200000D01*
X152214285Y-102128571D01*
X152357142Y-102128571D01*
X153500000Y-103128571D02*
X153500000Y-102342857D01*
X153428571Y-102200000D01*
X153285714Y-102128571D01*
X153000000Y-102128571D01*
X152857142Y-102200000D01*
X153500000Y-103057142D02*
X153357142Y-103128571D01*
X153000000Y-103128571D01*
X152857142Y-103057142D01*
X152785714Y-102914285D01*
X152785714Y-102771428D01*
X152857142Y-102628571D01*
X153000000Y-102557142D01*
X153357142Y-102557142D01*
X153500000Y-102485714D01*
X154857142Y-103057142D02*
X154714285Y-103128571D01*
X154428571Y-103128571D01*
X154285714Y-103057142D01*
X154214285Y-102985714D01*
X154142857Y-102842857D01*
X154142857Y-102414285D01*
X154214285Y-102271428D01*
X154285714Y-102200000D01*
X154428571Y-102128571D01*
X154714285Y-102128571D01*
X154857142Y-102200000D01*
X155500000Y-103128571D02*
X155500000Y-101628571D01*
X155642857Y-102557142D02*
X156071428Y-103128571D01*
X156071428Y-102128571D02*
X155500000Y-102700000D01*
X157285714Y-103057142D02*
X157142857Y-103128571D01*
X156857142Y-103128571D01*
X156714285Y-103057142D01*
X156642857Y-102914285D01*
X156642857Y-102342857D01*
X156714285Y-102200000D01*
X156857142Y-102128571D01*
X157142857Y-102128571D01*
X157285714Y-102200000D01*
X157357142Y-102342857D01*
X157357142Y-102485714D01*
X156642857Y-102628571D01*
X158000000Y-103128571D02*
X158000000Y-102128571D01*
X158000000Y-102414285D02*
X158071428Y-102271428D01*
X158142857Y-102200000D01*
X158285714Y-102128571D01*
X158428571Y-102128571D01*
X143142857Y-105678571D02*
X143142857Y-104178571D01*
X143500000Y-104178571D01*
X143714285Y-104250000D01*
X143857142Y-104392857D01*
X143928571Y-104535714D01*
X144000000Y-104821428D01*
X144000000Y-105035714D01*
X143928571Y-105321428D01*
X143857142Y-105464285D01*
X143714285Y-105607142D01*
X143500000Y-105678571D01*
X143142857Y-105678571D01*
X145214285Y-105607142D02*
X145071428Y-105678571D01*
X144785714Y-105678571D01*
X144642857Y-105607142D01*
X144571428Y-105464285D01*
X144571428Y-104892857D01*
X144642857Y-104750000D01*
X144785714Y-104678571D01*
X145071428Y-104678571D01*
X145214285Y-104750000D01*
X145285714Y-104892857D01*
X145285714Y-105035714D01*
X144571428Y-105178571D01*
X145857142Y-105607142D02*
X146000000Y-105678571D01*
X146285714Y-105678571D01*
X146428571Y-105607142D01*
X146500000Y-105464285D01*
X146500000Y-105392857D01*
X146428571Y-105250000D01*
X146285714Y-105178571D01*
X146071428Y-105178571D01*
X145928571Y-105107142D01*
X145857142Y-104964285D01*
X145857142Y-104892857D01*
X145928571Y-104750000D01*
X146071428Y-104678571D01*
X146285714Y-104678571D01*
X146428571Y-104750000D01*
X147142857Y-105678571D02*
X147142857Y-104678571D01*
X147142857Y-104178571D02*
X147071428Y-104250000D01*
X147142857Y-104321428D01*
X147214285Y-104250000D01*
X147142857Y-104178571D01*
X147142857Y-104321428D01*
X148500000Y-104678571D02*
X148500000Y-105892857D01*
X148428571Y-106035714D01*
X148357142Y-106107142D01*
X148214285Y-106178571D01*
X148000000Y-106178571D01*
X147857142Y-106107142D01*
X148500000Y-105607142D02*
X148357142Y-105678571D01*
X148071428Y-105678571D01*
X147928571Y-105607142D01*
X147857142Y-105535714D01*
X147785714Y-105392857D01*
X147785714Y-104964285D01*
X147857142Y-104821428D01*
X147928571Y-104750000D01*
X148071428Y-104678571D01*
X148357142Y-104678571D01*
X148500000Y-104750000D01*
X149214285Y-104678571D02*
X149214285Y-105678571D01*
X149214285Y-104821428D02*
X149285714Y-104750000D01*
X149428571Y-104678571D01*
X149642857Y-104678571D01*
X149785714Y-104750000D01*
X149857142Y-104892857D01*
X149857142Y-105678571D01*
X151142857Y-105607142D02*
X151000000Y-105678571D01*
X150714285Y-105678571D01*
X150571428Y-105607142D01*
X150500000Y-105464285D01*
X150500000Y-104892857D01*
X150571428Y-104750000D01*
X150714285Y-104678571D01*
X151000000Y-104678571D01*
X151142857Y-104750000D01*
X151214285Y-104892857D01*
X151214285Y-105035714D01*
X150500000Y-105178571D01*
X152500000Y-105678571D02*
X152500000Y-104178571D01*
X152500000Y-105607142D02*
X152357142Y-105678571D01*
X152071428Y-105678571D01*
X151928571Y-105607142D01*
X151857142Y-105535714D01*
X151785714Y-105392857D01*
X151785714Y-104964285D01*
X151857142Y-104821428D01*
X151928571Y-104750000D01*
X152071428Y-104678571D01*
X152357142Y-104678571D01*
X152500000Y-104750000D01*
X154357142Y-105678571D02*
X154357142Y-104178571D01*
X154357142Y-104750000D02*
X154500000Y-104678571D01*
X154785714Y-104678571D01*
X154928571Y-104750000D01*
X155000000Y-104821428D01*
X155071428Y-104964285D01*
X155071428Y-105392857D01*
X155000000Y-105535714D01*
X154928571Y-105607142D01*
X154785714Y-105678571D01*
X154500000Y-105678571D01*
X154357142Y-105607142D01*
X155571428Y-104678571D02*
X155928571Y-105678571D01*
X156285714Y-104678571D02*
X155928571Y-105678571D01*
X155785714Y-106035714D01*
X155714285Y-106107142D01*
X155571428Y-106178571D01*
X156857142Y-105535714D02*
X156928571Y-105607142D01*
X156857142Y-105678571D01*
X156785714Y-105607142D01*
X156857142Y-105535714D01*
X156857142Y-105678571D01*
X156857142Y-104750000D02*
X156928571Y-104821428D01*
X156857142Y-104892857D01*
X156785714Y-104821428D01*
X156857142Y-104750000D01*
X156857142Y-104892857D01*
X149178571Y-106728571D02*
X149178571Y-107800000D01*
X149107142Y-108014285D01*
X148964285Y-108157142D01*
X148750000Y-108228571D01*
X148607142Y-108228571D01*
X150107142Y-108228571D02*
X149964285Y-108157142D01*
X149892857Y-108085714D01*
X149821428Y-107942857D01*
X149821428Y-107514285D01*
X149892857Y-107371428D01*
X149964285Y-107300000D01*
X150107142Y-107228571D01*
X150321428Y-107228571D01*
X150464285Y-107300000D01*
X150535714Y-107371428D01*
X150607142Y-107514285D01*
X150607142Y-107942857D01*
X150535714Y-108085714D01*
X150464285Y-108157142D01*
X150321428Y-108228571D01*
X150107142Y-108228571D01*
X151250000Y-107228571D02*
X151250000Y-108514285D01*
X151178571Y-108657142D01*
X151035714Y-108728571D01*
X150964285Y-108728571D01*
X151250000Y-106728571D02*
X151178571Y-106800000D01*
X151250000Y-106871428D01*
X151321428Y-106800000D01*
X151250000Y-106728571D01*
X151250000Y-106871428D01*
D10*
%TO.C,J1*%
X100032000Y-94399000D02*
X100032000Y-77000000D01*
X115272000Y-77000000D02*
X115272000Y-94399000D01*
X115272000Y-94399000D02*
X100032000Y-94399000D01*
X115272000Y-77000000D02*
X100032000Y-77000000D01*
%TO.C,J3*%
X100003000Y-164938000D02*
X199952000Y-164938000D01*
X199952000Y-149698000D02*
X100003000Y-149698000D01*
X199952000Y-149698000D02*
X199952000Y-164938000D01*
X100003000Y-149698000D02*
X100003000Y-164938000D01*
%TO.C,U3*%
X168790000Y-71090000D02*
X178710000Y-71090000D01*
X168790000Y-81410000D02*
X178710000Y-81410000D01*
X178710000Y-81260000D02*
X178710000Y-81410000D01*
X168790000Y-81260000D02*
X168790000Y-81410000D01*
X178710000Y-71090000D02*
X178710000Y-71240000D01*
X168790000Y-71090000D02*
X168790000Y-71240000D01*
X168100000Y-71240000D02*
X168790000Y-71240000D01*
%TO.C,D2*%
X132872500Y-81290000D02*
X130187500Y-81290000D01*
X132872500Y-83210000D02*
X132872500Y-81290000D01*
X130187500Y-83210000D02*
X132872500Y-83210000D01*
%TO.C,D7*%
X115650000Y-103150000D02*
X108750000Y-103150000D01*
X115650000Y-99850000D02*
X108750000Y-99850000D01*
X115650000Y-103150000D02*
X115650000Y-99850000D01*
%TO.C,K1*%
X135130000Y-142900000D02*
X135830000Y-142500000D01*
X135830000Y-143300000D02*
X135830000Y-142100000D01*
X135830000Y-142100000D02*
X135130000Y-142100000D01*
X135130000Y-142100000D02*
X135130000Y-143300000D01*
X135130000Y-143300000D02*
X135830000Y-143300000D01*
X135130000Y-130200000D02*
X135830000Y-129800000D01*
X135830000Y-130600000D02*
X135830000Y-129400000D01*
X135830000Y-129400000D02*
X135130000Y-129400000D01*
X135130000Y-129400000D02*
X135130000Y-130600000D01*
X135130000Y-130600000D02*
X135830000Y-130600000D01*
X131430000Y-130830000D02*
X131430000Y-128490000D01*
X131430000Y-128490000D02*
X133620000Y-128490000D01*
X139430000Y-128710000D02*
X131650000Y-128710000D01*
X139430000Y-143990000D02*
X131650000Y-143990000D01*
X131650000Y-128730000D02*
X131650000Y-143990000D01*
X139430000Y-128710000D02*
X139430000Y-143990000D01*
%TO.C,D10*%
X131100000Y-144850000D02*
X138400000Y-144850000D01*
X131100000Y-149150000D02*
X138400000Y-149150000D01*
X131100000Y-144850000D02*
X131100000Y-149150000D01*
%TO.C,U4*%
X168200000Y-93380000D02*
X168200000Y-95040000D01*
X168560000Y-93380000D02*
X168200000Y-93380000D01*
X168200000Y-111620000D02*
X168200000Y-109960000D01*
X168460000Y-111620000D02*
X168200000Y-111620000D01*
X199450000Y-93375000D02*
X199450000Y-111630000D01*
X192370000Y-93390000D02*
X199450000Y-93375000D01*
X193030000Y-111630000D02*
X199450000Y-111630000D01*
X192370000Y-93390000D02*
X192370000Y-93000000D01*
D11*
%TO.C,U2*%
X141725000Y-76050000D02*
X140125000Y-76050000D01*
X141725000Y-86125000D02*
X147475000Y-86125000D01*
X141725000Y-75475000D02*
X147475000Y-75475000D01*
X141725000Y-86125000D02*
X141725000Y-85475000D01*
X147475000Y-86125000D02*
X147475000Y-85475000D01*
X147475000Y-75475000D02*
X147475000Y-76125000D01*
X141725000Y-75475000D02*
X141725000Y-76050000D01*
D10*
%TO.C,U1*%
X120550000Y-82340000D02*
X126560000Y-82340000D01*
X122800000Y-89160000D02*
X126560000Y-89160000D01*
X126560000Y-82340000D02*
X126560000Y-83600000D01*
X126560000Y-89160000D02*
X126560000Y-87900000D01*
%TO.C,SW2*%
X113430000Y-114630000D02*
X113400000Y-114630000D01*
X106970000Y-114630000D02*
X107000000Y-114630000D01*
X106970000Y-108170000D02*
X107000000Y-108170000D01*
X113400000Y-108170000D02*
X113430000Y-108170000D01*
X111500000Y-114630000D02*
X108900000Y-114630000D01*
X113430000Y-108170000D02*
X113430000Y-114630000D01*
X111500000Y-108170000D02*
X108900000Y-108170000D01*
X106970000Y-108170000D02*
X106970000Y-114630000D01*
%TO.C,SW1*%
X113430000Y-125630000D02*
X113400000Y-125630000D01*
X106970000Y-125630000D02*
X107000000Y-125630000D01*
X106970000Y-119170000D02*
X107000000Y-119170000D01*
X113400000Y-119170000D02*
X113430000Y-119170000D01*
X111500000Y-125630000D02*
X108900000Y-125630000D01*
X113430000Y-119170000D02*
X113430000Y-125630000D01*
X111500000Y-119170000D02*
X108900000Y-119170000D01*
X106970000Y-119170000D02*
X106970000Y-125630000D01*
%TO.C,R2*%
X135272936Y-82985000D02*
X135727064Y-82985000D01*
X135272936Y-81515000D02*
X135727064Y-81515000D01*
%TO.C,R1*%
X135272936Y-89985000D02*
X135727064Y-89985000D01*
X135272936Y-88515000D02*
X135727064Y-88515000D01*
%TO.C,R6*%
X157335000Y-76027064D02*
X157335000Y-75572936D01*
X155865000Y-76027064D02*
X155865000Y-75572936D01*
%TO.C,R5*%
X154935000Y-76027064D02*
X154935000Y-75572936D01*
X153465000Y-76027064D02*
X153465000Y-75572936D01*
%TO.C,Q5*%
X174530000Y-141240000D02*
X174530000Y-142700000D01*
X171370000Y-141240000D02*
X171370000Y-143400000D01*
X171370000Y-141240000D02*
X172300000Y-141240000D01*
X174530000Y-141240000D02*
X173600000Y-141240000D01*
%TO.C,Q3*%
X174530000Y-128240000D02*
X174530000Y-129700000D01*
X171370000Y-128240000D02*
X171370000Y-130400000D01*
X171370000Y-128240000D02*
X172300000Y-128240000D01*
X174530000Y-128240000D02*
X173600000Y-128240000D01*
%TO.C,Q4*%
X144530000Y-140940000D02*
X144530000Y-142400000D01*
X141370000Y-140940000D02*
X141370000Y-143100000D01*
X141370000Y-140940000D02*
X142300000Y-140940000D01*
X144530000Y-140940000D02*
X143600000Y-140940000D01*
%TO.C,Q2*%
X144530000Y-128240000D02*
X144530000Y-129700000D01*
X141370000Y-128240000D02*
X141370000Y-130400000D01*
X141370000Y-128240000D02*
X142300000Y-128240000D01*
X144530000Y-128240000D02*
X143600000Y-128240000D01*
%TO.C,Q7*%
X133760000Y-120630000D02*
X132300000Y-120630000D01*
X133760000Y-117470000D02*
X131600000Y-117470000D01*
X133760000Y-117470000D02*
X133760000Y-118400000D01*
X133760000Y-120630000D02*
X133760000Y-119700000D01*
%TO.C,Q6*%
X133760000Y-116580000D02*
X132300000Y-116580000D01*
X133760000Y-113420000D02*
X131600000Y-113420000D01*
X133760000Y-113420000D02*
X133760000Y-114350000D01*
X133760000Y-116580000D02*
X133760000Y-115650000D01*
%TO.C,Q1*%
X115750000Y-95840000D02*
X112800000Y-95840000D01*
X113950000Y-99060000D02*
X115750000Y-99060000D01*
%TO.C,K2*%
X165030000Y-143100000D02*
X165730000Y-142700000D01*
X165730000Y-143500000D02*
X165730000Y-142300000D01*
X165730000Y-142300000D02*
X165030000Y-142300000D01*
X165030000Y-142300000D02*
X165030000Y-143500000D01*
X165030000Y-143500000D02*
X165730000Y-143500000D01*
X165030000Y-130400000D02*
X165730000Y-130000000D01*
X165730000Y-130800000D02*
X165730000Y-129600000D01*
X165730000Y-129600000D02*
X165030000Y-129600000D01*
X165030000Y-129600000D02*
X165030000Y-130800000D01*
X165030000Y-130800000D02*
X165730000Y-130800000D01*
X161330000Y-131030000D02*
X161330000Y-128690000D01*
X161330000Y-128690000D02*
X163520000Y-128690000D01*
X169330000Y-128910000D02*
X161550000Y-128910000D01*
X169330000Y-144190000D02*
X161550000Y-144190000D01*
X161550000Y-128930000D02*
X161550000Y-144190000D01*
X169330000Y-128910000D02*
X169330000Y-144190000D01*
%TO.C,J4*%
X181445000Y-69550000D02*
X181445000Y-72450000D01*
X188155000Y-69550000D02*
X188155000Y-72450000D01*
X183350000Y-74355000D02*
X186250000Y-74355000D01*
X183350000Y-67645000D02*
X186250000Y-67645000D01*
%TO.C,J2*%
X148300000Y-69500000D02*
X147850000Y-69500000D01*
X148300000Y-67650000D02*
X148300000Y-69500000D01*
X140500000Y-65100000D02*
X140500000Y-65350000D01*
X148300000Y-65100000D02*
X148300000Y-65350000D01*
X140500000Y-67650000D02*
X140500000Y-69500000D01*
X140500000Y-69500000D02*
X140950000Y-69500000D01*
X146100000Y-70050000D02*
X145650000Y-70050000D01*
X146100000Y-70050000D02*
X146100000Y-69600000D01*
%TO.C,F1*%
X110089564Y-95590000D02*
X108885436Y-95590000D01*
X110089564Y-97410000D02*
X108885436Y-97410000D01*
%TO.C,D1*%
X132935000Y-88290000D02*
X130250000Y-88290000D01*
X132935000Y-90210000D02*
X132935000Y-88290000D01*
X130250000Y-90210000D02*
X132935000Y-90210000D01*
%TO.C,D6*%
X157560000Y-73622500D02*
X157560000Y-70937500D01*
X155640000Y-73622500D02*
X157560000Y-73622500D01*
X155640000Y-70937500D02*
X155640000Y-73622500D01*
%TO.C,D5*%
X155160000Y-73622500D02*
X155160000Y-70937500D01*
X153240000Y-73622500D02*
X155160000Y-73622500D01*
X153240000Y-70937500D02*
X153240000Y-73622500D01*
%TO.C,D4*%
X152760000Y-73622500D02*
X152760000Y-70937500D01*
X150840000Y-73622500D02*
X152760000Y-73622500D01*
X150840000Y-70937500D02*
X150840000Y-73622500D01*
%TO.C,D3*%
X159960000Y-73622500D02*
X159960000Y-70937500D01*
X158040000Y-73622500D02*
X159960000Y-73622500D01*
X158040000Y-70937500D02*
X158040000Y-73622500D01*
%TO.C,D9*%
X160600000Y-123350000D02*
X167900000Y-123350000D01*
X160600000Y-127650000D02*
X167900000Y-127650000D01*
X160600000Y-123350000D02*
X160600000Y-127650000D01*
%TO.C,D11*%
X160800000Y-144850000D02*
X168100000Y-144850000D01*
X160800000Y-149150000D02*
X168100000Y-149150000D01*
X160800000Y-144850000D02*
X160800000Y-149150000D01*
%TO.C,D8*%
X131100000Y-123350000D02*
X138400000Y-123350000D01*
X131100000Y-127650000D02*
X138400000Y-127650000D01*
X131100000Y-123350000D02*
X131100000Y-127650000D01*
%TO.C,C4*%
X126743750Y-76741250D02*
X126743750Y-75953750D01*
X127137500Y-76347500D02*
X126350000Y-76347500D01*
X126110000Y-72154437D02*
X125045563Y-71090000D01*
X126110000Y-76845563D02*
X125045563Y-77910000D01*
X126110000Y-76845563D02*
X126110000Y-75560000D01*
X126110000Y-72154437D02*
X126110000Y-73440000D01*
X125045563Y-71090000D02*
X119290000Y-71090000D01*
X125045563Y-77910000D02*
X119290000Y-77910000D01*
X119290000Y-77910000D02*
X119290000Y-75560000D01*
X119290000Y-71090000D02*
X119290000Y-73440000D01*
%TO.C,C1*%
X118656250Y-94758750D02*
X118656250Y-95546250D01*
X118262500Y-95152500D02*
X119050000Y-95152500D01*
X119290000Y-99345563D02*
X120354437Y-100410000D01*
X119290000Y-94654437D02*
X120354437Y-93590000D01*
X119290000Y-94654437D02*
X119290000Y-95940000D01*
X119290000Y-99345563D02*
X119290000Y-98060000D01*
X120354437Y-100410000D02*
X126110000Y-100410000D01*
X120354437Y-93590000D02*
X126110000Y-93590000D01*
X126110000Y-93590000D02*
X126110000Y-95940000D01*
X126110000Y-100410000D02*
X126110000Y-98060000D01*
%TO.C,C7*%
X167135000Y-76198752D02*
X167135000Y-75676248D01*
X165665000Y-76198752D02*
X165665000Y-75676248D01*
%TO.C,C6*%
X165665000Y-79676248D02*
X165665000Y-80198752D01*
X167135000Y-79676248D02*
X167135000Y-80198752D01*
%TO.C,C10*%
X190376248Y-88335000D02*
X190898752Y-88335000D01*
X190376248Y-86865000D02*
X190898752Y-86865000D01*
%TO.C,C3*%
X122798752Y-79515000D02*
X122276248Y-79515000D01*
X122798752Y-80985000D02*
X122276248Y-80985000D01*
%TO.C,C2*%
X122276248Y-92235000D02*
X122798752Y-92235000D01*
X122276248Y-90765000D02*
X122798752Y-90765000D01*
%TO.C,R11*%
X153227064Y-79865000D02*
X152772936Y-79865000D01*
X153227064Y-81335000D02*
X152772936Y-81335000D01*
%TO.C,R4*%
X152535000Y-76027064D02*
X152535000Y-75572936D01*
X151065000Y-76027064D02*
X151065000Y-75572936D01*
%TO.C,R3*%
X159735000Y-76027064D02*
X159735000Y-75572936D01*
X158265000Y-76027064D02*
X158265000Y-75572936D01*
%TO.C,R13*%
X190827064Y-115065000D02*
X190372936Y-115065000D01*
X190827064Y-116535000D02*
X190372936Y-116535000D01*
%TO.C,R12*%
X152772936Y-83535000D02*
X153227064Y-83535000D01*
X152772936Y-82065000D02*
X153227064Y-82065000D01*
%TO.C,R10*%
X145065000Y-72472936D02*
X145065000Y-72927064D01*
X146535000Y-72472936D02*
X146535000Y-72927064D01*
%TO.C,R9*%
X144185000Y-72927064D02*
X144185000Y-72472936D01*
X142715000Y-72927064D02*
X142715000Y-72472936D01*
%TO.C,R8*%
X138735000Y-79427064D02*
X138735000Y-78972936D01*
X137265000Y-79427064D02*
X137265000Y-78972936D01*
%TO.C,R15*%
X137227064Y-114265000D02*
X136772936Y-114265000D01*
X137227064Y-115735000D02*
X136772936Y-115735000D01*
%TO.C,R14*%
X137227064Y-118265000D02*
X136772936Y-118265000D01*
X137227064Y-119735000D02*
X136772936Y-119735000D01*
%TO.C,R7*%
X105985000Y-100727064D02*
X105985000Y-100272936D01*
X104515000Y-100727064D02*
X104515000Y-100272936D01*
%TO.C,C9*%
X190376248Y-90735000D02*
X190898752Y-90735000D01*
X190376248Y-89265000D02*
X190898752Y-89265000D01*
%TO.C,C8*%
X190861252Y-112865000D02*
X190338748Y-112865000D01*
X190861252Y-114335000D02*
X190338748Y-114335000D01*
%TO.C,C12*%
X110261252Y-104265000D02*
X109738748Y-104265000D01*
X110261252Y-105735000D02*
X109738748Y-105735000D01*
%TO.C,C11*%
X110223752Y-128265000D02*
X109701248Y-128265000D01*
X110223752Y-129735000D02*
X109701248Y-129735000D01*
%TO.C,C5*%
X151135000Y-68473752D02*
X151135000Y-67951248D01*
X149665000Y-68473752D02*
X149665000Y-67951248D01*
%TO.C,J1*%
D11*
X113866666Y-75452380D02*
X113866666Y-76166666D01*
X113819047Y-76309523D01*
X113723809Y-76404761D01*
X113580952Y-76452380D01*
X113485714Y-76452380D01*
X114866666Y-76452380D02*
X114295238Y-76452380D01*
X114580952Y-76452380D02*
X114580952Y-75452380D01*
X114485714Y-75595238D01*
X114390476Y-75690476D01*
X114295238Y-75738095D01*
%TO.C,J3*%
X149666666Y-147452380D02*
X149666666Y-148166666D01*
X149619047Y-148309523D01*
X149523809Y-148404761D01*
X149380952Y-148452380D01*
X149285714Y-148452380D01*
X150047619Y-147452380D02*
X150666666Y-147452380D01*
X150333333Y-147833333D01*
X150476190Y-147833333D01*
X150571428Y-147880952D01*
X150619047Y-147928571D01*
X150666666Y-148023809D01*
X150666666Y-148261904D01*
X150619047Y-148357142D01*
X150571428Y-148404761D01*
X150476190Y-148452380D01*
X150190476Y-148452380D01*
X150095238Y-148404761D01*
X150047619Y-148357142D01*
%TO.C,U3*%
X172988095Y-69702380D02*
X172988095Y-70511904D01*
X173035714Y-70607142D01*
X173083333Y-70654761D01*
X173178571Y-70702380D01*
X173369047Y-70702380D01*
X173464285Y-70654761D01*
X173511904Y-70607142D01*
X173559523Y-70511904D01*
X173559523Y-69702380D01*
X173940476Y-69702380D02*
X174559523Y-69702380D01*
X174226190Y-70083333D01*
X174369047Y-70083333D01*
X174464285Y-70130952D01*
X174511904Y-70178571D01*
X174559523Y-70273809D01*
X174559523Y-70511904D01*
X174511904Y-70607142D01*
X174464285Y-70654761D01*
X174369047Y-70702380D01*
X174083333Y-70702380D01*
X173988095Y-70654761D01*
X173940476Y-70607142D01*
%TO.C,D2*%
X130461904Y-80852380D02*
X130461904Y-79852380D01*
X130700000Y-79852380D01*
X130842857Y-79900000D01*
X130938095Y-79995238D01*
X130985714Y-80090476D01*
X131033333Y-80280952D01*
X131033333Y-80423809D01*
X130985714Y-80614285D01*
X130938095Y-80709523D01*
X130842857Y-80804761D01*
X130700000Y-80852380D01*
X130461904Y-80852380D01*
X131414285Y-79947619D02*
X131461904Y-79900000D01*
X131557142Y-79852380D01*
X131795238Y-79852380D01*
X131890476Y-79900000D01*
X131938095Y-79947619D01*
X131985714Y-80042857D01*
X131985714Y-80138095D01*
X131938095Y-80280952D01*
X131366666Y-80852380D01*
X131985714Y-80852380D01*
%TO.C,D7*%
X116261904Y-101952380D02*
X116261904Y-100952380D01*
X116500000Y-100952380D01*
X116642857Y-101000000D01*
X116738095Y-101095238D01*
X116785714Y-101190476D01*
X116833333Y-101380952D01*
X116833333Y-101523809D01*
X116785714Y-101714285D01*
X116738095Y-101809523D01*
X116642857Y-101904761D01*
X116500000Y-101952380D01*
X116261904Y-101952380D01*
X117166666Y-100952380D02*
X117833333Y-100952380D01*
X117404761Y-101952380D01*
%TO.C,K1*%
X129461904Y-129852380D02*
X129461904Y-128852380D01*
X130033333Y-129852380D02*
X129604761Y-129280952D01*
X130033333Y-128852380D02*
X129461904Y-129423809D01*
X130985714Y-129852380D02*
X130414285Y-129852380D01*
X130700000Y-129852380D02*
X130700000Y-128852380D01*
X130604761Y-128995238D01*
X130509523Y-129090476D01*
X130414285Y-129138095D01*
%TO.C,D10*%
X140585714Y-147452380D02*
X140585714Y-146452380D01*
X140823809Y-146452380D01*
X140966666Y-146500000D01*
X141061904Y-146595238D01*
X141109523Y-146690476D01*
X141157142Y-146880952D01*
X141157142Y-147023809D01*
X141109523Y-147214285D01*
X141061904Y-147309523D01*
X140966666Y-147404761D01*
X140823809Y-147452380D01*
X140585714Y-147452380D01*
X142109523Y-147452380D02*
X141538095Y-147452380D01*
X141823809Y-147452380D02*
X141823809Y-146452380D01*
X141728571Y-146595238D01*
X141633333Y-146690476D01*
X141538095Y-146738095D01*
X142728571Y-146452380D02*
X142823809Y-146452380D01*
X142919047Y-146500000D01*
X142966666Y-146547619D01*
X143014285Y-146642857D01*
X143061904Y-146833333D01*
X143061904Y-147071428D01*
X143014285Y-147261904D01*
X142966666Y-147357142D01*
X142919047Y-147404761D01*
X142823809Y-147452380D01*
X142728571Y-147452380D01*
X142633333Y-147404761D01*
X142585714Y-147357142D01*
X142538095Y-147261904D01*
X142490476Y-147071428D01*
X142490476Y-146833333D01*
X142538095Y-146642857D01*
X142585714Y-146547619D01*
X142633333Y-146500000D01*
X142728571Y-146452380D01*
%TO.C,H4*%
X105238095Y-140452380D02*
X105238095Y-139452380D01*
X105238095Y-139928571D02*
X105809523Y-139928571D01*
X105809523Y-140452380D02*
X105809523Y-139452380D01*
X106714285Y-139785714D02*
X106714285Y-140452380D01*
X106476190Y-139404761D02*
X106238095Y-140119047D01*
X106857142Y-140119047D01*
%TO.C,H3*%
X105238095Y-67452380D02*
X105238095Y-66452380D01*
X105238095Y-66928571D02*
X105809523Y-66928571D01*
X105809523Y-67452380D02*
X105809523Y-66452380D01*
X106190476Y-66452380D02*
X106809523Y-66452380D01*
X106476190Y-66833333D01*
X106619047Y-66833333D01*
X106714285Y-66880952D01*
X106761904Y-66928571D01*
X106809523Y-67023809D01*
X106809523Y-67261904D01*
X106761904Y-67357142D01*
X106714285Y-67404761D01*
X106619047Y-67452380D01*
X106333333Y-67452380D01*
X106238095Y-67404761D01*
X106190476Y-67357142D01*
%TO.C,H2*%
X193238095Y-140452380D02*
X193238095Y-139452380D01*
X193238095Y-139928571D02*
X193809523Y-139928571D01*
X193809523Y-140452380D02*
X193809523Y-139452380D01*
X194238095Y-139547619D02*
X194285714Y-139500000D01*
X194380952Y-139452380D01*
X194619047Y-139452380D01*
X194714285Y-139500000D01*
X194761904Y-139547619D01*
X194809523Y-139642857D01*
X194809523Y-139738095D01*
X194761904Y-139880952D01*
X194190476Y-140452380D01*
X194809523Y-140452380D01*
%TO.C,H1*%
X193238095Y-67452380D02*
X193238095Y-66452380D01*
X193238095Y-66928571D02*
X193809523Y-66928571D01*
X193809523Y-67452380D02*
X193809523Y-66452380D01*
X194809523Y-67452380D02*
X194238095Y-67452380D01*
X194523809Y-67452380D02*
X194523809Y-66452380D01*
X194428571Y-66595238D01*
X194333333Y-66690476D01*
X194238095Y-66738095D01*
%TO.C,U4*%
X168708095Y-91542380D02*
X168708095Y-92351904D01*
X168755714Y-92447142D01*
X168803333Y-92494761D01*
X168898571Y-92542380D01*
X169089047Y-92542380D01*
X169184285Y-92494761D01*
X169231904Y-92447142D01*
X169279523Y-92351904D01*
X169279523Y-91542380D01*
X170184285Y-91875714D02*
X170184285Y-92542380D01*
X169946190Y-91494761D02*
X169708095Y-92209047D01*
X170327142Y-92209047D01*
%TO.C,U2*%
X143838095Y-86652380D02*
X143838095Y-87461904D01*
X143885714Y-87557142D01*
X143933333Y-87604761D01*
X144028571Y-87652380D01*
X144219047Y-87652380D01*
X144314285Y-87604761D01*
X144361904Y-87557142D01*
X144409523Y-87461904D01*
X144409523Y-86652380D01*
X144838095Y-86747619D02*
X144885714Y-86700000D01*
X144980952Y-86652380D01*
X145219047Y-86652380D01*
X145314285Y-86700000D01*
X145361904Y-86747619D01*
X145409523Y-86842857D01*
X145409523Y-86938095D01*
X145361904Y-87080952D01*
X144790476Y-87652380D01*
X145409523Y-87652380D01*
%TO.C,U1*%
X118438095Y-82252380D02*
X118438095Y-83061904D01*
X118485714Y-83157142D01*
X118533333Y-83204761D01*
X118628571Y-83252380D01*
X118819047Y-83252380D01*
X118914285Y-83204761D01*
X118961904Y-83157142D01*
X119009523Y-83061904D01*
X119009523Y-82252380D01*
X120009523Y-83252380D02*
X119438095Y-83252380D01*
X119723809Y-83252380D02*
X119723809Y-82252380D01*
X119628571Y-82395238D01*
X119533333Y-82490476D01*
X119438095Y-82538095D01*
%TO.C,SW2*%
X113866666Y-111804761D02*
X114009523Y-111852380D01*
X114247619Y-111852380D01*
X114342857Y-111804761D01*
X114390476Y-111757142D01*
X114438095Y-111661904D01*
X114438095Y-111566666D01*
X114390476Y-111471428D01*
X114342857Y-111423809D01*
X114247619Y-111376190D01*
X114057142Y-111328571D01*
X113961904Y-111280952D01*
X113914285Y-111233333D01*
X113866666Y-111138095D01*
X113866666Y-111042857D01*
X113914285Y-110947619D01*
X113961904Y-110900000D01*
X114057142Y-110852380D01*
X114295238Y-110852380D01*
X114438095Y-110900000D01*
X114771428Y-110852380D02*
X115009523Y-111852380D01*
X115200000Y-111138095D01*
X115390476Y-111852380D01*
X115628571Y-110852380D01*
X115961904Y-110947619D02*
X116009523Y-110900000D01*
X116104761Y-110852380D01*
X116342857Y-110852380D01*
X116438095Y-110900000D01*
X116485714Y-110947619D01*
X116533333Y-111042857D01*
X116533333Y-111138095D01*
X116485714Y-111280952D01*
X115914285Y-111852380D01*
X116533333Y-111852380D01*
%TO.C,SW1*%
X113866666Y-122804761D02*
X114009523Y-122852380D01*
X114247619Y-122852380D01*
X114342857Y-122804761D01*
X114390476Y-122757142D01*
X114438095Y-122661904D01*
X114438095Y-122566666D01*
X114390476Y-122471428D01*
X114342857Y-122423809D01*
X114247619Y-122376190D01*
X114057142Y-122328571D01*
X113961904Y-122280952D01*
X113914285Y-122233333D01*
X113866666Y-122138095D01*
X113866666Y-122042857D01*
X113914285Y-121947619D01*
X113961904Y-121900000D01*
X114057142Y-121852380D01*
X114295238Y-121852380D01*
X114438095Y-121900000D01*
X114771428Y-121852380D02*
X115009523Y-122852380D01*
X115200000Y-122138095D01*
X115390476Y-122852380D01*
X115628571Y-121852380D01*
X116533333Y-122852380D02*
X115961904Y-122852380D01*
X116247619Y-122852380D02*
X116247619Y-121852380D01*
X116152380Y-121995238D01*
X116057142Y-122090476D01*
X115961904Y-122138095D01*
%TO.C,R2*%
X135333333Y-80852380D02*
X135000000Y-80376190D01*
X134761904Y-80852380D02*
X134761904Y-79852380D01*
X135142857Y-79852380D01*
X135238095Y-79900000D01*
X135285714Y-79947619D01*
X135333333Y-80042857D01*
X135333333Y-80185714D01*
X135285714Y-80280952D01*
X135238095Y-80328571D01*
X135142857Y-80376190D01*
X134761904Y-80376190D01*
X135714285Y-79947619D02*
X135761904Y-79900000D01*
X135857142Y-79852380D01*
X136095238Y-79852380D01*
X136190476Y-79900000D01*
X136238095Y-79947619D01*
X136285714Y-80042857D01*
X136285714Y-80138095D01*
X136238095Y-80280952D01*
X135666666Y-80852380D01*
X136285714Y-80852380D01*
%TO.C,R1*%
X135333333Y-87852380D02*
X135000000Y-87376190D01*
X134761904Y-87852380D02*
X134761904Y-86852380D01*
X135142857Y-86852380D01*
X135238095Y-86900000D01*
X135285714Y-86947619D01*
X135333333Y-87042857D01*
X135333333Y-87185714D01*
X135285714Y-87280952D01*
X135238095Y-87328571D01*
X135142857Y-87376190D01*
X134761904Y-87376190D01*
X136285714Y-87852380D02*
X135714285Y-87852380D01*
X136000000Y-87852380D02*
X136000000Y-86852380D01*
X135904761Y-86995238D01*
X135809523Y-87090476D01*
X135714285Y-87138095D01*
%TO.C,R6*%
X156433333Y-78852380D02*
X156100000Y-78376190D01*
X155861904Y-78852380D02*
X155861904Y-77852380D01*
X156242857Y-77852380D01*
X156338095Y-77900000D01*
X156385714Y-77947619D01*
X156433333Y-78042857D01*
X156433333Y-78185714D01*
X156385714Y-78280952D01*
X156338095Y-78328571D01*
X156242857Y-78376190D01*
X155861904Y-78376190D01*
X157290476Y-77852380D02*
X157100000Y-77852380D01*
X157004761Y-77900000D01*
X156957142Y-77947619D01*
X156861904Y-78090476D01*
X156814285Y-78280952D01*
X156814285Y-78661904D01*
X156861904Y-78757142D01*
X156909523Y-78804761D01*
X157004761Y-78852380D01*
X157195238Y-78852380D01*
X157290476Y-78804761D01*
X157338095Y-78757142D01*
X157385714Y-78661904D01*
X157385714Y-78423809D01*
X157338095Y-78328571D01*
X157290476Y-78280952D01*
X157195238Y-78233333D01*
X157004761Y-78233333D01*
X156909523Y-78280952D01*
X156861904Y-78328571D01*
X156814285Y-78423809D01*
%TO.C,R5*%
X154033333Y-78852380D02*
X153700000Y-78376190D01*
X153461904Y-78852380D02*
X153461904Y-77852380D01*
X153842857Y-77852380D01*
X153938095Y-77900000D01*
X153985714Y-77947619D01*
X154033333Y-78042857D01*
X154033333Y-78185714D01*
X153985714Y-78280952D01*
X153938095Y-78328571D01*
X153842857Y-78376190D01*
X153461904Y-78376190D01*
X154938095Y-77852380D02*
X154461904Y-77852380D01*
X154414285Y-78328571D01*
X154461904Y-78280952D01*
X154557142Y-78233333D01*
X154795238Y-78233333D01*
X154890476Y-78280952D01*
X154938095Y-78328571D01*
X154985714Y-78423809D01*
X154985714Y-78661904D01*
X154938095Y-78757142D01*
X154890476Y-78804761D01*
X154795238Y-78852380D01*
X154557142Y-78852380D01*
X154461904Y-78804761D01*
X154414285Y-78757142D01*
%TO.C,Q5*%
X172904761Y-139947619D02*
X172809523Y-139900000D01*
X172714285Y-139804761D01*
X172571428Y-139661904D01*
X172476190Y-139614285D01*
X172380952Y-139614285D01*
X172428571Y-139852380D02*
X172333333Y-139804761D01*
X172238095Y-139709523D01*
X172190476Y-139519047D01*
X172190476Y-139185714D01*
X172238095Y-138995238D01*
X172333333Y-138900000D01*
X172428571Y-138852380D01*
X172619047Y-138852380D01*
X172714285Y-138900000D01*
X172809523Y-138995238D01*
X172857142Y-139185714D01*
X172857142Y-139519047D01*
X172809523Y-139709523D01*
X172714285Y-139804761D01*
X172619047Y-139852380D01*
X172428571Y-139852380D01*
X173761904Y-138852380D02*
X173285714Y-138852380D01*
X173238095Y-139328571D01*
X173285714Y-139280952D01*
X173380952Y-139233333D01*
X173619047Y-139233333D01*
X173714285Y-139280952D01*
X173761904Y-139328571D01*
X173809523Y-139423809D01*
X173809523Y-139661904D01*
X173761904Y-139757142D01*
X173714285Y-139804761D01*
X173619047Y-139852380D01*
X173380952Y-139852380D01*
X173285714Y-139804761D01*
X173238095Y-139757142D01*
%TO.C,Q3*%
X172904761Y-126947619D02*
X172809523Y-126900000D01*
X172714285Y-126804761D01*
X172571428Y-126661904D01*
X172476190Y-126614285D01*
X172380952Y-126614285D01*
X172428571Y-126852380D02*
X172333333Y-126804761D01*
X172238095Y-126709523D01*
X172190476Y-126519047D01*
X172190476Y-126185714D01*
X172238095Y-125995238D01*
X172333333Y-125900000D01*
X172428571Y-125852380D01*
X172619047Y-125852380D01*
X172714285Y-125900000D01*
X172809523Y-125995238D01*
X172857142Y-126185714D01*
X172857142Y-126519047D01*
X172809523Y-126709523D01*
X172714285Y-126804761D01*
X172619047Y-126852380D01*
X172428571Y-126852380D01*
X173190476Y-125852380D02*
X173809523Y-125852380D01*
X173476190Y-126233333D01*
X173619047Y-126233333D01*
X173714285Y-126280952D01*
X173761904Y-126328571D01*
X173809523Y-126423809D01*
X173809523Y-126661904D01*
X173761904Y-126757142D01*
X173714285Y-126804761D01*
X173619047Y-126852380D01*
X173333333Y-126852380D01*
X173238095Y-126804761D01*
X173190476Y-126757142D01*
%TO.C,Q4*%
X142904761Y-139747619D02*
X142809523Y-139700000D01*
X142714285Y-139604761D01*
X142571428Y-139461904D01*
X142476190Y-139414285D01*
X142380952Y-139414285D01*
X142428571Y-139652380D02*
X142333333Y-139604761D01*
X142238095Y-139509523D01*
X142190476Y-139319047D01*
X142190476Y-138985714D01*
X142238095Y-138795238D01*
X142333333Y-138700000D01*
X142428571Y-138652380D01*
X142619047Y-138652380D01*
X142714285Y-138700000D01*
X142809523Y-138795238D01*
X142857142Y-138985714D01*
X142857142Y-139319047D01*
X142809523Y-139509523D01*
X142714285Y-139604761D01*
X142619047Y-139652380D01*
X142428571Y-139652380D01*
X143714285Y-138985714D02*
X143714285Y-139652380D01*
X143476190Y-138604761D02*
X143238095Y-139319047D01*
X143857142Y-139319047D01*
%TO.C,Q2*%
X142904761Y-126947619D02*
X142809523Y-126900000D01*
X142714285Y-126804761D01*
X142571428Y-126661904D01*
X142476190Y-126614285D01*
X142380952Y-126614285D01*
X142428571Y-126852380D02*
X142333333Y-126804761D01*
X142238095Y-126709523D01*
X142190476Y-126519047D01*
X142190476Y-126185714D01*
X142238095Y-125995238D01*
X142333333Y-125900000D01*
X142428571Y-125852380D01*
X142619047Y-125852380D01*
X142714285Y-125900000D01*
X142809523Y-125995238D01*
X142857142Y-126185714D01*
X142857142Y-126519047D01*
X142809523Y-126709523D01*
X142714285Y-126804761D01*
X142619047Y-126852380D01*
X142428571Y-126852380D01*
X143238095Y-125947619D02*
X143285714Y-125900000D01*
X143380952Y-125852380D01*
X143619047Y-125852380D01*
X143714285Y-125900000D01*
X143761904Y-125947619D01*
X143809523Y-126042857D01*
X143809523Y-126138095D01*
X143761904Y-126280952D01*
X143190476Y-126852380D01*
X143809523Y-126852380D01*
%TO.C,Q7*%
X132904761Y-122147619D02*
X132809523Y-122100000D01*
X132714285Y-122004761D01*
X132571428Y-121861904D01*
X132476190Y-121814285D01*
X132380952Y-121814285D01*
X132428571Y-122052380D02*
X132333333Y-122004761D01*
X132238095Y-121909523D01*
X132190476Y-121719047D01*
X132190476Y-121385714D01*
X132238095Y-121195238D01*
X132333333Y-121100000D01*
X132428571Y-121052380D01*
X132619047Y-121052380D01*
X132714285Y-121100000D01*
X132809523Y-121195238D01*
X132857142Y-121385714D01*
X132857142Y-121719047D01*
X132809523Y-121909523D01*
X132714285Y-122004761D01*
X132619047Y-122052380D01*
X132428571Y-122052380D01*
X133190476Y-121052380D02*
X133857142Y-121052380D01*
X133428571Y-122052380D01*
%TO.C,Q6*%
X132904761Y-113047619D02*
X132809523Y-113000000D01*
X132714285Y-112904761D01*
X132571428Y-112761904D01*
X132476190Y-112714285D01*
X132380952Y-112714285D01*
X132428571Y-112952380D02*
X132333333Y-112904761D01*
X132238095Y-112809523D01*
X132190476Y-112619047D01*
X132190476Y-112285714D01*
X132238095Y-112095238D01*
X132333333Y-112000000D01*
X132428571Y-111952380D01*
X132619047Y-111952380D01*
X132714285Y-112000000D01*
X132809523Y-112095238D01*
X132857142Y-112285714D01*
X132857142Y-112619047D01*
X132809523Y-112809523D01*
X132714285Y-112904761D01*
X132619047Y-112952380D01*
X132428571Y-112952380D01*
X133714285Y-111952380D02*
X133523809Y-111952380D01*
X133428571Y-112000000D01*
X133380952Y-112047619D01*
X133285714Y-112190476D01*
X133238095Y-112380952D01*
X133238095Y-112761904D01*
X133285714Y-112857142D01*
X133333333Y-112904761D01*
X133428571Y-112952380D01*
X133619047Y-112952380D01*
X133714285Y-112904761D01*
X133761904Y-112857142D01*
X133809523Y-112761904D01*
X133809523Y-112523809D01*
X133761904Y-112428571D01*
X133714285Y-112380952D01*
X133619047Y-112333333D01*
X133428571Y-112333333D01*
X133333333Y-112380952D01*
X133285714Y-112428571D01*
X133238095Y-112523809D01*
%TO.C,Q1*%
X116904761Y-95547619D02*
X116809523Y-95500000D01*
X116714285Y-95404761D01*
X116571428Y-95261904D01*
X116476190Y-95214285D01*
X116380952Y-95214285D01*
X116428571Y-95452380D02*
X116333333Y-95404761D01*
X116238095Y-95309523D01*
X116190476Y-95119047D01*
X116190476Y-94785714D01*
X116238095Y-94595238D01*
X116333333Y-94500000D01*
X116428571Y-94452380D01*
X116619047Y-94452380D01*
X116714285Y-94500000D01*
X116809523Y-94595238D01*
X116857142Y-94785714D01*
X116857142Y-95119047D01*
X116809523Y-95309523D01*
X116714285Y-95404761D01*
X116619047Y-95452380D01*
X116428571Y-95452380D01*
X117809523Y-95452380D02*
X117238095Y-95452380D01*
X117523809Y-95452380D02*
X117523809Y-94452380D01*
X117428571Y-94595238D01*
X117333333Y-94690476D01*
X117238095Y-94738095D01*
%TO.C,K2*%
X159261904Y-129852380D02*
X159261904Y-128852380D01*
X159833333Y-129852380D02*
X159404761Y-129280952D01*
X159833333Y-128852380D02*
X159261904Y-129423809D01*
X160214285Y-128947619D02*
X160261904Y-128900000D01*
X160357142Y-128852380D01*
X160595238Y-128852380D01*
X160690476Y-128900000D01*
X160738095Y-128947619D01*
X160785714Y-129042857D01*
X160785714Y-129138095D01*
X160738095Y-129280952D01*
X160166666Y-129852380D01*
X160785714Y-129852380D01*
%TO.C,J4*%
X189666666Y-70452380D02*
X189666666Y-71166666D01*
X189619047Y-71309523D01*
X189523809Y-71404761D01*
X189380952Y-71452380D01*
X189285714Y-71452380D01*
X190571428Y-70785714D02*
X190571428Y-71452380D01*
X190333333Y-70404761D02*
X190095238Y-71119047D01*
X190714285Y-71119047D01*
%TO.C,J2*%
X138666666Y-67052380D02*
X138666666Y-67766666D01*
X138619047Y-67909523D01*
X138523809Y-68004761D01*
X138380952Y-68052380D01*
X138285714Y-68052380D01*
X139095238Y-67147619D02*
X139142857Y-67100000D01*
X139238095Y-67052380D01*
X139476190Y-67052380D01*
X139571428Y-67100000D01*
X139619047Y-67147619D01*
X139666666Y-67242857D01*
X139666666Y-67338095D01*
X139619047Y-67480952D01*
X139047619Y-68052380D01*
X139666666Y-68052380D01*
%TO.C,F1*%
X109154166Y-98248571D02*
X108820833Y-98248571D01*
X108820833Y-98772380D02*
X108820833Y-97772380D01*
X109297023Y-97772380D01*
X110201785Y-98772380D02*
X109630357Y-98772380D01*
X109916071Y-98772380D02*
X109916071Y-97772380D01*
X109820833Y-97915238D01*
X109725595Y-98010476D01*
X109630357Y-98058095D01*
%TO.C,D1*%
X130511904Y-87852380D02*
X130511904Y-86852380D01*
X130750000Y-86852380D01*
X130892857Y-86900000D01*
X130988095Y-86995238D01*
X131035714Y-87090476D01*
X131083333Y-87280952D01*
X131083333Y-87423809D01*
X131035714Y-87614285D01*
X130988095Y-87709523D01*
X130892857Y-87804761D01*
X130750000Y-87852380D01*
X130511904Y-87852380D01*
X132035714Y-87852380D02*
X131464285Y-87852380D01*
X131750000Y-87852380D02*
X131750000Y-86852380D01*
X131654761Y-86995238D01*
X131559523Y-87090476D01*
X131464285Y-87138095D01*
%TO.C,D6*%
X156261904Y-70052380D02*
X156261904Y-69052380D01*
X156500000Y-69052380D01*
X156642857Y-69100000D01*
X156738095Y-69195238D01*
X156785714Y-69290476D01*
X156833333Y-69480952D01*
X156833333Y-69623809D01*
X156785714Y-69814285D01*
X156738095Y-69909523D01*
X156642857Y-70004761D01*
X156500000Y-70052380D01*
X156261904Y-70052380D01*
X157690476Y-69052380D02*
X157500000Y-69052380D01*
X157404761Y-69100000D01*
X157357142Y-69147619D01*
X157261904Y-69290476D01*
X157214285Y-69480952D01*
X157214285Y-69861904D01*
X157261904Y-69957142D01*
X157309523Y-70004761D01*
X157404761Y-70052380D01*
X157595238Y-70052380D01*
X157690476Y-70004761D01*
X157738095Y-69957142D01*
X157785714Y-69861904D01*
X157785714Y-69623809D01*
X157738095Y-69528571D01*
X157690476Y-69480952D01*
X157595238Y-69433333D01*
X157404761Y-69433333D01*
X157309523Y-69480952D01*
X157261904Y-69528571D01*
X157214285Y-69623809D01*
%TO.C,D5*%
X153861904Y-70052380D02*
X153861904Y-69052380D01*
X154100000Y-69052380D01*
X154242857Y-69100000D01*
X154338095Y-69195238D01*
X154385714Y-69290476D01*
X154433333Y-69480952D01*
X154433333Y-69623809D01*
X154385714Y-69814285D01*
X154338095Y-69909523D01*
X154242857Y-70004761D01*
X154100000Y-70052380D01*
X153861904Y-70052380D01*
X155338095Y-69052380D02*
X154861904Y-69052380D01*
X154814285Y-69528571D01*
X154861904Y-69480952D01*
X154957142Y-69433333D01*
X155195238Y-69433333D01*
X155290476Y-69480952D01*
X155338095Y-69528571D01*
X155385714Y-69623809D01*
X155385714Y-69861904D01*
X155338095Y-69957142D01*
X155290476Y-70004761D01*
X155195238Y-70052380D01*
X154957142Y-70052380D01*
X154861904Y-70004761D01*
X154814285Y-69957142D01*
%TO.C,D4*%
X151461904Y-70052380D02*
X151461904Y-69052380D01*
X151700000Y-69052380D01*
X151842857Y-69100000D01*
X151938095Y-69195238D01*
X151985714Y-69290476D01*
X152033333Y-69480952D01*
X152033333Y-69623809D01*
X151985714Y-69814285D01*
X151938095Y-69909523D01*
X151842857Y-70004761D01*
X151700000Y-70052380D01*
X151461904Y-70052380D01*
X152890476Y-69385714D02*
X152890476Y-70052380D01*
X152652380Y-69004761D02*
X152414285Y-69719047D01*
X153033333Y-69719047D01*
%TO.C,D3*%
X158661904Y-70052380D02*
X158661904Y-69052380D01*
X158900000Y-69052380D01*
X159042857Y-69100000D01*
X159138095Y-69195238D01*
X159185714Y-69290476D01*
X159233333Y-69480952D01*
X159233333Y-69623809D01*
X159185714Y-69814285D01*
X159138095Y-69909523D01*
X159042857Y-70004761D01*
X158900000Y-70052380D01*
X158661904Y-70052380D01*
X159566666Y-69052380D02*
X160185714Y-69052380D01*
X159852380Y-69433333D01*
X159995238Y-69433333D01*
X160090476Y-69480952D01*
X160138095Y-69528571D01*
X160185714Y-69623809D01*
X160185714Y-69861904D01*
X160138095Y-69957142D01*
X160090476Y-70004761D01*
X159995238Y-70052380D01*
X159709523Y-70052380D01*
X159614285Y-70004761D01*
X159566666Y-69957142D01*
%TO.C,D9*%
X164461904Y-122952380D02*
X164461904Y-121952380D01*
X164700000Y-121952380D01*
X164842857Y-122000000D01*
X164938095Y-122095238D01*
X164985714Y-122190476D01*
X165033333Y-122380952D01*
X165033333Y-122523809D01*
X164985714Y-122714285D01*
X164938095Y-122809523D01*
X164842857Y-122904761D01*
X164700000Y-122952380D01*
X164461904Y-122952380D01*
X165509523Y-122952380D02*
X165700000Y-122952380D01*
X165795238Y-122904761D01*
X165842857Y-122857142D01*
X165938095Y-122714285D01*
X165985714Y-122523809D01*
X165985714Y-122142857D01*
X165938095Y-122047619D01*
X165890476Y-122000000D01*
X165795238Y-121952380D01*
X165604761Y-121952380D01*
X165509523Y-122000000D01*
X165461904Y-122047619D01*
X165414285Y-122142857D01*
X165414285Y-122380952D01*
X165461904Y-122476190D01*
X165509523Y-122523809D01*
X165604761Y-122571428D01*
X165795238Y-122571428D01*
X165890476Y-122523809D01*
X165938095Y-122476190D01*
X165985714Y-122380952D01*
%TO.C,D11*%
X170385714Y-147452380D02*
X170385714Y-146452380D01*
X170623809Y-146452380D01*
X170766666Y-146500000D01*
X170861904Y-146595238D01*
X170909523Y-146690476D01*
X170957142Y-146880952D01*
X170957142Y-147023809D01*
X170909523Y-147214285D01*
X170861904Y-147309523D01*
X170766666Y-147404761D01*
X170623809Y-147452380D01*
X170385714Y-147452380D01*
X171909523Y-147452380D02*
X171338095Y-147452380D01*
X171623809Y-147452380D02*
X171623809Y-146452380D01*
X171528571Y-146595238D01*
X171433333Y-146690476D01*
X171338095Y-146738095D01*
X172861904Y-147452380D02*
X172290476Y-147452380D01*
X172576190Y-147452380D02*
X172576190Y-146452380D01*
X172480952Y-146595238D01*
X172385714Y-146690476D01*
X172290476Y-146738095D01*
%TO.C,D8*%
X134961904Y-122952380D02*
X134961904Y-121952380D01*
X135200000Y-121952380D01*
X135342857Y-122000000D01*
X135438095Y-122095238D01*
X135485714Y-122190476D01*
X135533333Y-122380952D01*
X135533333Y-122523809D01*
X135485714Y-122714285D01*
X135438095Y-122809523D01*
X135342857Y-122904761D01*
X135200000Y-122952380D01*
X134961904Y-122952380D01*
X136104761Y-122380952D02*
X136009523Y-122333333D01*
X135961904Y-122285714D01*
X135914285Y-122190476D01*
X135914285Y-122142857D01*
X135961904Y-122047619D01*
X136009523Y-122000000D01*
X136104761Y-121952380D01*
X136295238Y-121952380D01*
X136390476Y-122000000D01*
X136438095Y-122047619D01*
X136485714Y-122142857D01*
X136485714Y-122190476D01*
X136438095Y-122285714D01*
X136390476Y-122333333D01*
X136295238Y-122380952D01*
X136104761Y-122380952D01*
X136009523Y-122428571D01*
X135961904Y-122476190D01*
X135914285Y-122571428D01*
X135914285Y-122761904D01*
X135961904Y-122857142D01*
X136009523Y-122904761D01*
X136104761Y-122952380D01*
X136295238Y-122952380D01*
X136390476Y-122904761D01*
X136438095Y-122857142D01*
X136485714Y-122761904D01*
X136485714Y-122571428D01*
X136438095Y-122476190D01*
X136390476Y-122428571D01*
X136295238Y-122380952D01*
%TO.C,C4*%
X127233333Y-72957142D02*
X127185714Y-73004761D01*
X127042857Y-73052380D01*
X126947619Y-73052380D01*
X126804761Y-73004761D01*
X126709523Y-72909523D01*
X126661904Y-72814285D01*
X126614285Y-72623809D01*
X126614285Y-72480952D01*
X126661904Y-72290476D01*
X126709523Y-72195238D01*
X126804761Y-72100000D01*
X126947619Y-72052380D01*
X127042857Y-72052380D01*
X127185714Y-72100000D01*
X127233333Y-72147619D01*
X128090476Y-72385714D02*
X128090476Y-73052380D01*
X127852380Y-72004761D02*
X127614285Y-72719047D01*
X128233333Y-72719047D01*
X120923809Y-70252380D02*
X120352380Y-70252380D01*
X120638095Y-70252380D02*
X120638095Y-69252380D01*
X120542857Y-69395238D01*
X120447619Y-69490476D01*
X120352380Y-69538095D01*
X121542857Y-69252380D02*
X121638095Y-69252380D01*
X121733333Y-69300000D01*
X121780952Y-69347619D01*
X121828571Y-69442857D01*
X121876190Y-69633333D01*
X121876190Y-69871428D01*
X121828571Y-70061904D01*
X121780952Y-70157142D01*
X121733333Y-70204761D01*
X121638095Y-70252380D01*
X121542857Y-70252380D01*
X121447619Y-70204761D01*
X121400000Y-70157142D01*
X121352380Y-70061904D01*
X121304761Y-69871428D01*
X121304761Y-69633333D01*
X121352380Y-69442857D01*
X121400000Y-69347619D01*
X121447619Y-69300000D01*
X121542857Y-69252380D01*
X122733333Y-69585714D02*
X122733333Y-70252380D01*
X122304761Y-69585714D02*
X122304761Y-70109523D01*
X122352380Y-70204761D01*
X122447619Y-70252380D01*
X122590476Y-70252380D01*
X122685714Y-70204761D01*
X122733333Y-70157142D01*
X123971428Y-69728571D02*
X124304761Y-69728571D01*
X124447619Y-70252380D02*
X123971428Y-70252380D01*
X123971428Y-69252380D01*
X124447619Y-69252380D01*
%TO.C,C1*%
X127233333Y-95357142D02*
X127185714Y-95404761D01*
X127042857Y-95452380D01*
X126947619Y-95452380D01*
X126804761Y-95404761D01*
X126709523Y-95309523D01*
X126661904Y-95214285D01*
X126614285Y-95023809D01*
X126614285Y-94880952D01*
X126661904Y-94690476D01*
X126709523Y-94595238D01*
X126804761Y-94500000D01*
X126947619Y-94452380D01*
X127042857Y-94452380D01*
X127185714Y-94500000D01*
X127233333Y-94547619D01*
X128185714Y-95452380D02*
X127614285Y-95452380D01*
X127900000Y-95452380D02*
X127900000Y-94452380D01*
X127804761Y-94595238D01*
X127709523Y-94690476D01*
X127614285Y-94738095D01*
X121323809Y-102052380D02*
X120752380Y-102052380D01*
X121038095Y-102052380D02*
X121038095Y-101052380D01*
X120942857Y-101195238D01*
X120847619Y-101290476D01*
X120752380Y-101338095D01*
X121942857Y-101052380D02*
X122038095Y-101052380D01*
X122133333Y-101100000D01*
X122180952Y-101147619D01*
X122228571Y-101242857D01*
X122276190Y-101433333D01*
X122276190Y-101671428D01*
X122228571Y-101861904D01*
X122180952Y-101957142D01*
X122133333Y-102004761D01*
X122038095Y-102052380D01*
X121942857Y-102052380D01*
X121847619Y-102004761D01*
X121800000Y-101957142D01*
X121752380Y-101861904D01*
X121704761Y-101671428D01*
X121704761Y-101433333D01*
X121752380Y-101242857D01*
X121800000Y-101147619D01*
X121847619Y-101100000D01*
X121942857Y-101052380D01*
X123133333Y-101385714D02*
X123133333Y-102052380D01*
X122704761Y-101385714D02*
X122704761Y-101909523D01*
X122752380Y-102004761D01*
X122847619Y-102052380D01*
X122990476Y-102052380D01*
X123085714Y-102004761D01*
X123133333Y-101957142D01*
X124371428Y-101528571D02*
X124704761Y-101528571D01*
X124847619Y-102052380D02*
X124371428Y-102052380D01*
X124371428Y-101052380D01*
X124847619Y-101052380D01*
%TO.C,C7*%
X166233333Y-73757142D02*
X166185714Y-73804761D01*
X166042857Y-73852380D01*
X165947619Y-73852380D01*
X165804761Y-73804761D01*
X165709523Y-73709523D01*
X165661904Y-73614285D01*
X165614285Y-73423809D01*
X165614285Y-73280952D01*
X165661904Y-73090476D01*
X165709523Y-72995238D01*
X165804761Y-72900000D01*
X165947619Y-72852380D01*
X166042857Y-72852380D01*
X166185714Y-72900000D01*
X166233333Y-72947619D01*
X166566666Y-72852380D02*
X167233333Y-72852380D01*
X166804761Y-73852380D01*
X162585714Y-75389880D02*
X162680952Y-75389880D01*
X162776190Y-75437500D01*
X162823809Y-75485119D01*
X162871428Y-75580357D01*
X162919047Y-75770833D01*
X162919047Y-76008928D01*
X162871428Y-76199404D01*
X162823809Y-76294642D01*
X162776190Y-76342261D01*
X162680952Y-76389880D01*
X162585714Y-76389880D01*
X162490476Y-76342261D01*
X162442857Y-76294642D01*
X162395238Y-76199404D01*
X162347619Y-76008928D01*
X162347619Y-75770833D01*
X162395238Y-75580357D01*
X162442857Y-75485119D01*
X162490476Y-75437500D01*
X162585714Y-75389880D01*
X163347619Y-76294642D02*
X163395238Y-76342261D01*
X163347619Y-76389880D01*
X163300000Y-76342261D01*
X163347619Y-76294642D01*
X163347619Y-76389880D01*
X164347619Y-76389880D02*
X163776190Y-76389880D01*
X164061904Y-76389880D02*
X164061904Y-75389880D01*
X163966666Y-75532738D01*
X163871428Y-75627976D01*
X163776190Y-75675595D01*
X165204761Y-75723214D02*
X165204761Y-76389880D01*
X164776190Y-75723214D02*
X164776190Y-76247023D01*
X164823809Y-76342261D01*
X164919047Y-76389880D01*
X165061904Y-76389880D01*
X165157142Y-76342261D01*
X165204761Y-76294642D01*
%TO.C,C6*%
X166233333Y-83157142D02*
X166185714Y-83204761D01*
X166042857Y-83252380D01*
X165947619Y-83252380D01*
X165804761Y-83204761D01*
X165709523Y-83109523D01*
X165661904Y-83014285D01*
X165614285Y-82823809D01*
X165614285Y-82680952D01*
X165661904Y-82490476D01*
X165709523Y-82395238D01*
X165804761Y-82300000D01*
X165947619Y-82252380D01*
X166042857Y-82252380D01*
X166185714Y-82300000D01*
X166233333Y-82347619D01*
X167090476Y-82252380D02*
X166900000Y-82252380D01*
X166804761Y-82300000D01*
X166757142Y-82347619D01*
X166661904Y-82490476D01*
X166614285Y-82680952D01*
X166614285Y-83061904D01*
X166661904Y-83157142D01*
X166709523Y-83204761D01*
X166804761Y-83252380D01*
X166995238Y-83252380D01*
X167090476Y-83204761D01*
X167138095Y-83157142D01*
X167185714Y-83061904D01*
X167185714Y-82823809D01*
X167138095Y-82728571D01*
X167090476Y-82680952D01*
X166995238Y-82633333D01*
X166804761Y-82633333D01*
X166709523Y-82680952D01*
X166661904Y-82728571D01*
X166614285Y-82823809D01*
X163357142Y-80389880D02*
X162785714Y-80389880D01*
X163071428Y-80389880D02*
X163071428Y-79389880D01*
X162976190Y-79532738D01*
X162880952Y-79627976D01*
X162785714Y-79675595D01*
X163976190Y-79389880D02*
X164071428Y-79389880D01*
X164166666Y-79437500D01*
X164214285Y-79485119D01*
X164261904Y-79580357D01*
X164309523Y-79770833D01*
X164309523Y-80008928D01*
X164261904Y-80199404D01*
X164214285Y-80294642D01*
X164166666Y-80342261D01*
X164071428Y-80389880D01*
X163976190Y-80389880D01*
X163880952Y-80342261D01*
X163833333Y-80294642D01*
X163785714Y-80199404D01*
X163738095Y-80008928D01*
X163738095Y-79770833D01*
X163785714Y-79580357D01*
X163833333Y-79485119D01*
X163880952Y-79437500D01*
X163976190Y-79389880D01*
X165166666Y-79723214D02*
X165166666Y-80389880D01*
X164738095Y-79723214D02*
X164738095Y-80247023D01*
X164785714Y-80342261D01*
X164880952Y-80389880D01*
X165023809Y-80389880D01*
X165119047Y-80342261D01*
X165166666Y-80294642D01*
%TO.C,C10*%
X186357142Y-87957142D02*
X186309523Y-88004761D01*
X186166666Y-88052380D01*
X186071428Y-88052380D01*
X185928571Y-88004761D01*
X185833333Y-87909523D01*
X185785714Y-87814285D01*
X185738095Y-87623809D01*
X185738095Y-87480952D01*
X185785714Y-87290476D01*
X185833333Y-87195238D01*
X185928571Y-87100000D01*
X186071428Y-87052380D01*
X186166666Y-87052380D01*
X186309523Y-87100000D01*
X186357142Y-87147619D01*
X187309523Y-88052380D02*
X186738095Y-88052380D01*
X187023809Y-88052380D02*
X187023809Y-87052380D01*
X186928571Y-87195238D01*
X186833333Y-87290476D01*
X186738095Y-87338095D01*
X187928571Y-87052380D02*
X188023809Y-87052380D01*
X188119047Y-87100000D01*
X188166666Y-87147619D01*
X188214285Y-87242857D01*
X188261904Y-87433333D01*
X188261904Y-87671428D01*
X188214285Y-87861904D01*
X188166666Y-87957142D01*
X188119047Y-88004761D01*
X188023809Y-88052380D01*
X187928571Y-88052380D01*
X187833333Y-88004761D01*
X187785714Y-87957142D01*
X187738095Y-87861904D01*
X187690476Y-87671428D01*
X187690476Y-87433333D01*
X187738095Y-87242857D01*
X187785714Y-87147619D01*
X187833333Y-87100000D01*
X187928571Y-87052380D01*
%TO.C,C3*%
X125433333Y-80557142D02*
X125385714Y-80604761D01*
X125242857Y-80652380D01*
X125147619Y-80652380D01*
X125004761Y-80604761D01*
X124909523Y-80509523D01*
X124861904Y-80414285D01*
X124814285Y-80223809D01*
X124814285Y-80080952D01*
X124861904Y-79890476D01*
X124909523Y-79795238D01*
X125004761Y-79700000D01*
X125147619Y-79652380D01*
X125242857Y-79652380D01*
X125385714Y-79700000D01*
X125433333Y-79747619D01*
X125766666Y-79652380D02*
X126385714Y-79652380D01*
X126052380Y-80033333D01*
X126195238Y-80033333D01*
X126290476Y-80080952D01*
X126338095Y-80128571D01*
X126385714Y-80223809D01*
X126385714Y-80461904D01*
X126338095Y-80557142D01*
X126290476Y-80604761D01*
X126195238Y-80652380D01*
X125909523Y-80652380D01*
X125814285Y-80604761D01*
X125766666Y-80557142D01*
X117785714Y-79652380D02*
X117880952Y-79652380D01*
X117976190Y-79700000D01*
X118023809Y-79747619D01*
X118071428Y-79842857D01*
X118119047Y-80033333D01*
X118119047Y-80271428D01*
X118071428Y-80461904D01*
X118023809Y-80557142D01*
X117976190Y-80604761D01*
X117880952Y-80652380D01*
X117785714Y-80652380D01*
X117690476Y-80604761D01*
X117642857Y-80557142D01*
X117595238Y-80461904D01*
X117547619Y-80271428D01*
X117547619Y-80033333D01*
X117595238Y-79842857D01*
X117642857Y-79747619D01*
X117690476Y-79700000D01*
X117785714Y-79652380D01*
X118547619Y-80557142D02*
X118595238Y-80604761D01*
X118547619Y-80652380D01*
X118500000Y-80604761D01*
X118547619Y-80557142D01*
X118547619Y-80652380D01*
X119547619Y-80652380D02*
X118976190Y-80652380D01*
X119261904Y-80652380D02*
X119261904Y-79652380D01*
X119166666Y-79795238D01*
X119071428Y-79890476D01*
X118976190Y-79938095D01*
X120404761Y-79985714D02*
X120404761Y-80652380D01*
X119976190Y-79985714D02*
X119976190Y-80509523D01*
X120023809Y-80604761D01*
X120119047Y-80652380D01*
X120261904Y-80652380D01*
X120357142Y-80604761D01*
X120404761Y-80557142D01*
%TO.C,C2*%
X125433333Y-91757142D02*
X125385714Y-91804761D01*
X125242857Y-91852380D01*
X125147619Y-91852380D01*
X125004761Y-91804761D01*
X124909523Y-91709523D01*
X124861904Y-91614285D01*
X124814285Y-91423809D01*
X124814285Y-91280952D01*
X124861904Y-91090476D01*
X124909523Y-90995238D01*
X125004761Y-90900000D01*
X125147619Y-90852380D01*
X125242857Y-90852380D01*
X125385714Y-90900000D01*
X125433333Y-90947619D01*
X125814285Y-90947619D02*
X125861904Y-90900000D01*
X125957142Y-90852380D01*
X126195238Y-90852380D01*
X126290476Y-90900000D01*
X126338095Y-90947619D01*
X126385714Y-91042857D01*
X126385714Y-91138095D01*
X126338095Y-91280952D01*
X125766666Y-91852380D01*
X126385714Y-91852380D01*
X117585714Y-90852380D02*
X117680952Y-90852380D01*
X117776190Y-90900000D01*
X117823809Y-90947619D01*
X117871428Y-91042857D01*
X117919047Y-91233333D01*
X117919047Y-91471428D01*
X117871428Y-91661904D01*
X117823809Y-91757142D01*
X117776190Y-91804761D01*
X117680952Y-91852380D01*
X117585714Y-91852380D01*
X117490476Y-91804761D01*
X117442857Y-91757142D01*
X117395238Y-91661904D01*
X117347619Y-91471428D01*
X117347619Y-91233333D01*
X117395238Y-91042857D01*
X117442857Y-90947619D01*
X117490476Y-90900000D01*
X117585714Y-90852380D01*
X118347619Y-91757142D02*
X118395238Y-91804761D01*
X118347619Y-91852380D01*
X118300000Y-91804761D01*
X118347619Y-91757142D01*
X118347619Y-91852380D01*
X119347619Y-91852380D02*
X118776190Y-91852380D01*
X119061904Y-91852380D02*
X119061904Y-90852380D01*
X118966666Y-90995238D01*
X118871428Y-91090476D01*
X118776190Y-91138095D01*
X120204761Y-91185714D02*
X120204761Y-91852380D01*
X119776190Y-91185714D02*
X119776190Y-91709523D01*
X119823809Y-91804761D01*
X119919047Y-91852380D01*
X120061904Y-91852380D01*
X120157142Y-91804761D01*
X120204761Y-91757142D01*
%TO.C,R11*%
X155757142Y-83252380D02*
X155423809Y-82776190D01*
X155185714Y-83252380D02*
X155185714Y-82252380D01*
X155566666Y-82252380D01*
X155661904Y-82300000D01*
X155709523Y-82347619D01*
X155757142Y-82442857D01*
X155757142Y-82585714D01*
X155709523Y-82680952D01*
X155661904Y-82728571D01*
X155566666Y-82776190D01*
X155185714Y-82776190D01*
X156709523Y-83252380D02*
X156138095Y-83252380D01*
X156423809Y-83252380D02*
X156423809Y-82252380D01*
X156328571Y-82395238D01*
X156233333Y-82490476D01*
X156138095Y-82538095D01*
X157661904Y-83252380D02*
X157090476Y-83252380D01*
X157376190Y-83252380D02*
X157376190Y-82252380D01*
X157280952Y-82395238D01*
X157185714Y-82490476D01*
X157090476Y-82538095D01*
%TO.C,R4*%
X151633333Y-78852380D02*
X151300000Y-78376190D01*
X151061904Y-78852380D02*
X151061904Y-77852380D01*
X151442857Y-77852380D01*
X151538095Y-77900000D01*
X151585714Y-77947619D01*
X151633333Y-78042857D01*
X151633333Y-78185714D01*
X151585714Y-78280952D01*
X151538095Y-78328571D01*
X151442857Y-78376190D01*
X151061904Y-78376190D01*
X152490476Y-78185714D02*
X152490476Y-78852380D01*
X152252380Y-77804761D02*
X152014285Y-78519047D01*
X152633333Y-78519047D01*
%TO.C,R3*%
X158833333Y-78852380D02*
X158500000Y-78376190D01*
X158261904Y-78852380D02*
X158261904Y-77852380D01*
X158642857Y-77852380D01*
X158738095Y-77900000D01*
X158785714Y-77947619D01*
X158833333Y-78042857D01*
X158833333Y-78185714D01*
X158785714Y-78280952D01*
X158738095Y-78328571D01*
X158642857Y-78376190D01*
X158261904Y-78376190D01*
X159166666Y-77852380D02*
X159785714Y-77852380D01*
X159452380Y-78233333D01*
X159595238Y-78233333D01*
X159690476Y-78280952D01*
X159738095Y-78328571D01*
X159785714Y-78423809D01*
X159785714Y-78661904D01*
X159738095Y-78757142D01*
X159690476Y-78804761D01*
X159595238Y-78852380D01*
X159309523Y-78852380D01*
X159214285Y-78804761D01*
X159166666Y-78757142D01*
%TO.C,R13*%
X189957142Y-117902380D02*
X189623809Y-117426190D01*
X189385714Y-117902380D02*
X189385714Y-116902380D01*
X189766666Y-116902380D01*
X189861904Y-116950000D01*
X189909523Y-116997619D01*
X189957142Y-117092857D01*
X189957142Y-117235714D01*
X189909523Y-117330952D01*
X189861904Y-117378571D01*
X189766666Y-117426190D01*
X189385714Y-117426190D01*
X190909523Y-117902380D02*
X190338095Y-117902380D01*
X190623809Y-117902380D02*
X190623809Y-116902380D01*
X190528571Y-117045238D01*
X190433333Y-117140476D01*
X190338095Y-117188095D01*
X191242857Y-116902380D02*
X191861904Y-116902380D01*
X191528571Y-117283333D01*
X191671428Y-117283333D01*
X191766666Y-117330952D01*
X191814285Y-117378571D01*
X191861904Y-117473809D01*
X191861904Y-117711904D01*
X191814285Y-117807142D01*
X191766666Y-117854761D01*
X191671428Y-117902380D01*
X191385714Y-117902380D01*
X191290476Y-117854761D01*
X191242857Y-117807142D01*
%TO.C,R12*%
X155757142Y-81052380D02*
X155423809Y-80576190D01*
X155185714Y-81052380D02*
X155185714Y-80052380D01*
X155566666Y-80052380D01*
X155661904Y-80100000D01*
X155709523Y-80147619D01*
X155757142Y-80242857D01*
X155757142Y-80385714D01*
X155709523Y-80480952D01*
X155661904Y-80528571D01*
X155566666Y-80576190D01*
X155185714Y-80576190D01*
X156709523Y-81052380D02*
X156138095Y-81052380D01*
X156423809Y-81052380D02*
X156423809Y-80052380D01*
X156328571Y-80195238D01*
X156233333Y-80290476D01*
X156138095Y-80338095D01*
X157090476Y-80147619D02*
X157138095Y-80100000D01*
X157233333Y-80052380D01*
X157471428Y-80052380D01*
X157566666Y-80100000D01*
X157614285Y-80147619D01*
X157661904Y-80242857D01*
X157661904Y-80338095D01*
X157614285Y-80480952D01*
X157042857Y-81052380D01*
X157661904Y-81052380D01*
%TO.C,R10*%
X147557142Y-73052380D02*
X147223809Y-72576190D01*
X146985714Y-73052380D02*
X146985714Y-72052380D01*
X147366666Y-72052380D01*
X147461904Y-72100000D01*
X147509523Y-72147619D01*
X147557142Y-72242857D01*
X147557142Y-72385714D01*
X147509523Y-72480952D01*
X147461904Y-72528571D01*
X147366666Y-72576190D01*
X146985714Y-72576190D01*
X148509523Y-73052380D02*
X147938095Y-73052380D01*
X148223809Y-73052380D02*
X148223809Y-72052380D01*
X148128571Y-72195238D01*
X148033333Y-72290476D01*
X147938095Y-72338095D01*
X149128571Y-72052380D02*
X149223809Y-72052380D01*
X149319047Y-72100000D01*
X149366666Y-72147619D01*
X149414285Y-72242857D01*
X149461904Y-72433333D01*
X149461904Y-72671428D01*
X149414285Y-72861904D01*
X149366666Y-72957142D01*
X149319047Y-73004761D01*
X149223809Y-73052380D01*
X149128571Y-73052380D01*
X149033333Y-73004761D01*
X148985714Y-72957142D01*
X148938095Y-72861904D01*
X148890476Y-72671428D01*
X148890476Y-72433333D01*
X148938095Y-72242857D01*
X148985714Y-72147619D01*
X149033333Y-72100000D01*
X149128571Y-72052380D01*
%TO.C,R9*%
X141233333Y-73152380D02*
X140900000Y-72676190D01*
X140661904Y-73152380D02*
X140661904Y-72152380D01*
X141042857Y-72152380D01*
X141138095Y-72200000D01*
X141185714Y-72247619D01*
X141233333Y-72342857D01*
X141233333Y-72485714D01*
X141185714Y-72580952D01*
X141138095Y-72628571D01*
X141042857Y-72676190D01*
X140661904Y-72676190D01*
X141709523Y-73152380D02*
X141900000Y-73152380D01*
X141995238Y-73104761D01*
X142042857Y-73057142D01*
X142138095Y-72914285D01*
X142185714Y-72723809D01*
X142185714Y-72342857D01*
X142138095Y-72247619D01*
X142090476Y-72200000D01*
X141995238Y-72152380D01*
X141804761Y-72152380D01*
X141709523Y-72200000D01*
X141661904Y-72247619D01*
X141614285Y-72342857D01*
X141614285Y-72580952D01*
X141661904Y-72676190D01*
X141709523Y-72723809D01*
X141804761Y-72771428D01*
X141995238Y-72771428D01*
X142090476Y-72723809D01*
X142138095Y-72676190D01*
X142185714Y-72580952D01*
%TO.C,R8*%
X137833333Y-77052380D02*
X137500000Y-76576190D01*
X137261904Y-77052380D02*
X137261904Y-76052380D01*
X137642857Y-76052380D01*
X137738095Y-76100000D01*
X137785714Y-76147619D01*
X137833333Y-76242857D01*
X137833333Y-76385714D01*
X137785714Y-76480952D01*
X137738095Y-76528571D01*
X137642857Y-76576190D01*
X137261904Y-76576190D01*
X138404761Y-76480952D02*
X138309523Y-76433333D01*
X138261904Y-76385714D01*
X138214285Y-76290476D01*
X138214285Y-76242857D01*
X138261904Y-76147619D01*
X138309523Y-76100000D01*
X138404761Y-76052380D01*
X138595238Y-76052380D01*
X138690476Y-76100000D01*
X138738095Y-76147619D01*
X138785714Y-76242857D01*
X138785714Y-76290476D01*
X138738095Y-76385714D01*
X138690476Y-76433333D01*
X138595238Y-76480952D01*
X138404761Y-76480952D01*
X138309523Y-76528571D01*
X138261904Y-76576190D01*
X138214285Y-76671428D01*
X138214285Y-76861904D01*
X138261904Y-76957142D01*
X138309523Y-77004761D01*
X138404761Y-77052380D01*
X138595238Y-77052380D01*
X138690476Y-77004761D01*
X138738095Y-76957142D01*
X138785714Y-76861904D01*
X138785714Y-76671428D01*
X138738095Y-76576190D01*
X138690476Y-76528571D01*
X138595238Y-76480952D01*
%TO.C,R15*%
X136357142Y-117102380D02*
X136023809Y-116626190D01*
X135785714Y-117102380D02*
X135785714Y-116102380D01*
X136166666Y-116102380D01*
X136261904Y-116150000D01*
X136309523Y-116197619D01*
X136357142Y-116292857D01*
X136357142Y-116435714D01*
X136309523Y-116530952D01*
X136261904Y-116578571D01*
X136166666Y-116626190D01*
X135785714Y-116626190D01*
X137309523Y-117102380D02*
X136738095Y-117102380D01*
X137023809Y-117102380D02*
X137023809Y-116102380D01*
X136928571Y-116245238D01*
X136833333Y-116340476D01*
X136738095Y-116388095D01*
X138214285Y-116102380D02*
X137738095Y-116102380D01*
X137690476Y-116578571D01*
X137738095Y-116530952D01*
X137833333Y-116483333D01*
X138071428Y-116483333D01*
X138166666Y-116530952D01*
X138214285Y-116578571D01*
X138261904Y-116673809D01*
X138261904Y-116911904D01*
X138214285Y-117007142D01*
X138166666Y-117054761D01*
X138071428Y-117102380D01*
X137833333Y-117102380D01*
X137738095Y-117054761D01*
X137690476Y-117007142D01*
%TO.C,R14*%
X136357142Y-121102380D02*
X136023809Y-120626190D01*
X135785714Y-121102380D02*
X135785714Y-120102380D01*
X136166666Y-120102380D01*
X136261904Y-120150000D01*
X136309523Y-120197619D01*
X136357142Y-120292857D01*
X136357142Y-120435714D01*
X136309523Y-120530952D01*
X136261904Y-120578571D01*
X136166666Y-120626190D01*
X135785714Y-120626190D01*
X137309523Y-121102380D02*
X136738095Y-121102380D01*
X137023809Y-121102380D02*
X137023809Y-120102380D01*
X136928571Y-120245238D01*
X136833333Y-120340476D01*
X136738095Y-120388095D01*
X138166666Y-120435714D02*
X138166666Y-121102380D01*
X137928571Y-120054761D02*
X137690476Y-120769047D01*
X138309523Y-120769047D01*
%TO.C,R7*%
X105033333Y-98252380D02*
X104700000Y-97776190D01*
X104461904Y-98252380D02*
X104461904Y-97252380D01*
X104842857Y-97252380D01*
X104938095Y-97300000D01*
X104985714Y-97347619D01*
X105033333Y-97442857D01*
X105033333Y-97585714D01*
X104985714Y-97680952D01*
X104938095Y-97728571D01*
X104842857Y-97776190D01*
X104461904Y-97776190D01*
X105366666Y-97252380D02*
X106033333Y-97252380D01*
X105604761Y-98252380D01*
%TO.C,C9*%
X186833333Y-90357142D02*
X186785714Y-90404761D01*
X186642857Y-90452380D01*
X186547619Y-90452380D01*
X186404761Y-90404761D01*
X186309523Y-90309523D01*
X186261904Y-90214285D01*
X186214285Y-90023809D01*
X186214285Y-89880952D01*
X186261904Y-89690476D01*
X186309523Y-89595238D01*
X186404761Y-89500000D01*
X186547619Y-89452380D01*
X186642857Y-89452380D01*
X186785714Y-89500000D01*
X186833333Y-89547619D01*
X187309523Y-90452380D02*
X187500000Y-90452380D01*
X187595238Y-90404761D01*
X187642857Y-90357142D01*
X187738095Y-90214285D01*
X187785714Y-90023809D01*
X187785714Y-89642857D01*
X187738095Y-89547619D01*
X187690476Y-89500000D01*
X187595238Y-89452380D01*
X187404761Y-89452380D01*
X187309523Y-89500000D01*
X187261904Y-89547619D01*
X187214285Y-89642857D01*
X187214285Y-89880952D01*
X187261904Y-89976190D01*
X187309523Y-90023809D01*
X187404761Y-90071428D01*
X187595238Y-90071428D01*
X187690476Y-90023809D01*
X187738095Y-89976190D01*
X187785714Y-89880952D01*
%TO.C,C8*%
X190433333Y-115637142D02*
X190385714Y-115684761D01*
X190242857Y-115732380D01*
X190147619Y-115732380D01*
X190004761Y-115684761D01*
X189909523Y-115589523D01*
X189861904Y-115494285D01*
X189814285Y-115303809D01*
X189814285Y-115160952D01*
X189861904Y-114970476D01*
X189909523Y-114875238D01*
X190004761Y-114780000D01*
X190147619Y-114732380D01*
X190242857Y-114732380D01*
X190385714Y-114780000D01*
X190433333Y-114827619D01*
X191004761Y-115160952D02*
X190909523Y-115113333D01*
X190861904Y-115065714D01*
X190814285Y-114970476D01*
X190814285Y-114922857D01*
X190861904Y-114827619D01*
X190909523Y-114780000D01*
X191004761Y-114732380D01*
X191195238Y-114732380D01*
X191290476Y-114780000D01*
X191338095Y-114827619D01*
X191385714Y-114922857D01*
X191385714Y-114970476D01*
X191338095Y-115065714D01*
X191290476Y-115113333D01*
X191195238Y-115160952D01*
X191004761Y-115160952D01*
X190909523Y-115208571D01*
X190861904Y-115256190D01*
X190814285Y-115351428D01*
X190814285Y-115541904D01*
X190861904Y-115637142D01*
X190909523Y-115684761D01*
X191004761Y-115732380D01*
X191195238Y-115732380D01*
X191290476Y-115684761D01*
X191338095Y-115637142D01*
X191385714Y-115541904D01*
X191385714Y-115351428D01*
X191338095Y-115256190D01*
X191290476Y-115208571D01*
X191195238Y-115160952D01*
%TO.C,C12*%
X112757142Y-105357142D02*
X112709523Y-105404761D01*
X112566666Y-105452380D01*
X112471428Y-105452380D01*
X112328571Y-105404761D01*
X112233333Y-105309523D01*
X112185714Y-105214285D01*
X112138095Y-105023809D01*
X112138095Y-104880952D01*
X112185714Y-104690476D01*
X112233333Y-104595238D01*
X112328571Y-104500000D01*
X112471428Y-104452380D01*
X112566666Y-104452380D01*
X112709523Y-104500000D01*
X112757142Y-104547619D01*
X113709523Y-105452380D02*
X113138095Y-105452380D01*
X113423809Y-105452380D02*
X113423809Y-104452380D01*
X113328571Y-104595238D01*
X113233333Y-104690476D01*
X113138095Y-104738095D01*
X114090476Y-104547619D02*
X114138095Y-104500000D01*
X114233333Y-104452380D01*
X114471428Y-104452380D01*
X114566666Y-104500000D01*
X114614285Y-104547619D01*
X114661904Y-104642857D01*
X114661904Y-104738095D01*
X114614285Y-104880952D01*
X114042857Y-105452380D01*
X114661904Y-105452380D01*
X104985714Y-104452380D02*
X105080952Y-104452380D01*
X105176190Y-104500000D01*
X105223809Y-104547619D01*
X105271428Y-104642857D01*
X105319047Y-104833333D01*
X105319047Y-105071428D01*
X105271428Y-105261904D01*
X105223809Y-105357142D01*
X105176190Y-105404761D01*
X105080952Y-105452380D01*
X104985714Y-105452380D01*
X104890476Y-105404761D01*
X104842857Y-105357142D01*
X104795238Y-105261904D01*
X104747619Y-105071428D01*
X104747619Y-104833333D01*
X104795238Y-104642857D01*
X104842857Y-104547619D01*
X104890476Y-104500000D01*
X104985714Y-104452380D01*
X105747619Y-105357142D02*
X105795238Y-105404761D01*
X105747619Y-105452380D01*
X105700000Y-105404761D01*
X105747619Y-105357142D01*
X105747619Y-105452380D01*
X106747619Y-105452380D02*
X106176190Y-105452380D01*
X106461904Y-105452380D02*
X106461904Y-104452380D01*
X106366666Y-104595238D01*
X106271428Y-104690476D01*
X106176190Y-104738095D01*
X107604761Y-104785714D02*
X107604761Y-105452380D01*
X107176190Y-104785714D02*
X107176190Y-105309523D01*
X107223809Y-105404761D01*
X107319047Y-105452380D01*
X107461904Y-105452380D01*
X107557142Y-105404761D01*
X107604761Y-105357142D01*
%TO.C,C11*%
X112757142Y-129357142D02*
X112709523Y-129404761D01*
X112566666Y-129452380D01*
X112471428Y-129452380D01*
X112328571Y-129404761D01*
X112233333Y-129309523D01*
X112185714Y-129214285D01*
X112138095Y-129023809D01*
X112138095Y-128880952D01*
X112185714Y-128690476D01*
X112233333Y-128595238D01*
X112328571Y-128500000D01*
X112471428Y-128452380D01*
X112566666Y-128452380D01*
X112709523Y-128500000D01*
X112757142Y-128547619D01*
X113709523Y-129452380D02*
X113138095Y-129452380D01*
X113423809Y-129452380D02*
X113423809Y-128452380D01*
X113328571Y-128595238D01*
X113233333Y-128690476D01*
X113138095Y-128738095D01*
X114661904Y-129452380D02*
X114090476Y-129452380D01*
X114376190Y-129452380D02*
X114376190Y-128452380D01*
X114280952Y-128595238D01*
X114185714Y-128690476D01*
X114090476Y-128738095D01*
X104985714Y-128452380D02*
X105080952Y-128452380D01*
X105176190Y-128500000D01*
X105223809Y-128547619D01*
X105271428Y-128642857D01*
X105319047Y-128833333D01*
X105319047Y-129071428D01*
X105271428Y-129261904D01*
X105223809Y-129357142D01*
X105176190Y-129404761D01*
X105080952Y-129452380D01*
X104985714Y-129452380D01*
X104890476Y-129404761D01*
X104842857Y-129357142D01*
X104795238Y-129261904D01*
X104747619Y-129071428D01*
X104747619Y-128833333D01*
X104795238Y-128642857D01*
X104842857Y-128547619D01*
X104890476Y-128500000D01*
X104985714Y-128452380D01*
X105747619Y-129357142D02*
X105795238Y-129404761D01*
X105747619Y-129452380D01*
X105700000Y-129404761D01*
X105747619Y-129357142D01*
X105747619Y-129452380D01*
X106747619Y-129452380D02*
X106176190Y-129452380D01*
X106461904Y-129452380D02*
X106461904Y-128452380D01*
X106366666Y-128595238D01*
X106271428Y-128690476D01*
X106176190Y-128738095D01*
X107604761Y-128785714D02*
X107604761Y-129452380D01*
X107176190Y-128785714D02*
X107176190Y-129309523D01*
X107223809Y-129404761D01*
X107319047Y-129452380D01*
X107461904Y-129452380D01*
X107557142Y-129404761D01*
X107604761Y-129357142D01*
%TO.C,C5*%
X152433333Y-66757142D02*
X152385714Y-66804761D01*
X152242857Y-66852380D01*
X152147619Y-66852380D01*
X152004761Y-66804761D01*
X151909523Y-66709523D01*
X151861904Y-66614285D01*
X151814285Y-66423809D01*
X151814285Y-66280952D01*
X151861904Y-66090476D01*
X151909523Y-65995238D01*
X152004761Y-65900000D01*
X152147619Y-65852380D01*
X152242857Y-65852380D01*
X152385714Y-65900000D01*
X152433333Y-65947619D01*
X153338095Y-65852380D02*
X152861904Y-65852380D01*
X152814285Y-66328571D01*
X152861904Y-66280952D01*
X152957142Y-66233333D01*
X153195238Y-66233333D01*
X153290476Y-66280952D01*
X153338095Y-66328571D01*
X153385714Y-66423809D01*
X153385714Y-66661904D01*
X153338095Y-66757142D01*
X153290476Y-66804761D01*
X153195238Y-66852380D01*
X152957142Y-66852380D01*
X152861904Y-66804761D01*
X152814285Y-66757142D01*
X151985714Y-67252380D02*
X152080952Y-67252380D01*
X152176190Y-67300000D01*
X152223809Y-67347619D01*
X152271428Y-67442857D01*
X152319047Y-67633333D01*
X152319047Y-67871428D01*
X152271428Y-68061904D01*
X152223809Y-68157142D01*
X152176190Y-68204761D01*
X152080952Y-68252380D01*
X151985714Y-68252380D01*
X151890476Y-68204761D01*
X151842857Y-68157142D01*
X151795238Y-68061904D01*
X151747619Y-67871428D01*
X151747619Y-67633333D01*
X151795238Y-67442857D01*
X151842857Y-67347619D01*
X151890476Y-67300000D01*
X151985714Y-67252380D01*
X152747619Y-68157142D02*
X152795238Y-68204761D01*
X152747619Y-68252380D01*
X152700000Y-68204761D01*
X152747619Y-68157142D01*
X152747619Y-68252380D01*
X153747619Y-68252380D02*
X153176190Y-68252380D01*
X153461904Y-68252380D02*
X153461904Y-67252380D01*
X153366666Y-67395238D01*
X153271428Y-67490476D01*
X153176190Y-67538095D01*
X154604761Y-67585714D02*
X154604761Y-68252380D01*
X154176190Y-67585714D02*
X154176190Y-68109523D01*
X154223809Y-68204761D01*
X154319047Y-68252380D01*
X154461904Y-68252380D01*
X154557142Y-68204761D01*
X154604761Y-68157142D01*
%TD*%
M02*
